<?xml version="1.0" standalone="no"?>
<!DOCTYPE svg PUBLIC "-//W3C//DTD SVG 1.1//EN" "http://www.w3.org/Graphics/SVG/1.1/DTD/svg11.dtd" >
<svg xmlns="http://www.w3.org/2000/svg">
<metadata></metadata>
<defs>
<font id="naiv_thinregular" horiz-adv-x="1175" >
<font-face units-per-em="2048" ascent="1597" descent="-451" />
<missing-glyph horiz-adv-x="716" />
<glyph unicode="&#xfb01;" horiz-adv-x="1159" d="M61 1083q0 25 17.5 41.5t42.5 16.5h155v141q0 169 123 270q118 97 285 97q25 0 42 -17.5t17 -42.5t-17 -41t-42 -16q-119 0 -205 -64.5t-86 -185.5v-141h525q24 0 40.5 -17.5t16.5 -42.5v-1034q0 -25 -16 -42t-41 -17t-42.5 17t-17.5 42v977h-465v-977q0 -25 -16 -42 t-41 -17t-42.5 17t-17.5 42v977h-155q-25 0 -42.5 17t-17.5 42zM858 1477v114q0 25 16.5 42.5t40.5 17.5q25 0 42.5 -17.5t17.5 -42.5v-114q0 -25 -17.5 -42.5t-42.5 -17.5q-24 0 -40.5 17.5t-16.5 42.5z" />
<glyph unicode="&#xfb02;" horiz-adv-x="1398" d="M61 1083q0 25 17.5 41.5t42.5 16.5h155v141q0 169 123 270q118 97 285 97q25 0 42 -17.5t17 -42.5t-17 -41t-42 -16q-119 0 -205 -64.5t-86 -185.5v-141h518v448q0 25 17.5 42.5t42.5 17.5q24 0 40.5 -17.5t16.5 -42.5v-1247q0 -107 80 -174q83 -64 211 -64q25 0 42 -16 t17 -41t-17 -42t-42 -17q-183 0 -295.5 98t-112.5 256v682h-518v-977q0 -25 -16 -42t-41 -17t-42.5 17t-17.5 42v977h-155q-25 0 -42.5 17t-17.5 42z" />
<glyph horiz-adv-x="0" />
<glyph horiz-adv-x="682" />
<glyph horiz-adv-x="716" />
<glyph horiz-adv-x="716" />
<glyph unicode="&#x9;" horiz-adv-x="716" />
<glyph unicode="&#xd;" horiz-adv-x="716" />
<glyph unicode=" "  horiz-adv-x="716" />
<glyph unicode="&#x09;" horiz-adv-x="716" />
<glyph unicode="&#xa0;" horiz-adv-x="716" />
<glyph unicode="!" horiz-adv-x="567" d="M225 47v115q0 25 17.5 42t42.5 17t41 -17t16 -42v-115q0 -25 -16 -42t-41 -17t-42.5 17t-17.5 42zM225 418v1171q0 25 17.5 42.5t42.5 17.5q24 0 40.5 -17.5t16.5 -42.5v-1171q0 -25 -16.5 -42.5t-40.5 -17.5q-25 0 -42.5 17.5t-17.5 42.5z" />
<glyph unicode="&#x22;" horiz-adv-x="618" d="M96 1393l76 217q9 22 31 32t45 3t33.5 -29.5t1.5 -44.5l-76 -217q-7 -23 -30 -33.5t-46 -1.5q-22 8 -32 29.5t-3 44.5zM356 1393l76 217q7 22 30 32.5t46 2.5q22 -7 32.5 -29.5t2.5 -44.5l-76 -217q-9 -23 -31 -33.5t-45 -1.5q-23 8 -33.5 29.5t-1.5 44.5z" />
<glyph unicode="#" horiz-adv-x="1658" d="M72 733q0 25 17 41.5t42 16.5h350l109 348h-314q-25 0 -42 17t-17 42q0 23 17 40t42 17h351l110 353q8 23 29.5 34.5t44.5 4.5t34 -29t3 -45l-98 -318h342l110 353q6 23 27.5 34.5t44.5 4.5q24 -7 35.5 -28.5t3.5 -45.5l-99 -318h314q25 0 42 -17t17 -40q0 -25 -17 -42 t-42 -17h-350l-109 -348h313q24 0 41 -17t17 -41q0 -25 -17 -42t-41 -17h-350l-110 -352q-7 -23 -28.5 -34t-45.5 -5q-23 8 -34.5 29t-4.5 44l100 318h-342l-110 -352q-7 -23 -28.5 -34t-45.5 -5q-23 7 -34 28.5t-5 44.5l100 318h-313q-25 0 -42 17t-17 42zM604 791h342 l109 348h-342z" />
<glyph unicode="$" horiz-adv-x="1185" d="M115 344q-4 25 10 44t39 24q25 2 44.5 -13t22.5 -39q8 -54 32 -97.5t54.5 -69.5t70 -45t72.5 -27t68 -12v718q-86 36 -146 71t-116.5 85.5t-85 117.5t-28.5 150q0 165 101.5 271t274.5 123v139q0 25 16.5 42t41.5 17t42 -17t17 -42v-137q152 -12 256.5 -93t136.5 -213 q6 -25 -6 -45t-37 -26q-23 -6 -44 7t-27 38q-23 89 -96.5 145t-182.5 66v-619q69 -28 102.5 -42.5t88.5 -46.5t92 -66q145 -122 145 -332q0 -94 -37.5 -176t-109.5 -142q-114 -94 -281 -110v-115q0 -25 -17 -42t-42 -17t-41.5 17t-16.5 42v115q-146 12 -247 80 q-142 97 -166 272zM272 1251q0 -99 59.5 -161.5t196.5 -128.5v563q-105 -12 -170 -68q-86 -74 -86 -205zM645 111q116 15 205 84q102 83 102 225q0 61 -17 111t-42.5 84.5t-69 66t-82 51.5t-96.5 45v-667z" />
<glyph unicode="%" horiz-adv-x="1447" d="M72 1145v278q0 107 78 170q71 56 178 56q108 0 176 -56q80 -64 80 -170v-278q0 -106 -80 -170q-71 -55 -176 -55q-104 0 -178 55q-78 63 -78 170zM174 1145q0 -61 45.5 -91t108.5 -30t107 30t44 91v278q0 62 -44 91.5t-107 29.5q-64 0 -109 -29.5t-45 -91.5v-278z M261.5 28q-7.5 23 2.5 46l780 1542q10 22 33 29.5t45 -3.5q23 -10 30.5 -33t-3.5 -46l-778 -1543q-10 -22 -33.5 -29.5t-46.5 3.5q-22 11 -29.5 34zM864 213v279q0 107 78 170q70 55 178 55q109 0 176 -55q80 -64 80 -170v-279q0 -106 -80 -170q-71 -55 -176 -55 q-104 0 -178 55q-78 63 -78 170zM967 213q0 -61 45 -91t108 -30t107.5 30t44.5 91v279q0 62 -44 91t-108 29t-108.5 -29t-44.5 -91v-279z" />
<glyph unicode="&#x26;" horiz-adv-x="1413" d="M143 471q0 143 62 250.5t174 165.5q-42 27 -68 57q-50 53 -77 132t-27 165q0 174 104 287q112 121 303 121q165 0 277 -95q20 -17 20 -43q0 -21 -14 -38q-18 -19 -41.5 -21.5t-42.5 14.5q-75 66 -199 66q-136 0 -217 -84q-73 -79 -73 -207q0 -63 19 -121t54 -96 q78 -84 219 -84h666q25 0 42 -17t17 -42t-17 -42.5t-42 -17.5h-195v-350q0 -204 -122 -332q-130 -139 -349 -139t-352 139q-121 130 -121 332zM260 471q0 -156 90 -252q102 -102 264 -102q171 0 265 102q90 93 90 252v350h-353q-171 0 -266 -100q-90 -99 -90 -250z" />
<glyph unicode="'" horiz-adv-x="360" d="M96 1393l76 217q9 22 31 32t45 3t33.5 -29.5t1.5 -44.5l-76 -217q-7 -23 -30 -33.5t-46 -1.5q-22 8 -32 29.5t-3 44.5z" />
<glyph unicode="(" horiz-adv-x="757" d="M184 842q0 277 99 521.5t295 403.5q20 15 44.5 12.5t39.5 -22.5q15 -19 12 -43t-23 -39q-168 -135 -258 -350.5t-90 -482.5q0 -277 92 -507t256 -360q20 -15 23 -40t-12 -44t-39.5 -21t-44.5 13q-185 148 -289.5 402.5t-104.5 556.5z" />
<glyph unicode=")" horiz-adv-x="757" d="M83.5 -65q2.5 25 22.5 40q164 130 256.5 360t92.5 507q0 267 -90 482.5t-259 350.5q-20 15 -22.5 39t12.5 43q15 20 39.5 22.5t44.5 -12.5q195 -158 294 -403t99 -522q0 -302 -104.5 -556.5t-288.5 -402.5q-20 -15 -44.5 -13t-39.5 21t-12.5 44z" />
<glyph unicode="*" horiz-adv-x="1005" d="M84.5 894.5q4.5 24.5 24.5 37.5l292 207l-292 207q-20 13 -24.5 37t9.5 44q15 20 38.5 24.5t43.5 -9.5l268 -191v328q0 25 17.5 42t42.5 17t41 -17t16 -42v-328l268 191q20 14 44.5 9.5t37.5 -24.5q14 -20 10 -44t-24 -37l-293 -207l293 -207q20 -13 24 -37.5t-10 -44.5 q-13 -20 -37.5 -24t-44.5 10l-268 190v-330q0 -24 -16.5 -40.5t-40.5 -16.5q-25 0 -42.5 17t-17.5 40v330l-268 -190q-20 -14 -43.5 -10t-38.5 24q-14 20 -9.5 44.5z" />
<glyph unicode="+" horiz-adv-x="1110" d="M113 698q0 25 17 42.5t42 17.5h324v323q0 25 17 42.5t42 17.5q24 0 40.5 -17.5t16.5 -42.5v-323h326q25 0 42 -17.5t17 -42.5t-17 -42t-42 -17h-326v-324q0 -25 -16 -42t-41 -17t-42 17t-17 42v324h-324q-25 0 -42 17t-17 42z" />
<glyph unicode="," horiz-adv-x="481" d="M96 -20l76 217q9 22 31 31.5t45 2.5t33 -29t2 -44l-76 -217q-7 -23 -30 -33.5t-46 -1.5q-23 7 -33 28.5t-2 45.5z" />
<glyph unicode="-" horiz-adv-x="684" d="M113 819q0 25 17 42.5t42 17.5h340q25 0 42 -17.5t17 -42.5t-17 -42t-42 -17h-340q-25 0 -42 17t-17 42z" />
<glyph unicode="." horiz-adv-x="423" d="M113 47v115q0 23 17 40t42 17q23 0 40 -17t17 -40v-115q0 -25 -17 -42t-40 -17q-25 0 -42 17t-17 42z" />
<glyph unicode="/" horiz-adv-x="942" d="M23.5 -79.5q-7.5 23.5 3.5 46.5l751 1755q10 22 34 30t46 -3t29.5 -34t-2.5 -46l-752 -1755q-12 -22 -35 -29.5t-45 2.5t-29.5 33.5z" />
<glyph unicode="0" horiz-adv-x="1286" d="M174 395v848q0 182 129.5 294t339.5 112t339.5 -112t129.5 -294v-848q0 -183 -129 -295t-340 -112t-340 112t-129 295zM293 395q0 -135 96 -213q98 -76 254 -76q159 0 254 76q98 76 98 213v848q0 135 -98 211q-95 76 -254 76q-156 0 -254 -76q-96 -78 -96 -211v-848z" />
<glyph unicode="1" horiz-adv-x="864" d="M133 1180q0 25 16 42t41 17q137 0 213 98q76 95 76 252q0 25 17.5 42.5t42.5 17.5t42 -17.5t17 -42.5v-1542q0 -25 -17 -42t-42 -17t-42.5 17t-17.5 42v1196q-110 -123 -289 -123q-24 0 -40.5 17.5t-16.5 42.5z" />
<glyph unicode="2" horiz-adv-x="1200" d="M121 31q-17 33 2 61l524 721q57 75 87 116.5t74 110t64.5 123t20.5 99.5q0 117 -88 190q-101 80 -230 80q-69 0 -131 -18.5t-113 -65.5t-67 -117q-6 -23 -26 -36t-43 -9q-25 6 -38 26.5t-7 45.5q31 141 153 219q116 72 272 72q194 0 314.5 -108.5t120.5 -278.5 q0 -24 -5 -51t-11 -50t-20 -54t-23 -51t-31 -54.5t-32 -51.5t-37 -55t-36 -50.5t-39 -53.5t-37 -50q-247 -340 -411 -566l-43 -58h733q25 0 42 -16.5t17 -41.5t-17 -42t-42 -17h-846q-34 0 -51 31z" />
<glyph unicode="3" horiz-adv-x="1163" d="M109 272q-9 22 0.5 45.5t31.5 30.5q24 8 46.5 -2t29.5 -33q38 -100 123.5 -154.5t206.5 -54.5q169 0 264 103q43 45 66.5 116t23.5 148q0 157 -90 250q-91 102 -264 102q-25 0 -42.5 17.5t-17.5 40.5q0 25 17.5 42t42.5 17q141 0 219 84q34 37 53 98t19 125 q0 123 -72 201q-81 84 -219 84q-107 0 -180.5 -53t-98.5 -148q-8 -24 -28.5 -35.5t-44.5 -5.5q-23 6 -35.5 28t-5.5 44q35 134 139.5 210.5t253.5 76.5q188 0 303 -121q106 -112 106 -281q0 -88 -27.5 -169t-78.5 -134q-23 -30 -66 -57q60 -28 113 -84q123 -129 123 -332 q0 -100 -32 -191t-91 -153q-130 -139 -350 -139q-158 0 -272.5 74.5t-165.5 209.5z" />
<glyph unicode="4" horiz-adv-x="1204" d="M131 395l666 1223q10 22 34 28t46 -6q30 -17 30 -51v-1163h97q24 0 40.5 -16.5t16.5 -40.5q0 -25 -17 -42.5t-40 -17.5h-97v-262q0 -25 -17 -42t-42 -17t-42.5 17t-17.5 42v262h-606q-33 0 -49 29q-19 29 -2 57zM283 426h505v932q-427 -783 -505 -932z" />
<glyph unicode="5" horiz-adv-x="1224" d="M147 279q-8 24 2 45t33 28q23 9 46 -1.5t30 -33.5q37 -103 123 -158t209 -55q166 0 264 103q90 96 90 252q0 76 -24 146.5t-66 115.5q-94 102 -264 102h-322q-24 0 -45 21q-17 20 -14 45l80 698q3 22 19.5 36.5t39.5 14.5h559q25 0 42.5 -17t17.5 -42q0 -24 -17.5 -40.5 t-42.5 -16.5h-508q-4 -41 -32 -286.5t-33 -295.5h256q220 0 350 -139q58 -60 89.5 -152t31.5 -190q0 -202 -121 -332q-133 -139 -350 -139q-165 0 -283 80q-113 78 -160 211z" />
<glyph unicode="6" horiz-adv-x="1255" d="M174 453v743q0 190 117 320q127 133 338 133q145 0 272 -78q118 -80 154 -205q8 -25 -1.5 -46t-35.5 -30q-23 -8 -45 3t-29 34q-35 99 -116 151t-199 52q-162 0 -252 -96q-84 -90 -84 -238v-397q0 2 2 2q130 139 348 139t348 -139q58 -62 89.5 -153t31.5 -189 q0 -91 -32 -180.5t-89 -151.5q-62 -68 -153 -103.5t-195 -35.5q-219 0 -348 139q-121 127 -121 326zM293 459q0 -158 88 -252q94 -101 262 -101q169 0 262 101q90 96 90 252q0 75 -24 146t-66 116q-94 102 -262 102t-262 -102q-42 -45 -65 -116t-23 -146z" />
<glyph unicode="7" horiz-adv-x="1060" d="M82 1577q0 25 17 42t42 17h746q31 0 49 -24q17 -27 8 -53l-520 -1532q-7 -25 -29 -35.5t-45 -1.5q-24 7 -34.5 28t-2.5 45l492 1455h-664q-25 0 -42 17t-17 42z" />
<glyph unicode="8" horiz-adv-x="1271" d="M164 459q0 142 60 257.5t175 170.5q-39 25 -67 57q-50 53 -77.5 132t-27.5 165q0 173 105 287q112 121 303 121q188 0 303 -121q106 -112 106 -287q0 -87 -27.5 -165.5t-78.5 -131.5q-23 -30 -66 -57q115 -57 175.5 -172t60.5 -256q0 -203 -123 -332q-130 -139 -350 -139 q-217 0 -350 139q-121 130 -121 332zM281 459q0 -160 96.5 -257.5t257.5 -97.5t258.5 97.5t95.5 257.5q-3 168 -93.5 266t-260.5 98q-167 0 -260.5 -98.5t-93.5 -265.5zM344 1241q0 -137 76 -219.5t215 -81.5q141 -1 216 81t75 220q0 132 -78.5 211.5t-212.5 79.5 q-133 0 -212 -80t-79 -211z" />
<glyph unicode="9" horiz-adv-x="1265" d="M154 1178q0 92 31.5 180.5t88.5 150.5q64 67 155 103.5t194 36.5t194.5 -36.5t155.5 -103.5q119 -128 119 -325v-731q0 -200 -125.5 -326.5t-327.5 -126.5q-327 9 -428 283q-6 24 3.5 46t33.5 29q24 8 46.5 -2.5t29.5 -33.5q34 -98 115 -150.5t200 -52.5q152 0 244 91 t92 243v397q-132 -141 -352 -141q-216 0 -349 139q-120 129 -120 330zM272 1178q0 -159 96 -256t255 -97q160 -1 256 96.5t96 256.5q0 161 -96 258t-256 96q-160 1 -255.5 -96.5t-95.5 -257.5z" />
<glyph unicode=":" horiz-adv-x="423" d="M113 47v115q0 23 17 40t42 17q23 0 40 -17t17 -40v-115q0 -25 -17 -42t-40 -17q-25 0 -42 17t-17 42zM113 766v113q0 25 17 42t42 17q23 0 40 -17t17 -42v-113q0 -25 -17 -42t-40 -17q-25 0 -42 17t-17 42z" />
<glyph unicode=";" horiz-adv-x="483" d="M96 -25l78 218q7 22 29 32t45 2q23 -7 33.5 -29t1.5 -44l-76 -217q-7 -23 -29.5 -33.5t-44.5 -1.5q-23 7 -34 28.5t-3 44.5zM131 770v115q0 25 17 42t42 17t41.5 -17t16.5 -42v-115q0 -25 -16.5 -41t-41.5 -16t-42 16t-17 41z" />
<glyph unicode="&#x3c;" horiz-adv-x="845" d="M165 696q0 24 17 41l400 400q17 17 41 17t41 -17q19 -19 19 -42t-19 -42l-357 -357q69 -68 357 -356q19 -19 19 -42t-19 -42q-17 -17 -41 -17t-41 17l-400 399q-17 17 -17 41z" />
<glyph unicode="=" horiz-adv-x="704" d="M123 618q0 25 17 42.5t42 17.5h340q25 0 42.5 -17.5t17.5 -42.5t-17.5 -42t-42.5 -17h-340q-25 0 -42 17t-17 42zM123 819q0 25 17 42.5t42 17.5h340q25 0 42.5 -17.5t17.5 -42.5t-17.5 -42t-42.5 -17h-340q-25 0 -42 17t-17 42z" />
<glyph unicode="&#x3e;" horiz-adv-x="845" d="M163 284q0 23 19 42l357 356q-69 68 -357 356q-19 19 -19 42t19 42q17 17 41 17t41 -17l400 -399q17 -17 17 -41t-17 -41l-400 -399q-17 -17 -41 -17t-41 17q-19 19 -19 42z" />
<glyph unicode="?" horiz-adv-x="1124" d="M61 1241q0 183 129 295.5t340 112.5q212 0 341.5 -112.5t129.5 -295.5q-3 -62 -19.5 -115t-35.5 -86t-53.5 -66.5t-56 -49t-60.5 -41.5q-59 -41 -80 -60q-32 -27 -53 -55.5t-31.5 -57.5t-15 -63t-4.5 -72v-83v-74q0 -25 -16 -41.5t-41 -18.5q-25 0 -42.5 17.5t-17.5 42.5 l-2 71q-1 63 0 94.5t8 84.5t21.5 87.5t44.5 77.5t74 80q46 39 90 68q38 25 56 38t45.5 39t39.5 50.5t22 63t9 85.5q-3 123 -99 197q-95 76 -254 76q-156 0 -254 -76q-96 -78 -96 -213q0 -25 -17 -42t-42 -17t-42.5 17t-17.5 42zM473 47v115q0 25 17 42t42 17t42.5 -17 t17.5 -42v-115q0 -25 -17.5 -42t-42.5 -17t-42 17t-17 42z" />
<glyph unicode="@" horiz-adv-x="1617" d="M154 551v536q0 251 181 406.5t476 155.5q293 0 473 -155.5t180 -406.5v-479q0 -140 -43 -205q-61 -94 -186 -94q-136 0 -199 84q-84 -84 -229 -84q-122 0 -205 64q-94 72 -94 200v285q0 117 85 194.5t214 77.5q131 0 216 -77t85 -195v-250q0 -77 14.5 -116.5t39.5 -51.5 t73 -12q41 0 63 12t35 52t13 116v479q0 207 -152 326q-145 117 -383 117t-383 -117q-154 -120 -154 -326v-536q0 -208 154 -328q146 -112 383 -112q26 0 43.5 -18.5t17.5 -43.5t-17.5 -43t-43.5 -18q-296 0 -476.5 155.5t-180.5 407.5zM629 573q0 -73 52 -107t126 -34 q75 0 127.5 34t52.5 107v285q0 72 -53.5 112t-126.5 40q-72 0 -125 -40t-53 -112v-285z" />
<glyph unicode="A" d="M76 63l456 1547q4 18 20.5 29.5t35.5 11.5q44 0 57 -41l457 -1549q2 -8 2 -15q0 -15 -8 -29q-12 -21 -35 -27q-9 -3 -17 -3q-14 -1 -28 7q-22 12 -27 35l-123 413h-557q-72 -243 -121 -413q-6 -23 -27 -34q-14 -7 -29 -7q-8 0 -17 2q-23 6 -34 28q-7 14 -7 29q0 8 2 16z M344 561h487q-33 113 -89 301t-95 321t-59 201q-103 -352 -244 -823z" />
<glyph unicode="B" horiz-adv-x="1273" d="M205 59v1518q0 25 17 42t42 17h406q169 0 270 -123q96 -116 96 -284q0 -170 -96 -283q-16 -21 -43 -45q109 -52 171 -164.5t62 -267.5q0 -211 -112 -340t-295 -129h-459q-25 0 -42 17t-17 42zM322 117h401q134 0 213 98q78 100 78 254q0 157 -78 254q-76 98 -213 98h-401 v-704zM322 940h352q80 0 137 43.5t82 107t25 138.5t-25 139t-83 108t-140 44h-348v-580z" />
<glyph unicode="C" horiz-adv-x="1214" d="M174 395v848q0 182 129.5 294t339.5 112t339.5 -112t129.5 -294q0 -25 -17 -42t-42 -17q-23 0 -40.5 17t-17.5 42q0 135 -98 211q-95 76 -254 76q-156 0 -254 -76q-96 -78 -96 -211v-848q0 -135 96 -213q98 -76 254 -76q159 0 254 76q98 76 98 213q0 23 17.5 40.5 t40.5 17.5q25 0 42 -17.5t17 -40.5q0 -183 -129 -295t-340 -112t-340 112t-129 295z" />
<glyph unicode="D" horiz-adv-x="1337" d="M205 59v1520q0 25 17 42t42 17h430q211 0 340 -111.5t129 -293.5v-825q0 -193 -143 -306q-127 -102 -326 -102h-430q-25 0 -42 17t-17 42zM322 117h372q64 0 123.5 16t111.5 49t83.5 91.5t31.5 134.5v825q0 135 -98 211q-97 78 -252 78q-284 -2 -372 -2v-1403z" />
<glyph unicode="E" horiz-adv-x="1167" d="M205 59v1520q0 25 17 42t42 17h725q25 0 42.5 -17t17.5 -42t-17.5 -42t-42.5 -17h-665v-580h612q25 0 42 -17t17 -42t-17 -41.5t-42 -16.5h-612v-704h682q25 0 42 -17.5t17 -42.5t-17 -42t-42 -17h-742q-25 0 -42 17t-17 42z" />
<glyph unicode="F" horiz-adv-x="1083" d="M205 47v1530q0 25 17 42t42 17h699q25 0 42 -17t17 -42t-17 -42t-42 -17h-639v-578h585q25 0 42.5 -17t17.5 -42t-17.5 -41.5t-42.5 -16.5h-585v-776q0 -25 -17.5 -42t-42.5 -17t-42 17t-17 42z" />
<glyph unicode="G" horiz-adv-x="1286" d="M174 393v850q0 182 129.5 294t339.5 112t339.5 -112t129.5 -294q0 -25 -17 -42t-42 -17t-42.5 17t-17.5 42q0 135 -98 211q-97 78 -252 78q-154 0 -254 -78q-98 -79 -98 -211v-850q0 -132 98 -211q100 -78 254 -78q155 0 252 78q98 76 98 211v328h-352q-23 0 -40 17 t-17 40q0 25 17 42.5t40 17.5h412q25 0 42 -17.5t17 -42.5v-385q0 -182 -129 -293.5t-340 -111.5t-340 111.5t-129 293.5z" />
<glyph unicode="H" horiz-adv-x="1302" d="M184 47v1542q0 25 17.5 42.5t42.5 17.5q23 0 40 -17.5t17 -42.5v-647h698v647q0 25 17.5 42.5t42.5 17.5t42 -17.5t17 -42.5v-1542q0 -25 -17 -42t-42 -17t-42.5 17t-17.5 42v778h-698v-778q0 -25 -17 -42t-40 -17q-25 0 -42.5 17t-17.5 42z" />
<glyph unicode="I" horiz-adv-x="569" d="M225 47v1542q0 25 17.5 42.5t42.5 17.5t42 -17.5t17 -42.5v-1542q0 -25 -17 -42t-42 -17t-42.5 17t-17.5 42z" />
<glyph unicode="J" horiz-adv-x="753" d="M51 47q0 25 17.5 42t42.5 17q97 0 174 30t126.5 96.5t49.5 162.5v1194q0 25 17 42.5t42 17.5t42.5 -17.5t17.5 -42.5v-1194q0 -183 -129 -295t-340 -112q-25 0 -42.5 17t-17.5 42z" />
<glyph unicode="K" horiz-adv-x="1220" d="M205 47v1542q0 25 17 42.5t42 17.5t42.5 -17.5t17.5 -42.5v-827l686 864q15 20 39.5 22.5t44.5 -12.5q19 -15 21 -39.5t-13 -44.5l-453 -569l492 -909q8 -13 8 -28q-1 -8 -3 -16q-6 -24 -28 -36q-13 -7 -28 -7q-9 0 -18 3q-24 7 -34 28l-469 865l-245 -310v-526 q0 -25 -17.5 -42t-42.5 -17t-42 17t-17 42z" />
<glyph unicode="L" horiz-adv-x="1073" d="M205 59v1530q0 25 17 42.5t42 17.5t42.5 -17.5t17.5 -42.5v-1470h639q25 0 42 -17.5t17 -42.5t-17 -42t-42 -17h-699q-25 0 -42 17t-17 42z" />
<glyph unicode="M" horiz-adv-x="1529" d="M184 47v1542q0 22 13.5 38.5t33.5 19.5q7 2 14 2q15 0 27 -7q18 -10 25 -30l463 -1116q93 221 463 1116q7 20 25 30q12 7 26 7q7 0 14 -2q21 -3 34 -19.5t13 -38.5v-1542q0 -25 -17 -42t-40 -17q-25 0 -42 17t-17 42v1247q-143 -345 -404 -975q-16 -36 -55 -36 q-40 0 -53 36l-404 975v-1247q0 -25 -17 -42t-42 -17t-42.5 17t-17.5 42z" />
<glyph unicode="N" horiz-adv-x="1361" d="M205 47v1542q0 21 12.5 37.5t32.5 20.5q19 5 37.5 -3.5t27.5 -25.5l723 -1337v1308q0 25 17.5 42.5t42.5 17.5t42 -17.5t17 -42.5v-1542q0 -20 -12.5 -36.5t-32.5 -20.5q-9 -2 -18 -2q-32 0 -47 30l-723 1338v-1309q0 -25 -17.5 -42t-42.5 -17t-42 17t-17 42z" />
<glyph unicode="O" horiz-adv-x="1245" d="M154 395v848q0 182 129.5 294t339.5 112t339.5 -112t129.5 -294v-848q0 -183 -129 -295t-340 -112t-340 112t-129 295zM272 395q0 -134 97 -213q98 -76 254 -76q159 0 254 76q98 76 98 213v748q-201 0 -329 103t-140 272q-78 -18 -137 -64q-97 -79 -97 -211v-848z M623 1530q6 -122 98 -193q93 -75 252 -75q-6 120 -96 192q-95 76 -254 76z" />
<glyph unicode="P" horiz-adv-x="1144" d="M205 47v1532q0 25 17 42t42 17h412q178 0 287.5 -126t109.5 -332q0 -204 -109.5 -330.5t-287.5 -126.5h-354v-676q0 -25 -16.5 -42t-41.5 -17t-42 17t-17 42zM322 840h354q129 0 205 94q73 95 73 246q0 153 -73 245q-75 97 -205 97h-354v-682z" />
<glyph unicode="Q" horiz-adv-x="1302" d="M154 395v846q0 182 129.5 294t339.5 112t339.5 -112t129.5 -294v-846q0 -150 -90.5 -254.5t-245.5 -136.5q24 -64 80 -108q100 -78 254 -78q25 0 42 -16.5t17 -41.5t-17 -42t-42 -17q-172 0 -293 78t-160 211h-14q-211 0 -340 111.5t-129 293.5zM270 512q205 0 334 -108 t135 -283q82 19 135 63q99 76 99 211v846q0 135 -99 211q-97 78 -251 78t-254 -78q-99 -80 -99 -211v-729zM272 393q0 -134 97 -209q93 -75 252 -78q0 132 -97 211q-98 76 -252 76z" />
<glyph unicode="R" horiz-adv-x="1202" d="M205 47v1530q0 25 17 42t42 17h412q178 0 287.5 -126t109.5 -332q0 -177 -84 -296.5t-225 -150.5l309 -659q5 -12 5 -24q0 -10 -4 -20q-8 -22 -30 -34q-22 -10 -44 -1.5t-33 30.5l-328 698h-317v-674q0 -25 -16.5 -42t-41.5 -17t-42 17t-17 42zM322 840h354q129 0 205 94 q73 95 73 244q0 153 -73 245q-75 97 -205 97h-354v-680z" />
<glyph unicode="S" horiz-adv-x="1185" d="M115 344q-1 6 -1 11q0 18 11 33q14 19 39 24q25 2 44.5 -13t22.5 -39q9 -66 43 -115.5t74 -75t91 -41t84 -19t63 -3.5q150 0 264 89q102 83 102 225q0 47 -10.5 88.5t-25.5 71.5t-44.5 59.5t-53 47.5t-67 41t-70 35t-77.5 34q-58 23 -99 40.5t-92 44t-85.5 51t-70.5 59.5 t-57 72t-34.5 85t-13.5 102q0 181 120 289.5t320 108.5q174 0 292.5 -81.5t153.5 -226.5q6 -25 -6 -45t-37 -26q-23 -6 -44 7t-27 38q-25 100 -113 156.5t-219 56.5q-150 0 -234 -72q-86 -74 -86 -205q0 -42 9.5 -76.5t33.5 -64.5t50.5 -53.5t76 -51t93 -48t116.5 -52.5 q68 -28 100.5 -42.5t86.5 -46t90 -64.5q145 -122 145 -332q0 -94 -37.5 -176t-109.5 -142q-136 -112 -340 -112q-180 0 -305 82q-142 97 -166 272z" />
<glyph unicode="T" horiz-adv-x="962" d="M51 1577q0 25 17.5 42t42.5 17h907q25 0 41 -17t16 -42t-16 -41t-41 -16h-395v-1473q0 -25 -17.5 -42t-42.5 -17t-41 17t-16 42v1473h-395q-25 0 -42.5 16.5t-17.5 40.5z" />
<glyph unicode="U" horiz-adv-x="1347" d="M205 395v1194q0 25 17 42.5t42 17.5t42.5 -17.5t17.5 -42.5v-1194q0 -135 96 -213q98 -76 254 -76q159 0 254 76q98 76 98 213v1194q0 25 17 42.5t40 17.5q25 0 42.5 -17.5t17.5 -42.5v-1194q0 -183 -129 -295t-340 -112t-340 112t-129 295z" />
<glyph unicode="V" horiz-adv-x="1095" d="M74 1575q-2 8 -2 16q0 15 8 29q12 20 37 27q8 2 15 2q16 -1 30 -9q20 -12 26 -36l334 -1332q99 339 385 1334q7 23 29 35q15 8 30 8q8 0 15 -2q23 -9 35 -29q8 -14 8 -29q0 -8 -2 -16l-447 -1542q-13 -43 -57 -43q-20 0 -35.5 12.5t-21.5 32.5z" />
<glyph unicode="W" horiz-adv-x="1925" d="M74 1575q-2 8 -2 16q0 15 8 29q12 20 37 27q24 6 44.5 -6.5t26.5 -36.5l334 -1332q97 339 383 1334q13 43 58 43q20 0 36.5 -12.5t20.5 -32.5l334 -1332q97 339 385 1334q6 23 27 35q14 8 29 8q7 0 15 -2q23 -9 35 -29q8 -14 8 -29q0 -8 -2 -16l-444 -1542 q-4 -20 -20 -31.5t-37 -11.5q-20 0 -36 12.5t-20 32.5l-336 1331q-97 -338 -383 -1333q-13 -43 -57 -43q-20 0 -35.5 12.5t-21.5 32.5z" />
<glyph unicode="X" horiz-adv-x="1120" d="M74 30q-2 8 -2 16q0 16 8 30l414 755l-402 730q-12 22 -5 45t28 34q15 8 30 8q8 0 16 -2q24 -6 34 -28l364 -664l365 664q12 22 35 28q8 2 15 2q15 0 30 -8q21 -10 28 -33.5t-4 -45.5l-401 -730l413 -755q8 -15 8 -30q0 -8 -2 -16q-6 -24 -28 -34q-15 -8 -30 -8 q-8 0 -16 2q-24 6 -34 28l-379 691l-377 -691q-12 -22 -35 -28q-8 -2 -15 -2q-15 0 -30 8q-22 10 -28 34z" />
<glyph unicode="Y" horiz-adv-x="1183" d="M164 856v733q0 25 17 42.5t42 17.5t41.5 -17.5t16.5 -42.5v-733q0 -113 79 -174q80 -64 211 -64t211 64q80 62 80 174v733q0 25 17.5 42.5t40.5 17.5q25 0 42 -17.5t17 -42.5v-1247q0 -158 -112.5 -256t-295.5 -98q-161 0 -271 80t-132 213q-3 25 11 44.5t38 22.5 q25 4 44 -10t24 -39q11 -68 57.5 -113.5t104.5 -63.5t124 -18q131 0 211 64q80 65 80 174v252q-115 -94 -291 -94q-183 0 -295 98t-112 258z" />
<glyph unicode="Z" horiz-adv-x="1081" d="M72 59q0 15 6 27l774 1432h-721q-25 0 -42 17t-17 42t17 42t42 17h819q24 0 42 -17.5t18 -41.5q0 -15 -9 -27l-772 -1431h721q25 0 42.5 -17.5t17.5 -42.5t-17.5 -42t-42.5 -17h-819q-25 0 -42 17t-17 42z" />
<glyph unicode="[" horiz-adv-x="788" d="M246 -176v1872q0 25 17 42t42 17h342q25 0 42.5 -17t17.5 -42t-17.5 -42.5t-42.5 -17.5h-282v-1753h282q25 0 42.5 -17t17.5 -42t-17.5 -42.5t-42.5 -17.5h-342q-25 0 -42 17.5t-17 42.5z" />
<glyph unicode="\" horiz-adv-x="931" d="M44.5 1719q7.5 23 29.5 34t46 3t34 -30l751 -1755q11 -23 3.5 -46.5t-29.5 -33.5t-45 -2.5t-35 29.5l-752 1755q-10 23 -2.5 46z" />
<glyph unicode="]" horiz-adv-x="788" d="M82 -176q0 25 17 42t42 17h283v1753h-283q-25 0 -42 17.5t-17 42.5t17 42t42 17h342q25 0 42.5 -17t17.5 -42v-1872q0 -25 -17.5 -42.5t-42.5 -17.5h-342q-25 0 -42 17.5t-17 42.5z" />
<glyph unicode="^" horiz-adv-x="1058" d="M78.5 1169q-15.5 36 11.5 64l399 399q17 17 41 17t41 -17l400 -399q27 -26 12 -63t-53 -37q-25 0 -43 18l-357 356l-356 -356q-18 -18 -41 -18q-39 0 -54.5 36z" />
<glyph unicode="_" horiz-adv-x="956" d="M113 59q0 25 17 42.5t42 17.5h612q25 0 42.5 -17.5t17.5 -42.5t-17.5 -42t-42.5 -17h-612q-25 0 -42 17t-17 42z" />
<glyph unicode="`" horiz-adv-x="473" d="M96 1571q-7 23 3 44.5t32 29.5q23 9 46 -1.5t30 -33.5l76 -217q9 -22 -1.5 -44.5t-33.5 -29.5t-45 3t-31 32z" />
<glyph unicode="a" horiz-adv-x="1181" d="M143 342v444q0 167 123 271q116 96 285 96t285 -96q122 -103 122 -271v-499q0 -75 35.5 -128t110.5 -53q25 0 41 -17t16 -42t-16 -42t-41 -17q-74 0 -132.5 34t-92.5 97q-53 -62 -138 -96.5t-190 -34.5q-183 0 -295.5 98t-112.5 256zM262 342q0 -111 78 -174 q83 -64 211 -64q129 0 209 64q80 62 80 174v444q0 82 -43.5 140.5t-107 84t-138.5 25.5t-138.5 -25.5t-107 -84t-43.5 -140.5v-444z" />
<glyph unicode="b" horiz-adv-x="1124" d="M164 328v1263q0 25 17 41.5t42 16.5t42.5 -16.5t17.5 -41.5v-538q121 100 290 100q171 0 285 -94q123 -105 123 -273v-444q0 -160 -112.5 -257t-295.5 -97q-181 0 -295 93.5t-114 246.5zM283 342q0 -113 79 -174q80 -64 211 -64q128 0 211 64q80 62 80 174v444 q0 82 -44 140.5t-108 84t-139 25.5q-119 0 -204.5 -64.5t-85.5 -185.5v-444z" />
<glyph unicode="c" horiz-adv-x="1087" d="M143 342v446q0 170 123 271q114 94 283 94q156 0 266 -81.5t135 -213.5q4 -25 -10 -44.5t-37 -22.5q-25 -5 -44.5 8.5t-22.5 38.5q-17 91 -95 144.5t-192 53.5q-75 0 -138.5 -25t-107 -83t-43.5 -140v-446q0 -109 80 -174q84 -64 209 -64q67 0 125.5 18.5t104.5 64.5 t57 114q5 24 24 38t43 11q24 -5 38 -24q12 -16 12 -35q0 -4 -1 -8q-22 -134 -131.5 -214.5t-271.5 -80.5q-181 0 -293.5 98t-112.5 256z" />
<glyph unicode="d" horiz-adv-x="1214" d="M143 342v444q0 168 125 271q113 96 283 96t291 -100v538q0 24 16.5 41t40.5 17q25 0 42 -17.5t17 -40.5v-1304q0 -75 35.5 -128t110.5 -53q25 0 42 -17t17 -42t-17 -42t-42 -17q-73 0 -131.5 34t-93.5 97q-112 -131 -328 -131q-183 0 -295.5 98t-112.5 256zM262 342 q0 -112 80 -174q80 -64 209 -64q131 0 211 64t80 174v444q0 121 -86 185.5t-205 64.5q-75 0 -138.5 -25.5t-107 -84t-43.5 -140.5v-444z" />
<glyph unicode="e" horiz-adv-x="1079" d="M143 340v448q0 170 123 271q114 94 283 94q171 0 285 -94q122 -101 122 -271v-139q0 -22 -13.5 -38t-33.5 -19l-649 -123v-129q0 -109 80 -174q81 -62 209 -62q106 0 188.5 48t98.5 147q5 24 24 38t43 11q24 -5 38 -24t11 -43q-22 -134 -131 -213.5t-272 -79.5 q-182 0 -294 97t-112 255zM260 588q50 9 296 55.5t284 52.5v92q0 82 -43.5 140t-107.5 83t-140 25q-75 0 -138.5 -25t-107 -83t-43.5 -140v-200z" />
<glyph unicode="f" horiz-adv-x="784" d="M61 1083q0 25 17.5 41.5t42.5 16.5h155v141q0 169 123 270q118 97 285 97q25 0 42 -17.5t17 -42.5t-17 -41t-42 -16q-119 0 -205 -64.5t-86 -185.5v-141h238q25 0 42 -16.5t17 -41.5t-17 -42t-42 -17h-238v-977q0 -25 -16 -42t-41 -17t-42.5 17t-17.5 42v977h-155 q-25 0 -42.5 17t-17.5 42z" />
<glyph unicode="g" horiz-adv-x="1294" d="M143 342v444q0 168 123 273q118 94 285 94t285 -94q39 -36 63 -72q46 79 122.5 122.5t172.5 43.5q25 0 42 -16t17 -41t-17 -42.5t-42 -17.5q-109 0 -174 -80q-62 -81 -62 -208v-891q0 -158 -112 -255.5t-295 -97.5q-163 0 -272.5 79.5t-131.5 213.5q-3 25 11 44.5 t39 23.5q25 3 44 -10.5t23 -38.5q16 -99 98.5 -147t188.5 -48q128 0 211 64q78 63 78 172v223q-109 -92 -289 -92q-183 0 -295.5 97t-112.5 257zM260 342q0 -112 80 -174q80 -64 211 -64q128 0 211 64q78 63 78 174v444q0 82 -43.5 140.5t-107 84t-138.5 25.5 q-119 0 -205 -64.5t-86 -185.5v-444z" />
<glyph unicode="h" horiz-adv-x="1134" d="M174 47v1542q0 25 17 42.5t42 17.5t42.5 -17.5t17.5 -42.5v-536l4 4q116 96 287 96q168 0 284 -96q123 -101 123 -271v-739q0 -25 -17 -42t-42 -17q-24 0 -41 17t-17 42v739q0 82 -43.5 140.5t-107.5 84t-139 25.5q-119 0 -205 -64.5t-86 -185.5v-739q0 -25 -17.5 -42 t-42.5 -17t-42 17t-17 42z" />
<glyph unicode="i" horiz-adv-x="485" d="M184 47v1047q0 25 17.5 42t42.5 17t41 -17t16 -42v-1047q0 -25 -16 -42t-41 -17t-42.5 17t-17.5 42zM184 1475v114q0 25 17.5 42.5t42.5 17.5q24 0 40.5 -17.5t16.5 -42.5v-114q0 -25 -16.5 -42.5t-40.5 -17.5q-25 0 -42.5 17.5t-17.5 42.5z" />
<glyph unicode="j" horiz-adv-x="559" d="M-92 -436q0 25 17 42t42 17q125 0 208 60.5t83 177.5v1233q0 25 17 42t42 17t41.5 -17t16.5 -42v-1233q0 -160 -112.5 -258.5t-295.5 -98.5q-25 0 -42 17.5t-17 42.5zM258 1475v114q0 25 17 42.5t42 17.5t41.5 -17.5t16.5 -42.5v-114q0 -25 -16.5 -42.5t-41.5 -17.5 t-42 17.5t-17 42.5z" />
<glyph unicode="k" horiz-adv-x="987" d="M174 47v1542q0 25 16.5 42.5t40.5 17.5q25 0 42.5 -17.5t17.5 -42.5v-1007l516 553q17 18 41.5 18.5t42.5 -14.5q19 -17 19 -41t-17 -43l-346 -369l360 -610q8 -13 8 -28q0 -8 -2 -16q-6 -24 -28 -36q-13 -8 -28 -8q-8 0 -16 2q-24 6 -36 26l-340 580l-174 -186v-363 q0 -25 -17.5 -42t-42.5 -17t-41 17t-16 42z" />
<glyph unicode="l" horiz-adv-x="630" d="M143 342v1247q0 25 17.5 42.5t42.5 17.5q24 0 40.5 -17.5t16.5 -42.5v-1247q0 -107 80 -174q83 -64 211 -64q25 0 42 -16t17 -41t-17 -42t-42 -17q-183 0 -295.5 98t-112.5 256z" />
<glyph unicode="m" horiz-adv-x="1835" d="M174 47v1047q0 25 17 42t42 17t41.5 -17t16.5 -42v-41q121 100 293 100q170 0 284 -94q43 -40 66 -74q21 35 63 74q114 94 285 94q173 0 287 -94q123 -107 123 -273v-739q0 -25 -17.5 -42t-42.5 -17t-42 17t-17 42v739q0 121 -86 185.5t-205 64.5q-75 0 -139 -25.5 t-108 -84t-44 -140.5v-739q0 -25 -16 -42t-41 -17t-42.5 17t-17.5 42v739q0 121 -85.5 185.5t-204.5 64.5t-205 -64.5t-86 -185.5v-739q0 -25 -17.5 -42t-42.5 -17t-42 17t-17 42z" />
<glyph unicode="n" horiz-adv-x="1134" d="M174 47v1047q0 25 17 42t42 17t42.5 -17t17.5 -42v-41q106 100 291 100q163 0 282 -98q125 -106 125 -269v-739q0 -25 -17 -42t-42 -17q-24 0 -41 17t-17 42v739q0 82 -43.5 140.5t-107.5 84t-139 25.5q-119 0 -205 -64.5t-86 -185.5v-739q0 -25 -17.5 -42t-42.5 -17 t-42 17t-17 42z" />
<glyph unicode="o" horiz-adv-x="1103" d="M143 342v444q0 167 123 271q116 96 287 96q169 0 285 -96q123 -101 123 -271v-444q0 -158 -112.5 -256t-295.5 -98q-184 0 -297 98t-113 256zM262 342q0 -109 80 -174q80 -64 211 -64q128 0 211 64q80 65 80 174v338q-178 0 -290 92.5t-120 243.5q-77 -25 -124.5 -83.5 t-47.5 -146.5v-444zM553 1034q0 -109 80 -174q78 -63 211 -63q-6 116 -90.5 176.5t-200.5 60.5z" />
<glyph unicode="p" horiz-adv-x="1134" d="M184 -436v1515q0 25 17.5 42.5t42.5 17.5t42 -17.5t17 -42.5v-20q112 94 291 94q183 0 295 -98t112 -256v-445q0 -169 -122 -270q-116 -96 -285 -96q-174 0 -291 100v-524q0 -25 -17 -42.5t-42 -17.5t-42.5 17.5t-17.5 42.5zM303 354q0 -121 86 -185.5t205 -64.5 q75 0 139 25.5t108 84t44 140.5v445q0 109 -80 174q-81 63 -211 63q-133 0 -211 -63q-80 -65 -80 -174v-445z" />
<glyph unicode="q" horiz-adv-x="1134" d="M133 354v445q0 159 113 256.5t297 97.5q176 0 291 -94v20q0 25 17 42.5t40 17.5q25 0 42 -17.5t17 -42.5v-280v-445v-790q0 -25 -17 -42.5t-42 -17.5q-23 0 -40 17.5t-17 42.5v524q-121 -100 -291 -100q-171 0 -287 96q-123 104 -123 270zM252 354q0 -121 86 -185.5 t205 -64.5q75 0 139 25.5t108 84t44 140.5v445q0 109 -80 174q-81 63 -211 63q-133 0 -211 -63q-80 -65 -80 -174v-445z" />
<glyph unicode="r" horiz-adv-x="628" d="M164 47v1047q0 25 17 42t42 17t42.5 -17t17.5 -42v-33q95 92 237 92q25 0 41.5 -16t16.5 -41t-16.5 -42.5t-41.5 -17.5q-109 0 -176 -82q-61 -80 -61 -204v-703q0 -25 -17.5 -42t-42.5 -17t-42 17t-17 42z" />
<glyph unicode="s" horiz-adv-x="983" d="M115 272q-1 6 -1 11q0 19 11 34q14 20 39 25q25 3 44.5 -11t22.5 -40q15 -82 85.5 -132t172.5 -50q52 0 96.5 11t82.5 34.5t60 66.5t22 101q0 156 -252 219q-162 47 -236 100q-115 77 -115 197q0 141 94 228t248 87q122 0 211.5 -56.5t126.5 -156.5q8 -26 -3 -48.5 t-36 -29.5q-24 -8 -45 1.5t-30 33.5q-23 66 -81.5 101.5t-142.5 35.5q-105 0 -165 -52t-60 -144q0 -55 64.5 -98.5t199.5 -80.5q175 -47 258.5 -129t83.5 -208q0 -164 -116 -250q-108 -82 -265 -82q-148 0 -251 77.5t-123 204.5z" />
<glyph unicode="t" horiz-adv-x="753" d="M51 1083q0 25 17.5 41.5t42.5 16.5h155v448q0 25 17.5 42.5t42.5 17.5q24 0 40.5 -17.5t16.5 -42.5v-448h158q25 0 41 -16.5t16 -41.5t-16 -42t-41 -17h-158v-682q0 -107 80 -174q83 -64 211 -64q25 0 42 -16t17 -41t-17 -42t-42 -17q-183 0 -295.5 98t-112.5 256v682 h-155q-25 0 -42.5 17t-17.5 42z" />
<glyph unicode="u" horiz-adv-x="1124" d="M154 344v750q0 25 17 42t42 17t42 -17t17 -42v-750q0 -112 80 -174q82 -66 211 -66q126 0 211 66q80 62 80 174v750q0 25 17 42t40 17q25 0 42.5 -17t17.5 -42v-750q0 -160 -112.5 -258t-295.5 -98q-184 0 -296.5 98t-112.5 258z" />
<glyph unicode="v" horiz-adv-x="978" d="M76 1077q-3 10 -3 19q0 13 6 26q11 22 34 29q10 3 19 3q14 0 26 -6q22 -11 28 -34l303 -885q87 255 302 885q7 23 29 34q13 6 27 6q10 0 19 -3q23 -7 34 -29q6 -13 6 -26q0 -10 -3 -19l-358 -1050q-6 -17 -21.5 -28t-34.5 -11q-43 0 -57 39z" />
<glyph unicode="w" horiz-adv-x="1695" d="M78 1077q-4 11 -4 21q0 12 6 24q10 22 33 29q10 3 19 3q12 0 26 -6q22 -11 30 -34l301 -885q89 253 304 883q6 19 21 30t34 11q20 0 35.5 -11t19.5 -30l303 -883q86 255 303 885q7 23 29 34q13 6 26 6q10 0 19 -3q23 -7 34 -29q6 -13 6 -26q0 -10 -3 -19l-358 -1050 q-6 -17 -21.5 -28t-34.5 -11q-41 0 -55 39l-303 884q-86 -254 -301 -884q-14 -39 -58 -39q-41 0 -55 39z" />
<glyph unicode="x" horiz-adv-x="1085" d="M126 1106q4 24 24 37q15 10 32 10q6 0 12 -1q24 -5 37 -26l312 -454l311 454q14 21 38 26q6 1 12 1q17 0 32 -10q20 -13 24 -37q1 -5 1 -11q0 -18 -11 -34l-336 -494l332 -487q14 -20 10 -44.5t-24 -37.5q-15 -10 -32 -10q-6 0 -12 1q-24 5 -38 25l-307 449l-307 -449 q-14 -20 -38 -25q-6 -1 -12 -1q-17 0 -32 10q-20 13 -24.5 37.5t7.5 44.5l334 487l-338 494q-9 15 -9 31z" />
<glyph unicode="y" horiz-adv-x="1132" d="M143 344v750q0 25 17.5 42t42.5 17t41 -17t16 -42v-750q0 -78 41.5 -133.5t106 -81t143.5 -25.5t143.5 25.5t106 81t41.5 133.5v750q0 25 17 42t40 17q25 0 42 -17t17 -42v-1235q0 -159 -112 -257t-295 -98q-163 0 -272.5 80t-131.5 215q-3 24 11.5 43.5t38.5 22.5 q24 4 43 -9.5t24 -37.5q16 -100 99 -148.5t188 -48.5q125 0 208 60.5t83 177.5v223q-115 -94 -291 -94q-183 0 -295.5 98t-112.5 258z" />
<glyph unicode="z" horiz-adv-x="1058" d="M119 59q0 16 10 33l637 932h-588q-25 0 -42 16t-17 41t17 42.5t42 17.5h699q26 0 42.5 -17.5t16.5 -42.5q0 -15 -10 -32l-637 -932h588q25 0 42 -16.5t17 -41.5t-17 -42t-42 -17h-699q-26 0 -42.5 17t-16.5 42z" />
<glyph unicode="{" horiz-adv-x="980" d="M72 778q0 25 17 42.5t42 17.5q135 0 182 63q47 64 47 225v222q0 183 129 295t340 112q25 0 42.5 -17t17.5 -42t-17.5 -42.5t-42.5 -17.5q-158 0 -251 -75q-99 -77 -99 -213v-222q0 -117 -26.5 -206t-100.5 -142q74 -53 100.5 -142t26.5 -206v-258q0 -137 99 -213 q95 -76 251 -76q25 0 42.5 -17t17.5 -42t-17.5 -42.5t-42.5 -17.5q-211 0 -340 112.5t-129 295.5v258q0 162 -47 223q-46 66 -182 66q-25 0 -42 17t-17 42z" />
<glyph unicode="|" horiz-adv-x="710" d="M297 -55v1757q0 25 17 42t42 17t41.5 -17t16.5 -42v-1757q0 -25 -16.5 -42.5t-41.5 -17.5t-42 17.5t-17 42.5z" />
<glyph unicode="}" horiz-adv-x="980" d="M92 -176q0 25 17.5 42t42.5 17q156 0 251 76q99 76 99 213v258q0 117 26.5 206t100.5 142q-74 53 -100.5 142t-26.5 206v222q0 136 -99 213q-93 75 -251 75q-25 0 -42.5 17.5t-17.5 42.5t17.5 42t42.5 17q211 0 340 -112t129 -295v-222q0 -162 47 -223q45 -65 182 -65 q25 0 42 -17.5t17 -42.5t-17 -42t-42 -17q-135 0 -182 -64t-47 -225v-258q0 -183 -129 -295.5t-340 -112.5q-25 0 -42.5 17.5t-17.5 42.5z" />
<glyph unicode="~" horiz-adv-x="901" d="M124 726q-2 25 15 44q44 55 114.5 75t139.5 -3l156 -54q34 -10 68 -0.5t57 35.5q15 20 39.5 21.5t42.5 -13.5q20 -15 21.5 -39t-13.5 -42q-46 -55 -116.5 -75t-137.5 3l-156 53q-34 11 -68 1t-57 -38q-15 -19 -39.5 -21t-44.5 13q-19 15 -21 40z" />
<glyph unicode="&#xa1;" horiz-adv-x="526" d="M205 47v1161q0 25 16.5 42.5t40.5 17.5q25 0 42.5 -17.5t17.5 -42.5v-1161q0 -25 -17.5 -42t-42.5 -17t-41 17t-16 42zM205 1475v114q0 25 16.5 42.5t40.5 17.5q25 0 42.5 -17.5t17.5 -42.5v-114q0 -25 -17.5 -42.5t-42.5 -17.5q-24 0 -40.5 17.5t-16.5 42.5z" />
<glyph unicode="&#xa2;" horiz-adv-x="1087" d="M143 342v446q0 170 123 271q93 78 228 90v194q0 25 17 42.5t42 17.5t42 -17.5t17 -42.5v-194q132 -15 223.5 -93.5t114.5 -197.5q4 -25 -10 -44.5t-37 -22.5q-25 -5 -44.5 8.5t-22.5 38.5q-17 91 -95 144.5t-192 53.5q-75 0 -138.5 -25t-107 -83t-43.5 -140v-446 q0 -109 80 -174q84 -64 209 -64q67 0 125.5 18.5t104.5 64.5t57 114q5 24 24 38t43 11q24 -5 38 -24t11 -43q-20 -122 -111 -200t-229 -91v-176q0 -25 -17 -42.5t-42 -17.5t-42 17.5t-17 42.5v174q-159 15 -255 110.5t-96 241.5z" />
<glyph unicode="&#xa3;" horiz-adv-x="1398" d="M123 59q0 18 10.5 33t26.5 21q7 4 30 6q117 3 173.5 71t56.5 164v119v203h-238q-23 0 -40 17t-17 42t17 42.5t40 17.5h238v462q0 169 100 275q60 65 129.5 91t161.5 26q154 0 257 -84.5t128 -229.5v-10q0 -22 -13.5 -38t-35.5 -19q-23 -4 -43 10t-25 37q-17 101 -88 159 t-180 58q-73 0 -128 -24t-85.5 -64.5t-45.5 -87t-15 -99.5v-462h417q25 0 42.5 -17.5t17.5 -42.5t-17.5 -42t-42.5 -17h-417v-203v-119q0 -139 -80 -235h811q25 0 42 -17.5t17 -42.5t-17 -42t-42 -17h-1086q-25 0 -42 17t-17 42z" />
<glyph unicode="&#xa5;" horiz-adv-x="1144" d="M104 553q0 23 17.5 40t42.5 17h350v185h-350q-25 0 -42.5 17t-17.5 42t17.5 42t42.5 17h303l-356 648q-11 22 -4 45.5t28 33.5q22 12 45 6t35 -28l358 -653l359 653q10 22 34 28t46 -6q30 -17 30 -51q0 -15 -8 -28l-354 -648h303q25 0 42 -17t17 -42t-17 -42t-42 -17 h-350v-185h350q25 0 42 -17t17 -40q0 -25 -17 -42t-42 -17h-350v-447q0 -25 -17.5 -42t-42.5 -17t-42 17t-17 42v447h-350q-25 0 -42.5 17t-17.5 42z" />
<glyph unicode="&#xa6;" horiz-adv-x="567" d="M225 47v238q0 23 17.5 40t42.5 17q23 0 40 -17t17 -40v-238q0 -25 -17 -42t-40 -17q-25 0 -42.5 17t-17.5 42zM225 858v236q0 25 17.5 42t42.5 17q23 0 40 -17t17 -42v-236q0 -25 -17 -42t-40 -17q-25 0 -42.5 17t-17.5 42z" />
<glyph unicode="&#xa7;" horiz-adv-x="1073" d="M154 729q0 61 14.5 112t43.5 91.5t58 69t72 61.5q-145 111 -145 266q0 141 100 230.5t258 89.5q121 0 212 -57.5t126 -155.5q9 -23 -1.5 -44.5t-33.5 -29.5q-23 -9 -45 1.5t-31 33.5q-22 62 -83 97.5t-144 35.5q-100 0 -171 -51.5t-71 -149.5q0 -36 14 -68t34 -56.5 t58 -52t69.5 -46t84.5 -47.5q186 -98 266.5 -182.5t80.5 -210.5q0 -62 -14.5 -113t-44 -92t-58.5 -69.5t-72 -61.5q146 -112 146 -267q0 -141 -100.5 -230t-258.5 -89q-121 0 -212 57.5t-126 155.5q-9 23 1.5 45t33.5 31q23 8 45 -3t31 -34q22 -62 83 -97.5t144 -35.5 q100 0 171 51t71 149q0 44 -18.5 82t-59 71.5t-79 58t-103.5 59.5q-186 98 -266 182.5t-80 212.5zM272 729q0 -83 59 -143.5t222 -147.5q5 -3 74 -41q49 37 73 58.5t51.5 54.5t38.5 70.5t11 85.5q0 81 -58.5 141.5t-222.5 148.5q-30 15 -74 39q-49 -37 -73.5 -58.5 t-51.5 -54t-38 -69t-11 -84.5z" />
<glyph unicode="&#xa8;" horiz-adv-x="688" d="M102 1466v113q0 25 17.5 42t42.5 17q23 0 40 -17t17 -42v-113q0 -25 -17 -42t-40 -17q-25 0 -42.5 17t-17.5 42zM469 1464v115q0 23 17 40t42 17q23 0 40.5 -17t17.5 -40v-115q0 -24 -17 -41.5t-41 -17.5q-25 0 -42 17t-17 42z" />
<glyph unicode="&#xa9;" horiz-adv-x="1847" d="M92 819q0 167 67 320.5t179 265t265.5 178t320.5 66.5t320.5 -66.5t265.5 -178t178.5 -265t66.5 -320.5t-66.5 -320.5t-178.5 -265.5t-265.5 -178.5t-320.5 -66.5t-320.5 66.5t-265.5 178.5t-179 265.5t-67 320.5zM211 819q0 -190 97 -354.5t261.5 -261.5t354.5 -97 t354.5 97t261 261.5t96.5 354.5t-96.5 354t-261 260.5t-354.5 96.5t-354.5 -96.5t-261.5 -260.5t-97 -354zM627 584v495q0 123 92 197q81 63 205 63q123 0 204 -63q93 -75 93 -197q0 -25 -16.5 -42t-41.5 -17t-42 17t-17 42q0 72 -53.5 108t-126.5 36t-127 -36t-54 -108 v-495q0 -73 53.5 -108.5t127.5 -35.5t127 35.5t53 108.5q0 25 17 42t42 17t41.5 -17t16.5 -42q0 -125 -93 -197q-80 -65 -204 -65q-125 0 -205 65q-92 71 -92 197z" />
<glyph unicode="&#xaa;" horiz-adv-x="776" d="M102 887q0 46 16 87.5t50.5 78.5t99.5 58.5t154 21.5h53v73q0 76 -38.5 110t-100.5 34q-18 0 -37 -1.5t-32.5 -3t-32 -5.5t-28.5 -6t-28.5 -6.5t-25.5 -6.5l-15 76q130 65 248 65q227 0 227 -229v-539h-110l-15 92q-102 -102 -211 -102q-75 0 -124.5 53t-49.5 150z M111 432v119h514v-119h-514zM242 920q0 -47 21.5 -77t58.5 -30q72 0 161 66v155h-84q-157 0 -157 -114z" />
<glyph unicode="&#xab;" horiz-adv-x="1118" d="M124 696q0 24 17 41l400 400q17 17 41 17t41 -17q19 -19 19 -42t-19 -42l-357 -357q69 -68 357 -356q19 -19 19 -42t-19 -42q-17 -17 -41 -17t-41 17l-400 399q-17 17 -17 41zM479 696q0 24 17 41l399 400q17 17 41 17t41 -17q19 -19 19 -42t-19 -42l-356 -357l356 -356 q19 -19 19 -42t-19 -42q-17 -17 -41 -17t-41 17l-399 399q-17 17 -17 41z" />
<glyph unicode="&#xac;" horiz-adv-x="1030" d="M41 854q0 23 17 40t42 17h832q24 0 40.5 -16.5t16.5 -40.5v-254q0 -25 -16 -42t-41 -17t-42.5 17t-17.5 42v195h-772q-25 0 -42 17t-17 42z" />
<glyph unicode="&#xad;" horiz-adv-x="684" d="M113 819q0 25 17 42.5t42 17.5h340q25 0 42 -17.5t17 -42.5t-17 -42t-42 -17h-340q-25 0 -42 17t-17 42z" />
<glyph unicode="&#xae;" horiz-adv-x="1826" d="M92 819q0 167 67 320.5t179 265t265.5 178t320.5 66.5t320.5 -66.5t265.5 -178t178.5 -265t66.5 -320.5t-66.5 -320.5t-178.5 -265.5t-265.5 -178.5t-320.5 -66.5t-320.5 66.5t-265.5 178.5t-179 265.5t-67 320.5zM211 819q0 -190 97 -354.5t261.5 -261.5t354.5 -97 t354.5 97t261 261.5t96.5 354.5t-96.5 354t-261 260.5t-354.5 96.5t-354.5 -96.5t-261.5 -260.5t-97 -354zM676 379v887q0 25 17 42t42 17h240q120 0 194 -90q62 -80 62 -201q0 -123 -62 -203q-45 -55 -108 -75l166 -353q9 -22 1 -44.5t-30 -32.5q-23 -10 -46 -2t-32 30 l-182 387h-143v-362q0 -25 -17.5 -42.5t-42.5 -17.5t-42 17.5t-17 42.5zM795 860h180q71 0 105 51t34 123q0 71 -34 121.5t-105 50.5h-180v-346z" />
<glyph unicode="&#xaf;" horiz-adv-x="935" d="M92 1577q0 25 17.5 42t42.5 17h632q25 0 42.5 -17t17.5 -42t-17.5 -42t-42.5 -17h-632q-25 0 -42.5 17t-17.5 42z" />
<glyph unicode="&#xb0;" horiz-adv-x="772" d="M72 1335q0 129 92.5 221.5t222.5 92.5q129 0 221 -92.5t92 -221.5q0 -130 -92 -222.5t-221 -92.5q-131 0 -223 92t-92 223zM176 1335q0 -88 61.5 -149.5t149.5 -61.5t149.5 61.5t61.5 149.5q0 87 -62 149t-149 62t-149 -62t-62 -149z" />
<glyph unicode="&#xb1;" horiz-adv-x="1110" d="M113 59q0 25 17 42.5t42 17.5h766q25 0 42 -17.5t17 -42.5t-17 -42t-42 -17h-766q-25 0 -42 17t-17 42zM113 711q0 25 17 42t42 17h324v324q0 25 17 42t42 17t41 -17t16 -42v-324h326q25 0 42 -17t17 -42t-17 -42.5t-42 -17.5h-326v-323q0 -25 -16.5 -42.5t-40.5 -17.5 q-25 0 -42 17.5t-17 42.5v323h-324q-25 0 -42 17.5t-17 42.5z" />
<glyph unicode="&#xb4;" horiz-adv-x="684" d="M76 1434q-8 23 4 45t35 28l420 129q23 7 44 -4.5t29 -34.5q6 -24 -5 -44.5t-34 -26.5l-419 -131q-24 -6 -45.5 5t-28.5 34z" />
<glyph unicode="&#xb6;" horiz-adv-x="978" d="M113 1391q0 101 72 173t175 72h355q25 0 42 -17t17 -42v-1632q0 -25 -17 -42.5t-42 -17.5t-42.5 17.5t-17.5 42.5v1573h-112v-1573q0 -25 -16.5 -42.5t-41.5 -17.5t-42 17.5t-17 42.5v1196h-66q-102 0 -174.5 73.5t-72.5 176.5z" />
<glyph unicode="&#xb7;" horiz-adv-x="643" d="M154 985q0 69 49.5 118.5t118.5 49.5t118 -49.5t49 -118.5t-49 -118.5t-118 -49.5t-118.5 49.5t-49.5 118.5z" />
<glyph unicode="&#xb8;" horiz-adv-x="522" d="M82 -225q0 22 14.5 36.5t36.5 14.5t36.5 -14.5t14.5 -36.5q0 -31 22.5 -53.5t53.5 -22.5q32 0 55 22.5t23 53.5q0 32 -23 55t-55 23q-22 0 -36.5 14.5t-14.5 36.5v188q0 22 14.5 37.5t36.5 15.5t37.5 -15.5t15.5 -37.5v-145q56 -18 91.5 -64.5t35.5 -107.5 q0 -74 -52.5 -127.5t-127.5 -53.5q-73 0 -125.5 53.5t-52.5 127.5z" />
<glyph unicode="&#xba;" horiz-adv-x="751" d="M72 1063q0 195 82.5 298t222.5 103q136 0 211.5 -93.5t75.5 -276.5q0 -202 -82 -308t-224 -106q-141 0 -213.5 92t-72.5 291zM113 432v119h514v-119h-514zM209 1081q0 -149 45.5 -213.5t116.5 -64.5q65 0 110 63.5t45 200.5q0 147 -44 211.5t-111 64.5q-70 0 -116 -63 t-46 -199z" />
<glyph unicode="&#xbb;" horiz-adv-x="1118" d="M122 298q0 23 19 42l357 356l-357 357q-19 19 -19 42t19 42q17 17 41 17t41 -17l400 -400q17 -17 17 -41t-17 -41l-400 -399q-17 -17 -41 -17t-41 17q-19 19 -19 42zM477 298q0 23 19 42l356 356q-68 69 -356 357q-19 19 -19 42t19 42q17 17 41 17t41 -17l399 -400 q17 -17 17 -41t-17 -41l-399 -399q-17 -17 -41 -17t-41 17q-19 19 -19 42z" />
<glyph unicode="&#xbf;" horiz-adv-x="1124" d="M123 395q0 222 225 371q120 85 152 154.5t32 236.5v51q0 25 16.5 41.5t41.5 18.5q25 0 42 -17.5t17 -42.5l2 -49q0 -184 -51 -292t-186 -199q-42 -28 -68.5 -50t-52.5 -56t-38.5 -79.5t-12.5 -103.5q0 -121 98 -197q95 -76 254 -76q156 0 254 76q96 78 96 213 q0 25 17.5 42.5t42.5 17.5t42 -17.5t17 -42.5q0 -183 -129 -295t-340 -112q-212 0 -341.5 112t-129.5 295zM532 1475v114q0 25 17.5 42.5t42.5 17.5q24 0 40.5 -17.5t16.5 -42.5v-114q0 -25 -16.5 -42.5t-40.5 -17.5q-25 0 -42.5 17.5t-17.5 42.5z" />
<glyph unicode="&#xc0;" d="M76 63l456 1547q4 18 20.5 29.5t35.5 11.5q44 0 57 -41l457 -1549q6 -23 -6 -44t-35 -27q-23 -7 -44.5 4.5t-27.5 34.5l-123 413h-557q-72 -243 -121 -413q-6 -23 -27 -34t-46 -5q-23 7 -34 28.5t-5 44.5zM340 1939q7 23 28.5 34t45.5 5l420 -131q23 -6 33.5 -26.5 t4.5 -44.5q-8 -23 -29 -34.5t-44 -4.5l-420 129q-23 6 -35 28t-4 45zM344 561h487q-33 113 -89 301t-95 321t-59 201q-103 -352 -244 -823z" />
<glyph unicode="&#xc1;" d="M76 63l456 1547q4 18 20.5 29.5t35.5 11.5q44 0 57 -41l457 -1549q6 -23 -6 -44t-35 -27q-23 -7 -44.5 4.5t-27.5 34.5l-123 413h-557q-72 -243 -121 -413q-6 -23 -27 -34t-46 -5q-23 7 -34 28.5t-5 44.5zM301 1776q-8 23 4 45t35 28l420 129q23 7 44.5 -4.5t29.5 -34.5 q6 -24 -5 -44.5t-34 -26.5l-420 -131q-24 -6 -45.5 5t-28.5 34zM344 561h487q-33 113 -89 301t-95 321t-59 201q-103 -352 -244 -823z" />
<glyph unicode="&#xc2;" d="M76 63l456 1547q4 18 20.5 29.5t35.5 11.5q44 0 57 -41l457 -1549q6 -23 -6 -44t-35 -27q-23 -7 -44.5 4.5t-27.5 34.5l-123 413h-557q-72 -243 -121 -413q-6 -23 -27 -34t-46 -5q-23 7 -34 28.5t-5 44.5zM274 1791.5q5 24.5 25 37.5l258 168q13 11 32 11t32 -11 l258 -168q20 -13 25 -37.5t-9 -44.5q-12 -20 -36 -25t-44 9l-227 147q-50 -32 -226 -147q-20 -14 -43.5 -9t-35.5 25q-14 20 -9 44.5zM344 561h487q-33 113 -89 301t-95 321t-59 201q-103 -352 -244 -823z" />
<glyph unicode="&#xc3;" d="M76 63l456 1547q4 18 20.5 29.5t35.5 11.5q44 0 57 -41l457 -1549q6 -23 -6 -44t-35 -27q-23 -7 -44.5 4.5t-27.5 34.5l-123 413h-557q-72 -243 -121 -413q-6 -23 -27 -34t-46 -5q-23 7 -34 28.5t-5 44.5zM284 1785q-2 25 15 44q44 55 114.5 75t139.5 -3l156 -54 q34 -10 68 -0.5t57 35.5q15 20 39 21.5t42 -13.5q20 -15 22 -39.5t-13 -42.5q-46 -55 -116.5 -74.5t-137.5 3.5l-156 53q-34 11 -68 1t-57 -38q-15 -19 -39.5 -21t-44.5 13q-19 15 -21 40zM344 561h487q-33 113 -89 301t-95 321t-59 201q-103 -352 -244 -823z" />
<glyph unicode="&#xc4;" d="M76 63l456 1547q4 18 20.5 29.5t35.5 11.5q44 0 57 -41l457 -1549q6 -23 -6 -44t-35 -27q-23 -7 -44.5 4.5t-27.5 34.5l-123 413h-557q-72 -243 -121 -413q-6 -23 -27 -34t-46 -5q-23 7 -34 28.5t-5 44.5zM340 1810v113q0 25 17 42t42 17q23 0 40.5 -17t17.5 -42v-113 q0 -24 -17.5 -41.5t-40.5 -17.5q-25 0 -42 17t-17 42zM344 561h487q-33 113 -89 301t-95 321t-59 201q-103 -352 -244 -823zM707 1810v115q0 23 17 40t42 17q23 0 40 -17t17 -40v-115q0 -25 -17 -42t-40 -17q-25 0 -42 17t-17 42z" />
<glyph unicode="&#xc5;" d="M76 63l456 1547q4 18 20.5 29.5t35.5 11.5q44 0 57 -41l457 -1549q6 -23 -6 -44t-35 -27q-23 -7 -44.5 4.5t-27.5 34.5l-123 413h-557q-72 -243 -121 -413q-6 -23 -27 -34t-46 -5q-23 7 -34 28.5t-5 44.5zM344 561h487q-33 113 -89 301t-95 321t-59 201 q-103 -352 -244 -823zM385 1905q0 85 59 144.5t144 59.5t145 -59.5t60 -144.5q0 -83 -60 -143t-145 -60q-84 0 -143.5 59.5t-59.5 143.5zM477 1905q0 -44 33.5 -76.5t77.5 -32.5q46 0 78 32t32 77q0 46 -32 78t-78 32q-45 0 -78 -32.5t-33 -77.5z" />
<glyph unicode="&#xc6;" horiz-adv-x="1943" d="M78 68l594 1531q13 37 55 37h1038q25 0 42.5 -17t17.5 -42t-17.5 -42t-42.5 -17h-667v-578h614q25 0 42.5 -17t17.5 -42t-17.5 -41.5t-42.5 -16.5h-614v-704h684q25 0 42 -17.5t17 -42.5t-17 -42t-42 -17h-744q-25 0 -41 17t-16 42v428h-12h-600l-181 -462 q-9 -22 -31.5 -32t-45.5 -1q-22 9 -32 31t-1 45zM414 604h555h12v914h-215z" />
<glyph unicode="&#xc7;" horiz-adv-x="1216" d="M174 1243q0 182 129.5 294t339.5 112t339.5 -112t129.5 -294q0 -25 -17 -42t-42 -17q-23 0 -40.5 17t-17.5 42q0 135 -98 211q-95 76 -254 76q-156 0 -254 -76q-96 -78 -96 -211l2 -848q0 -135 96 -213q98 -76 254 -76q159 0 254 76q98 76 98 213q0 23 17.5 40.5 t40.5 17.5q25 0 42 -17.5t17 -40.5q0 -173 -117 -284t-311 -123l-2 -74q56 -18 91.5 -64.5t35.5 -107.5q0 -74 -52.5 -127t-127.5 -53q-73 0 -125.5 53t-52.5 127q0 22 14.5 36.5t36.5 14.5t36.5 -14.5t14.5 -36.5q0 -31 22.5 -53.5t53.5 -22.5q32 0 55 22.5t23 53.5 q0 32 -23 55t-55 23q-22 0 -36.5 14.5t-14.5 36.5l2 119q-185 17 -295.5 127t-110.5 278z" />
<glyph unicode="&#xc8;" horiz-adv-x="1167" d="M205 59v1518q0 25 17 42t42 17h725q25 0 42.5 -17t17.5 -42t-17.5 -42t-42.5 -17h-665v-578h612q25 0 42 -17t17 -42t-17 -41.5t-42 -16.5h-612v-704h682q25 0 42 -17.5t17 -42.5t-17 -42t-42 -17h-742q-25 0 -42 17t-17 42zM367 1944q7 23 28 33.5t45 4.5l420 -131 q23 -6 34 -26.5t5 -44.5q-8 -23 -29.5 -34.5t-44.5 -4.5l-419 129q-23 6 -35 28.5t-4 45.5z" />
<glyph unicode="&#xc9;" horiz-adv-x="1167" d="M205 59v1518q0 25 17 42t42 17h725q25 0 42.5 -17t17.5 -42t-17.5 -42t-42.5 -17h-665v-578h612q25 0 42 -17t17 -42t-17 -41.5t-42 -16.5h-612v-704h682q25 0 42 -17.5t17 -42.5t-17 -42t-42 -17h-742q-25 0 -42 17t-17 42zM367 1772q-8 23 4 45t35 28l419 129 q23 7 44.5 -4.5t29.5 -34.5q6 -24 -5 -44.5t-34 -26.5l-420 -131q-23 -6 -44.5 5t-28.5 34z" />
<glyph unicode="&#xca;" horiz-adv-x="1169" d="M205 59v1518q0 25 17 42t42 17h725q25 0 42.5 -17t17.5 -42t-17.5 -42t-42.5 -17h-665v-578h612q25 0 42 -17t17 -42t-17 -41.5t-42 -16.5h-612v-704h682q25 0 42 -17.5t17 -42.5t-17 -42t-42 -17h-742q-25 0 -42 17t-17 42zM278 1791.5q5 24.5 25 37.5l258 168 q13 11 32 11t32 -11l258 -168q20 -13 25 -37.5t-9 -44.5q-12 -20 -36 -25t-44 9l-227 147q-49 -32 -225 -147q-20 -14 -44 -9t-36 25q-14 20 -9 44.5z" />
<glyph unicode="&#xcb;" horiz-adv-x="1167" d="M205 59v1518q0 25 17 42t42 17h725q25 0 42.5 -17t17.5 -42t-17.5 -42t-42.5 -17h-665v-578h612q25 0 42 -17t17 -42t-17 -41.5t-42 -16.5h-612v-704h682q25 0 42 -17.5t17 -42.5t-17 -42t-42 -17h-742q-25 0 -42 17t-17 42zM387 1812v113q0 25 17 42.5t42 17.5 q23 0 40.5 -17.5t17.5 -42.5v-113q0 -24 -17 -41.5t-41 -17.5q-25 0 -42 17t-17 42zM754 1812v115q0 23 17 40.5t42 17.5q23 0 40 -17.5t17 -40.5v-115q0 -25 -17 -42t-40 -17q-25 0 -42 17t-17 42z" />
<glyph unicode="&#xcc;" horiz-adv-x="581" d="M25 1944q7 23 28 33.5t45 4.5l420 -131q23 -6 34 -26.5t5 -44.5q-8 -23 -29.5 -34.5t-44.5 -4.5l-420 129q-23 6 -34.5 28.5t-3.5 45.5zM231 47v1542q0 25 17.5 42.5t42.5 17.5t42 -17.5t17 -42.5v-1542q0 -25 -17 -42t-42 -17t-42.5 17t-17.5 42z" />
<glyph unicode="&#xcd;" horiz-adv-x="581" d="M25 1776q-8 23 3.5 45t34.5 28l420 129q23 7 44.5 -4.5t29.5 -34.5q6 -24 -5 -44.5t-34 -26.5l-420 -131q-23 -6 -44.5 5t-28.5 34zM231 47v1542q0 25 17.5 42.5t42.5 17.5t42 -17.5t17 -42.5v-1542q0 -25 -17 -42t-42 -17t-42.5 17t-17.5 42z" />
<glyph unicode="&#xce;" horiz-adv-x="673" d="M22 1791.5q5 24.5 25 37.5l258 168q13 11 32 11t32 -11l258 -168q20 -13 25 -37.5t-9 -44.5q-12 -20 -36 -25t-44 9l-227 147q-49 -32 -225 -147q-20 -14 -44 -9t-36 25q-14 20 -9 44.5zM274 47v1542q0 25 17.5 42.5t42.5 17.5t42 -17.5t17 -42.5v-1542q0 -25 -17 -42 t-42 -17t-42.5 17t-17.5 42z" />
<glyph unicode="&#xcf;" horiz-adv-x="524" d="M20 1810v113q0 25 17.5 42t42.5 17q23 0 40 -17t17 -42v-113q0 -25 -17 -42t-40 -17q-25 0 -42.5 17t-17.5 42zM205 47v1542q0 25 17 42.5t42 17.5t42.5 -17.5t17.5 -42.5v-1542q0 -25 -17.5 -42t-42.5 -17t-42 17t-17 42zM387 1810v115q0 23 17 40t42 17q23 0 40.5 -17 t17.5 -40v-115q0 -24 -17 -41.5t-41 -17.5q-25 0 -42 17t-17 42z" />
<glyph unicode="&#xd1;" horiz-adv-x="1361" d="M205 47v1542q0 21 12.5 37.5t32.5 20.5q19 5 37.5 -3.5t27.5 -25.5l723 -1337v1308q0 25 17.5 42.5t42.5 17.5t42 -17.5t17 -42.5v-1542q0 -20 -12.5 -36.5t-32.5 -20.5q-45 -10 -65 28l-723 1338v-1309q0 -25 -17.5 -42t-42.5 -17t-42 17t-17 42zM358 1785q-2 25 15 44 q44 55 114.5 75t139.5 -3l155 -54q34 -10 68 -0.5t57 35.5q15 20 39.5 21.5t42.5 -13.5q20 -15 21.5 -39.5t-13.5 -42.5q-46 -55 -116.5 -74.5t-137.5 3.5l-155 53q-34 11 -68 1t-57 -38q-15 -19 -39.5 -21t-44.5 13q-19 15 -21 40z" />
<glyph unicode="&#xd2;" horiz-adv-x="1245" d="M154 395v848q0 182 129.5 294t339.5 112t339.5 -112t129.5 -294v-848q0 -183 -129 -295t-340 -112t-340 112t-129 295zM272 395q0 -134 97 -213q98 -76 254 -76q159 0 254 76q98 76 98 213v748q-201 0 -329 103t-140 272q-78 -18 -137 -64q-97 -79 -97 -211v-848z M371 1944q7 23 28 33.5t45 4.5l420 -131q23 -6 34 -26.5t5 -44.5q-8 -23 -29.5 -34.5t-44.5 -4.5l-419 129q-23 6 -35 28.5t-4 45.5zM623 1530q6 -122 98 -193q93 -75 252 -75q-6 120 -96 192q-95 76 -254 76z" />
<glyph unicode="&#xd3;" horiz-adv-x="1245" d="M154 395v848q0 182 129.5 294t339.5 112t339.5 -112t129.5 -294v-848q0 -183 -129 -295t-340 -112t-340 112t-129 295zM272 395q0 -134 97 -213q98 -76 254 -76q159 0 254 76q98 76 98 213v748q-201 0 -329 103t-140 272q-78 -18 -137 -64q-97 -79 -97 -211v-848z M322 1776q-8 23 3.5 45t34.5 28l420 129q23 7 44.5 -4.5t29.5 -34.5q6 -24 -5 -44.5t-34 -26.5l-420 -131q-23 -6 -44.5 5t-28.5 34zM623 1530q6 -122 98 -193q93 -75 252 -75q-6 120 -96 192q-95 76 -254 76z" />
<glyph unicode="&#xd4;" horiz-adv-x="1245" d="M154 395v848q0 182 129.5 294t339.5 112t339.5 -112t129.5 -294v-848q0 -183 -129 -295t-340 -112t-340 112t-129 295zM272 395q0 -134 97 -213q98 -76 254 -76q159 0 254 76q98 76 98 213v748q-201 0 -329 103t-140 272q-78 -18 -137 -64q-97 -79 -97 -211v-848z M311 1791q5 24 25 38l258 168q14 11 32 11t31 -11l258 -168q20 -14 25 -38t-8 -44q-12 -20 -36 -25t-44 9l-227 147q-50 -32 -226 -147q-20 -14 -44 -9t-36 25q-13 20 -8 44zM623 1530q6 -122 98 -193q93 -75 252 -75q-6 120 -96 192q-95 76 -254 76z" />
<glyph unicode="&#xd5;" horiz-adv-x="1245" d="M154 395v848q0 182 129.5 294t339.5 112t339.5 -112t129.5 -294v-848q0 -183 -129 -295t-340 -112t-340 112t-129 295zM272 395q0 -134 97 -213q98 -76 254 -76q159 0 254 76q98 76 98 213v748q-201 0 -329 103t-140 272q-78 -18 -137 -64q-97 -79 -97 -211v-848z M292 1785q-2 25 15 44q44 55 114.5 75t139.5 -3l156 -54q34 -10 68 -0.5t57 35.5q15 20 39.5 21.5t42.5 -13.5q20 -15 21.5 -39.5t-13.5 -42.5q-46 -55 -116.5 -74.5t-137.5 3.5l-156 53q-34 11 -68 1t-57 -38q-15 -19 -39.5 -21t-44.5 13q-19 15 -21 40zM623 1530 q6 -122 98 -193q93 -75 252 -75q-6 120 -96 192q-95 76 -254 76z" />
<glyph unicode="&#xd6;" horiz-adv-x="1245" d="M154 395v848q0 182 129.5 294t339.5 112t339.5 -112t129.5 -294v-848q0 -183 -129 -295t-340 -112t-340 112t-129 295zM272 395q0 -134 97 -213q98 -76 254 -76q159 0 254 76q98 76 98 213v748q-201 0 -329 103t-140 272q-78 -18 -137 -64q-97 -79 -97 -211v-848z M379 1812v113q0 25 17 42.5t42 17.5q23 0 40.5 -17.5t17.5 -42.5v-113q0 -24 -17 -41.5t-41 -17.5q-25 0 -42 17t-17 42zM623 1530q6 -122 98 -193q93 -75 252 -75q-6 120 -96 192q-95 76 -254 76zM745 1810v115q0 23 17.5 40t42.5 17q23 0 40 -17t17 -40v-115 q0 -25 -17 -42t-40 -17q-25 0 -42.5 17t-17.5 42z" />
<glyph unicode="&#xd7;" horiz-adv-x="950" d="M145 436q0 24 17 41l229 230l-229 229q-17 17 -17 41t17 43q19 17 43 17t41 -17l229 -229l230 229q17 17 40.5 17t42.5 -17q17 -19 16 -42t-18 -42l-229 -227l231 -232q17 -17 17 -41t-17 -43q-19 -17 -42.5 -17t-40.5 17l-232 232l-227 -230q-19 -17 -42 -18t-42 16 q-17 19 -17 43z" />
<glyph unicode="&#xd8;" horiz-adv-x="1277" d="M137.5 -67q-7.5 24 3.5 49l97 188q-66 97 -66 225v848q0 182 129.5 294t339.5 112q179 0 307 -88l82 161q12 21 36.5 28.5t45.5 -1.5q21 -12 28.5 -35.5t-3.5 -48.5l-99 -192q72 -101 72 -230v-848q0 -183 -129 -295t-340 -112q-187 0 -311 88l-76 -152 q-12 -23 -39.5 -30t-48.5 6q-21 9 -28.5 33zM291 395q0 -135 96 -213q98 -76 254 -76q159 0 254 76q98 76 98 213v748q-201 0 -329 103t-140 272q-78 -18 -137 -64q-96 -78 -96 -211v-848zM641 1530q6 -122 98 -193q93 -75 252 -75q-6 120 -96 192q-95 76 -254 76z" />
<glyph unicode="&#xd9;" horiz-adv-x="1347" d="M205 395v1194q0 25 17 42.5t42 17.5t42.5 -17.5t17.5 -42.5v-1194q0 -135 96 -213q98 -76 254 -76q159 0 254 76q98 76 98 213v1194q0 25 17 42.5t40 17.5q25 0 42.5 -17.5t17.5 -42.5v-1194q0 -183 -129 -295t-340 -112t-340 112t-129 295zM403 1944q7 23 28.5 33.5 t45.5 4.5l420 -131q23 -6 34 -26.5t5 -44.5q-8 -23 -29.5 -34.5t-44.5 -4.5l-420 129q-23 6 -35 28.5t-4 45.5z" />
<glyph unicode="&#xda;" horiz-adv-x="1347" d="M205 395v1194q0 25 17 42.5t42 17.5t42.5 -17.5t17.5 -42.5v-1194q0 -135 96 -213q98 -76 254 -76q159 0 254 76q98 76 98 213v1194q0 25 17 42.5t40 17.5q25 0 42.5 -17.5t17.5 -42.5v-1194q0 -183 -129 -295t-340 -112t-340 112t-129 295zM403 1776q-8 23 4 45t35 28 l420 129q23 7 44.5 -4.5t29.5 -34.5q6 -24 -5 -44.5t-34 -26.5l-420 -131q-24 -6 -45.5 5t-28.5 34z" />
<glyph unicode="&#xdb;" horiz-adv-x="1347" d="M205 395v1194q0 25 17 42.5t42 17.5t42.5 -17.5t17.5 -42.5v-1194q0 -135 96 -213q98 -76 254 -76q159 0 254 76q98 76 98 213v1194q0 25 17 42.5t40 17.5q25 0 42.5 -17.5t17.5 -42.5v-1194q0 -183 -129 -295t-340 -112t-340 112t-129 295zM362 1791.5q5 24.5 25 37.5 l258 168q14 11 32 11t32 -11l258 -168q20 -13 25 -37.5t-9 -44.5q-12 -20 -36 -25t-44 9l-227 147q-49 -32 -225 -147q-20 -14 -44 -9t-36 25q-14 20 -9 44.5z" />
<glyph unicode="&#xdc;" horiz-adv-x="1347" d="M205 395v1194q0 25 17 42.5t42 17.5t42.5 -17.5t17.5 -42.5v-1194q0 -135 96 -213q98 -76 254 -76q159 0 254 76q98 76 98 213v1194q0 25 17 42.5t40 17.5q25 0 42.5 -17.5t17.5 -42.5v-1194q0 -183 -129 -295t-340 -112t-340 112t-129 295zM446 1812v113q0 25 17.5 42.5 t42.5 17.5q23 0 40 -17.5t17 -42.5v-113q0 -25 -17 -42t-40 -17q-25 0 -42.5 17t-17.5 42zM813 1810v115q0 23 17 40t42 17q23 0 40.5 -17t17.5 -40v-115q0 -24 -17 -41.5t-41 -17.5q-25 0 -42 17t-17 42z" />
<glyph unicode="&#xdd;" horiz-adv-x="1193" d="M174 856v733q0 25 17 42.5t42 17.5t41.5 -17.5t16.5 -42.5v-733q0 -112 80 -174q80 -64 211 -64t211 64q79 61 79 174v733q0 25 17.5 42.5t40.5 17.5q25 0 42 -17.5t17 -42.5v-1247q0 -158 -112 -256t-295 -98q-162 0 -272 80t-132 213q-3 25 11 44.5t38 22.5 q25 4 44 -10t24 -39q11 -68 58 -113.5t105 -63.5t124 -18q131 0 211 64q79 64 79 174v252q-115 -94 -290 -94q-183 0 -295.5 98t-112.5 258zM317 1778q-8 23 4 45t35 28l420 129q23 7 44.5 -4t29.5 -34q6 -24 -5 -45t-34 -27l-420 -131q-24 -6 -45.5 5t-28.5 34z" />
<glyph unicode="&#xdf;" horiz-adv-x="1173" d="M164 -55v1296q0 178 106 287q115 121 305 121q191 0 306 -121q106 -109 106 -287q0 -87 -27.5 -165.5t-78.5 -131.5q-23 -30 -66 -57q58 -27 115 -84q121 -130 121 -332q0 -99 -31.5 -190.5t-89.5 -153.5q-133 -139 -355 -139q-25 0 -42 17t-17 42t17 42t42 17 q167 0 263 99t96 266q0 153 -93.5 252.5t-244.5 99.5h-21q-24 0 -41.5 16.5t-17.5 39.5q0 27 16.5 45t42.5 18h19q70 0 117 20.5t86 61.5q35 38 54 96t19 121q0 133 -80 211t-215 78t-213.5 -77.5t-78.5 -211.5v-1296q0 -25 -17.5 -42.5t-42.5 -17.5t-42 17.5t-17 42.5z" />
<glyph unicode="&#xe0;" horiz-adv-x="1181" d="M143 342v444q0 167 123 271q116 96 285 96t285 -96q122 -103 122 -271v-499q0 -75 35.5 -128t110.5 -53q25 0 41 -17t16 -42t-16 -42t-41 -17q-128 0 -199 92q-12 14 -26 39q-53 -62 -138 -96.5t-190 -34.5q-183 0 -295.5 98t-112.5 256zM262 342q0 -111 78 -174 q83 -64 211 -64q129 0 209 64q80 62 80 174v444q0 82 -43.5 140.5t-107 84t-138.5 25.5t-138.5 -25.5t-107 -84t-43.5 -140.5v-444zM268 1602q7 23 28.5 33.5t45.5 4.5l420 -131q23 -6 34 -26.5t5 -44.5q-8 -23 -29.5 -34.5t-44.5 -4.5l-420 129q-23 6 -35 28.5t-4 45.5z " />
<glyph unicode="&#xe1;" horiz-adv-x="1181" d="M143 342v444q0 167 123 271q116 96 285 96t285 -96q122 -103 122 -271v-499q0 -75 35.5 -128t110.5 -53q25 0 41 -17t16 -42t-16 -42t-41 -17q-128 0 -199 92q-12 14 -26 39q-53 -62 -138 -96.5t-190 -34.5q-183 0 -295.5 98t-112.5 256zM262 342q0 -111 78 -174 q83 -64 211 -64q129 0 209 64q80 62 80 174v444q0 82 -43.5 140.5t-107 84t-138.5 25.5t-138.5 -25.5t-107 -84t-43.5 -140.5v-444zM268 1434q-8 23 4 45t35 28l420 129q23 7 44.5 -4.5t29.5 -34.5q6 -24 -5 -44.5t-34 -26.5l-420 -131q-24 -6 -45.5 5t-28.5 34z" />
<glyph unicode="&#xe2;" horiz-adv-x="1181" d="M143 342v444q0 167 123 271q116 96 285 96t285 -96q122 -103 122 -271v-499q0 -75 35.5 -128t110.5 -53q25 0 41 -17t16 -42t-16 -42t-41 -17q-128 0 -199 92q-12 14 -26 39q-53 -62 -138 -96.5t-190 -34.5q-183 0 -295.5 98t-112.5 256zM260 1420q5 24 25 38l258 168 q13 10 31.5 10t31.5 -10l258 -168q20 -14 25 -38t-8 -44q-12 -20 -36 -25t-44 9l-228 147q-49 -32 -225 -147q-20 -14 -44 -9t-36 25q-13 20 -8 44zM262 342q0 -111 78 -174q83 -64 211 -64q129 0 209 64q80 62 80 174v444q0 82 -43.5 140.5t-107 84t-138.5 25.5 t-138.5 -25.5t-107 -84t-43.5 -140.5v-444z" />
<glyph unicode="&#xe3;" horiz-adv-x="1181" d="M143 342v444q0 167 123 271q116 96 285 96t285 -96q122 -103 122 -271v-499q0 -75 35.5 -128t110.5 -53q25 0 41 -17t16 -42t-16 -42t-41 -17q-128 0 -199 92q-12 14 -26 39q-53 -62 -138 -96.5t-190 -34.5q-183 0 -295.5 98t-112.5 256zM245 1504q-2 25 15 44 q44 55 114.5 75t139.5 -3l156 -53q34 -10 68 -0.5t57 35.5q15 20 39.5 21.5t42.5 -13.5q20 -15 21.5 -39.5t-13.5 -42.5q-46 -55 -116.5 -75t-137.5 3l-156 53q-34 11 -68 1t-57 -37q-15 -19 -39.5 -21.5t-44.5 12.5q-19 15 -21 40zM262 342q0 -111 78 -174q83 -64 211 -64 q129 0 209 64q80 62 80 174v444q0 82 -43.5 140.5t-107 84t-138.5 25.5t-138.5 -25.5t-107 -84t-43.5 -140.5v-444z" />
<glyph unicode="&#xe4;" horiz-adv-x="1181" d="M143 342v444q0 167 123 271q116 96 285 96t285 -96q122 -103 122 -271v-499q0 -75 35.5 -128t110.5 -53q25 0 41 -17t16 -42t-16 -42t-41 -17q-128 0 -199 92q-12 14 -26 39q-53 -62 -138 -96.5t-190 -34.5q-183 0 -295.5 98t-112.5 256zM262 342q0 -111 78 -174 q83 -64 211 -64q129 0 209 64q80 62 80 174v444q0 82 -43.5 140.5t-107 84t-138.5 25.5t-138.5 -25.5t-107 -84t-43.5 -140.5v-444zM311 1464v113q0 25 17.5 42t42.5 17q23 0 40 -17t17 -42v-113q0 -25 -17 -42t-40 -17q-25 0 -42.5 17t-17.5 42zM678 1462v115q0 23 17 40 t42 17q23 0 40.5 -17t17.5 -40v-115q0 -24 -17.5 -41.5t-40.5 -17.5q-25 0 -42 17t-17 42z" />
<glyph unicode="&#xe5;" horiz-adv-x="1181" d="M143 342v444q0 167 123 271q116 96 285 96t285 -96q122 -103 122 -271v-499q0 -75 35.5 -128t110.5 -53q25 0 41 -17t16 -42t-16 -42t-41 -17q-128 0 -199 92q-12 14 -26 39q-53 -62 -138 -96.5t-190 -34.5q-183 0 -295.5 98t-112.5 256zM262 342q0 -111 78 -174 q83 -64 211 -64q129 0 209 64q80 62 80 174v444q0 82 -43.5 140.5t-107 84t-138.5 25.5t-138.5 -25.5t-107 -84t-43.5 -140.5v-444zM346 1432q0 85 59 144.5t144 59.5t145 -59.5t60 -144.5q0 -83 -60 -143t-145 -60q-84 0 -143.5 59.5t-59.5 143.5zM438 1432 q0 -44 33.5 -76.5t77.5 -32.5q45 0 77.5 32.5t32.5 76.5q0 46 -32 78t-78 32q-45 0 -78 -32.5t-33 -77.5z" />
<glyph unicode="&#xe6;" horiz-adv-x="1705" d="M143 315q0 151 96 245.5t271 107.5l260 22v144q0 98 -71 150t-169 52q-83 0 -144 -36t-83 -99q-7 -22 -30 -32.5t-46 -2.5q-23 7 -32.5 29.5t-1.5 46.5q35 97 125.5 154t211.5 57q103 0 184 -40.5t126 -111.5q30 38 53 56q114 94 285 94q168 0 282 -94q123 -101 123 -271 v-151q0 -22 -13.5 -38.5t-33.5 -21.5l-649 -122v-111q0 -117 83 -177.5t208 -60.5q66 0 123.5 18t103.5 63.5t57 113.5q5 25 24 39t44 10q24 -3 38 -22t11 -43q-22 -135 -131 -215t-270 -80q-114 0 -202.5 38.5t-141.5 108.5q-28 -52 -89 -88t-119 -48.5t-110 -12.5 q-158 0 -265.5 88.5t-107.5 240.5zM262 315q0 -73 39 -123t94 -70t121 -20q28 0 56 3.5t65.5 18t65.5 37.5t47.5 67t19.5 102v241l-252 -20q-256 -20 -256 -236zM887 573q34 6 579 109v104q0 82 -43 140t-106.5 83t-138.5 25q-76 0 -140 -25t-107.5 -83t-43.5 -140v-213z " />
<glyph unicode="&#xe7;" horiz-adv-x="1087" d="M143 344v444q0 170 123 271q114 94 283 94q156 0 266 -81.5t135 -213.5q4 -25 -10 -44.5t-37 -22.5q-25 -5 -44.5 8.5t-22.5 38.5q-17 91 -95 144.5t-192 53.5q-75 0 -138.5 -25t-107 -83t-43.5 -140v-444q0 -109 80 -174q84 -64 209 -64q67 0 125.5 18.5t104.5 64.5 t57 114q5 24 24 38t43 11q24 -5 38 -24t11 -43q-20 -126 -118 -205t-244 -88v-78q56 -18 91.5 -64.5t35.5 -107.5q0 -74 -52.5 -127t-127.5 -53q-73 0 -126 53t-53 127q0 22 15 36.5t37 14.5t36.5 -14.5t14.5 -36.5q0 -31 22.5 -53.5t53.5 -22.5q32 0 54.5 22.5t22.5 53.5 q0 32 -22.5 55t-54.5 23q-22 0 -37 14.5t-15 36.5v121q-156 17 -249 112.5t-93 239.5z" />
<glyph unicode="&#xe8;" horiz-adv-x="1079" d="M143 340v448q0 170 123 271q114 94 283 94q171 0 285 -94q122 -101 122 -271v-139q0 -22 -13.5 -38t-33.5 -19l-649 -123v-129q0 -109 80 -174q81 -62 209 -62q106 0 188.5 48t98.5 147q5 24 24 38t43 11q24 -5 38 -24t11 -43q-22 -134 -131 -213.5t-272 -79.5 q-182 0 -294 97t-112 255zM260 588q50 9 296 55.5t284 52.5v92q0 82 -43.5 140t-107.5 83t-140 25q-75 0 -138.5 -25t-107 -83t-43.5 -140v-200zM293 1602q7 23 28.5 33.5t45.5 4.5l419 -131q23 -6 34 -26.5t5 -44.5q-8 -23 -29 -34.5t-44 -4.5l-420 129q-23 6 -35 28.5 t-4 45.5z" />
<glyph unicode="&#xe9;" horiz-adv-x="1079" d="M143 340v448q0 170 123 271q114 94 283 94q171 0 285 -94q122 -101 122 -271v-139q0 -22 -13.5 -38t-33.5 -19l-649 -123v-129q0 -109 80 -174q81 -62 209 -62q106 0 188.5 48t98.5 147q5 24 24 38t43 11q24 -5 38 -24t11 -43q-22 -134 -131 -213.5t-272 -79.5 q-182 0 -294 97t-112 255zM260 588q50 9 296 55.5t284 52.5v92q0 82 -43.5 140t-107.5 83t-140 25q-75 0 -138.5 -25t-107 -83t-43.5 -140v-200zM276 1434q-8 23 4 45t35 28l420 129q23 7 44.5 -4.5t29.5 -34.5q6 -24 -5 -44.5t-34 -26.5l-420 -131q-24 -6 -45.5 5t-28.5 34 z" />
<glyph unicode="&#xea;" horiz-adv-x="1079" d="M143 340v448q0 170 123 271q114 94 283 94q171 0 285 -94q122 -101 122 -271v-139q0 -22 -13.5 -38t-33.5 -19l-649 -123v-129q0 -109 80 -174q81 -62 209 -62q106 0 188.5 48t98.5 147q5 24 24 38t43 11q24 -5 38 -24t11 -43q-22 -134 -131 -213.5t-272 -79.5 q-182 0 -294 97t-112 255zM237 1420.5q5 24.5 25 37.5l258 168q13 10 31.5 10t32.5 -10l258 -168q20 -13 25 -37.5t-9 -44.5q-12 -20 -36 -25t-44 9l-227 147q-49 -32 -225 -147q-20 -14 -44 -9t-36 25q-14 20 -9 44.5zM260 588q50 9 296 55.5t284 52.5v92q0 82 -43.5 140 t-107.5 83t-140 25q-75 0 -138.5 -25t-107 -83t-43.5 -140v-200z" />
<glyph unicode="&#xeb;" horiz-adv-x="1079" d="M143 340v448q0 170 123 271q114 94 283 94q171 0 285 -94q122 -101 122 -271v-139q0 -22 -13.5 -38t-33.5 -19l-649 -123v-129q0 -109 80 -174q81 -62 209 -62q106 0 188.5 48t98.5 147q5 24 24 38t43 11q24 -5 38 -24t11 -43q-22 -134 -131 -213.5t-272 -79.5 q-182 0 -294 97t-112 255zM260 588q50 9 296 55.5t284 52.5v92q0 82 -43.5 140t-107.5 83t-140 25q-75 0 -138.5 -25t-107 -83t-43.5 -140v-200zM303 1464v113q0 25 17 42t42 17q24 0 41 -17t17 -42v-113q0 -24 -17 -41.5t-41 -17.5q-25 0 -42 17t-17 42zM670 1462v115 q0 23 17 40t42 17q23 0 40 -17t17 -40v-115q0 -25 -17 -42t-40 -17q-25 0 -42 17t-17 42z" />
<glyph unicode="&#xec;" horiz-adv-x="581" d="M25 1602q7 23 28 33.5t45 4.5l420 -131q23 -6 34 -26.5t5 -44.5q-8 -23 -29.5 -34.5t-44.5 -4.5l-420 129q-23 6 -34.5 28.5t-3.5 45.5zM231 47v1047q0 25 17.5 42t42.5 17t41 -17t16 -42v-1047q0 -25 -16 -42t-41 -17t-42.5 17t-17.5 42z" />
<glyph unicode="&#xed;" horiz-adv-x="581" d="M25 1434q-8 23 3.5 45t34.5 28l420 129q23 7 44.5 -4.5t29.5 -34.5q6 -24 -5 -44.5t-34 -26.5l-420 -131q-23 -6 -44.5 5t-28.5 34zM231 47v1047q0 25 17.5 42t42.5 17t41 -17t16 -42v-1047q0 -25 -16 -42t-41 -17t-42.5 17t-17.5 42z" />
<glyph unicode="&#xee;" horiz-adv-x="673" d="M22 1420.5q5 24.5 25 37.5l258 168q13 10 32 10t32 -10l258 -168q20 -13 25 -37.5t-9 -44.5q-12 -20 -36 -25t-44 9l-227 147q-49 -32 -225 -147q-20 -14 -44 -9t-36 25q-14 20 -9 44.5zM281 47v1047q0 25 17 42t42 17t41 -17t16 -42v-1047q0 -25 -16 -42t-41 -17t-42 17 t-17 42z" />
<glyph unicode="&#xef;" horiz-adv-x="524" d="M20 1464v113q0 25 17.5 42t42.5 17q23 0 40 -17t17 -42v-113q0 -25 -17 -42t-40 -17q-25 0 -42.5 17t-17.5 42zM203 47v1047q0 25 17 42t42 17t41 -17t16 -42v-1047q0 -25 -16 -42t-41 -17t-42 17t-17 42zM387 1462v115q0 23 17 40t42 17q23 0 40.5 -17t17.5 -40v-115 q0 -24 -17 -41.5t-41 -17.5q-25 0 -42 17t-17 42z" />
<glyph unicode="&#xf1;" horiz-adv-x="1138" d="M174 47v1047q0 25 17 42t42 17t42.5 -17t17.5 -42v-41q106 100 291 100q163 0 282 -98q125 -106 125 -269v-739q0 -25 -17 -42t-42 -17q-24 0 -41 17t-17 42v739q0 82 -43.5 140.5t-107.5 84t-139 25.5q-119 0 -205 -64.5t-86 -185.5v-739q0 -25 -17.5 -42t-42.5 -17 t-42 17t-17 42zM247 1504q-2 25 15 44q44 55 114.5 75t139.5 -3l156 -53q34 -10 68 -0.5t57 35.5q15 20 39.5 21.5t42.5 -13.5q20 -15 21.5 -39.5t-13.5 -42.5q-46 -55 -116.5 -75t-137.5 3l-156 53q-34 11 -68 1t-57 -37q-15 -19 -39.5 -21.5t-44.5 12.5q-19 15 -21 40z " />
<glyph unicode="&#xf2;" horiz-adv-x="1103" d="M143 342v444q0 167 123 271q116 96 287 96q169 0 285 -96q123 -101 123 -271v-444q0 -158 -112.5 -256t-295.5 -98q-184 0 -297 98t-113 256zM262 342q0 -109 80 -174q80 -64 211 -64q128 0 211 64q80 65 80 174v338q-178 0 -290 92.5t-120 243.5q-77 -25 -124.5 -83.5 t-47.5 -146.5v-444zM287 1602q7 23 28 33.5t45 4.5l420 -131q23 -6 34 -26.5t5 -44.5q-8 -23 -29.5 -34.5t-44.5 -4.5l-419 129q-23 6 -35 28.5t-4 45.5zM553 1034q0 -109 80 -174q78 -63 211 -63q-6 116 -90.5 176.5t-200.5 60.5z" />
<glyph unicode="&#xf3;" horiz-adv-x="1103" d="M143 342v444q0 167 123 271q116 96 287 96q169 0 285 -96q123 -101 123 -271v-444q0 -158 -112.5 -256t-295.5 -98q-184 0 -297 98t-113 256zM262 342q0 -109 80 -174q80 -64 211 -64q128 0 211 64q80 65 80 174v338q-178 0 -290 92.5t-120 243.5q-77 -25 -124.5 -83.5 t-47.5 -146.5v-444zM283 1434q-8 23 4 45t35 28l419 129q23 7 44.5 -4.5t29.5 -34.5q6 -24 -5 -44.5t-34 -26.5l-420 -131q-23 -6 -44.5 5t-28.5 34zM553 1034q0 -109 80 -174q78 -63 211 -63q-6 116 -90.5 176.5t-200.5 60.5z" />
<glyph unicode="&#xf4;" horiz-adv-x="1103" d="M143 342v444q0 167 123 271q116 96 287 96q169 0 285 -96q123 -101 123 -271v-444q0 -158 -112.5 -256t-295.5 -98q-184 0 -297 98t-113 256zM231 1420.5q5 24.5 25 37.5l258 168q14 10 32.5 10t31.5 -10l258 -168q20 -13 25 -37.5t-9 -44.5q-12 -20 -36 -25t-44 9 l-227 147q-50 -32 -226 -147q-20 -14 -43.5 -9t-35.5 25q-14 20 -9 44.5zM262 342q0 -109 80 -174q80 -64 211 -64q128 0 211 64q80 65 80 174v338q-178 0 -290 92.5t-120 243.5q-77 -25 -124.5 -83.5t-47.5 -146.5v-444zM553 1034q0 -109 80 -174q78 -63 211 -63 q-6 116 -90.5 176.5t-200.5 60.5z" />
<glyph unicode="&#xf5;" horiz-adv-x="1103" d="M143 342v444q0 167 123 271q116 96 287 96q169 0 285 -96q123 -101 123 -271v-444q0 -158 -112.5 -256t-295.5 -98q-184 0 -297 98t-113 256zM227 1504q-2 25 15 44q44 55 114.5 75t139.5 -3l155 -53q34 -10 68 -0.5t57 35.5q15 20 39.5 21.5t42.5 -13.5 q20 -15 21.5 -39.5t-13.5 -42.5q-46 -55 -116.5 -75t-137.5 3l-155 53q-34 11 -68 1t-57 -37q-15 -19 -39.5 -21.5t-44.5 12.5q-19 15 -21 40zM262 342q0 -109 80 -174q80 -64 211 -64q128 0 211 64q80 65 80 174v338q-178 0 -290 92.5t-120 243.5q-77 -25 -124.5 -83.5 t-47.5 -146.5v-444zM553 1034q0 -109 80 -174q78 -63 211 -63q-6 116 -90.5 176.5t-200.5 60.5z" />
<glyph unicode="&#xf6;" horiz-adv-x="1103" d="M143 342v444q0 167 123 271q116 96 287 96q169 0 285 -96q123 -101 123 -271v-444q0 -158 -112.5 -256t-295.5 -98q-184 0 -297 98t-113 256zM262 342q0 -109 80 -174q80 -64 211 -64q128 0 211 64q80 65 80 174v338q-178 0 -290 92.5t-120 243.5q-77 -25 -124.5 -83.5 t-47.5 -146.5v-444zM291 1466v113q0 25 17 42t42 17q24 0 41 -17t17 -42v-113q0 -24 -17 -41.5t-41 -17.5q-25 0 -42 17t-17 42zM553 1034q0 -109 80 -174q78 -63 211 -63q-6 116 -90.5 176.5t-200.5 60.5zM657 1464v115q0 23 17.5 40t42.5 17q23 0 40 -17t17 -40v-115 q0 -25 -17 -42t-40 -17q-25 0 -42.5 17t-17.5 42z" />
<glyph unicode="&#xf7;" horiz-adv-x="1159" d="M113 578q0 25 17 42t42 17h815q25 0 42.5 -17t17.5 -42t-17.5 -42.5t-42.5 -17.5h-815q-25 0 -42 17.5t-17 42.5zM512 133v115q0 23 17 40t42 17q23 0 40.5 -17t17.5 -40v-115q0 -25 -17.5 -42t-40.5 -17q-25 0 -42 17t-17 42zM512 864v113q0 25 17 42t42 17 q23 0 40.5 -17t17.5 -42v-113q0 -24 -17.5 -41.5t-40.5 -17.5q-25 0 -42 17t-17 42z" />
<glyph unicode="&#xf8;" horiz-adv-x="1140" d="M132.5 -61.5q-5.5 24.5 8.5 47.5l88 143q-69 87 -69 213v444q0 167 123 271q116 96 286 96q142 0 252 -74l88 142q15 21 37.5 26t44.5 -8q23 -12 29 -37t-8 -47l-101 -160q66 -91 66 -209v-444q0 -158 -112.5 -256t-295.5 -98q-145 0 -245 59l-80 -127q-13 -22 -37.5 -27 t-46.5 9q-22 12 -27.5 36.5zM279 342q0 -110 79 -174q80 -64 211 -64q128 0 211 64q80 65 80 174v338q-178 0 -289.5 92.5t-119.5 243.5q-77 -25 -124.5 -83.5t-47.5 -146.5v-444zM569 1034q0 -109 80 -174q78 -63 211 -63q-6 116 -90.5 176.5t-200.5 60.5z" />
<glyph unicode="&#xf9;" horiz-adv-x="1124" d="M154 344v750q0 25 17 42t42 17t42 -17t17 -42v-750q0 -112 80 -174q82 -66 211 -66q126 0 211 66q80 62 80 174v750q0 25 17 42t40 17q25 0 42.5 -17t17.5 -42v-750q0 -160 -112.5 -258t-295.5 -98q-184 0 -296.5 98t-112.5 258zM297 1602q7 23 28.5 33.5t45.5 4.5 l420 -131q23 -6 33.5 -26.5t4.5 -44.5q-8 -23 -29 -34.5t-44 -4.5l-420 129q-23 6 -35 28.5t-4 45.5z" />
<glyph unicode="&#xfa;" horiz-adv-x="1124" d="M154 344v750q0 25 17 42t42 17t42 -17t17 -42v-750q0 -112 80 -174q82 -66 211 -66q126 0 211 66q80 62 80 174v750q0 25 17 42t40 17q25 0 42.5 -17t17.5 -42v-750q0 -160 -112.5 -258t-295.5 -98q-184 0 -296.5 98t-112.5 258zM295 1434q-8 23 4 45t35 28l420 129 q23 7 44 -4.5t29 -34.5q6 -24 -5 -44.5t-34 -26.5l-419 -131q-24 -6 -45.5 5t-28.5 34z" />
<glyph unicode="&#xfb;" horiz-adv-x="1124" d="M154 344v750q0 25 17 42t42 17t42 -17t17 -42v-750q0 -112 80 -174q82 -66 211 -66q126 0 211 66q80 62 80 174v750q0 25 17 42t40 17q25 0 42.5 -17t17.5 -42v-750q0 -160 -112.5 -258t-295.5 -98q-184 0 -296.5 98t-112.5 258zM249 1420.5q5 24.5 25 37.5l258 168 q14 10 32.5 10t31.5 -10l258 -168q20 -13 25 -37.5t-9 -44.5q-12 -20 -35.5 -25t-43.5 9l-228 147q-49 -32 -225 -147q-20 -14 -44 -9t-36 25q-14 20 -9 44.5z" />
<glyph unicode="&#xfc;" horiz-adv-x="1128" d="M154 344v750q0 25 17 42t42 17t42 -17t17 -42v-750q0 -112 80 -174q82 -66 211 -66q126 0 211 66q80 62 80 174v750q0 25 17 42t40 17q25 0 42.5 -17t17.5 -42v-750q0 -160 -112.5 -258t-295.5 -98q-184 0 -296.5 98t-112.5 258zM324 1466v113q0 25 17 42t42 17 q23 0 40 -17t17 -42v-113q0 -25 -17 -42t-40 -17q-25 0 -42 17t-17 42zM690 1464v115q0 23 17.5 40t42.5 17q23 0 40 -17t17 -40v-115q0 -25 -17 -42t-40 -17q-25 0 -42.5 17t-17.5 42z" />
<glyph unicode="&#xfd;" horiz-adv-x="1132" d="M143 344v750q0 25 17.5 42t42.5 17t41 -17t16 -42v-750q0 -112 80 -174q82 -66 211 -66t211 66q80 62 80 174v750q0 25 17 42t40 17q25 0 42 -17t17 -42v-1235q0 -159 -112 -257t-295 -98q-163 0 -272.5 80t-131.5 215q-3 24 11.5 43.5t38.5 22.5q24 4 43 -9.5t24 -37.5 q16 -100 99 -148.5t188 -48.5q131 0 211 64q80 62 80 174v223q-115 -94 -291 -94q-183 0 -295.5 98t-112.5 258zM285 1442q-8 23 4 45.5t35 28.5l419 129q23 7 44.5 -4.5t29.5 -34.5q6 -24 -5 -45t-34 -27l-420 -131q-23 -6 -44.5 5t-28.5 34z" />
<glyph unicode="&#xff;" horiz-adv-x="1132" d="M143 344v750q0 25 17.5 42t42.5 17t41 -17t16 -42v-750q0 -112 80 -174q82 -66 211 -66t211 66q80 62 80 174v750q0 25 17 42t40 17q25 0 42 -17t17 -42v-1235q0 -159 -112 -257t-295 -98q-163 0 -272.5 80t-131.5 215q-3 24 11.5 43.5t38.5 22.5q24 4 43 -9.5t24 -37.5 q16 -100 99 -148.5t188 -48.5q131 0 211 64q80 62 80 174v223q-115 -94 -291 -94q-183 0 -295.5 98t-112.5 258zM309 1477v112q0 25 17.5 42.5t42.5 17.5q23 0 40 -17.5t17 -42.5v-112q0 -25 -17 -42.5t-40 -17.5q-25 0 -42.5 17.5t-17.5 42.5zM676 1477v114q0 23 17 40.5 t42 17.5q23 0 40.5 -17.5t17.5 -40.5v-114q0 -25 -17.5 -42.5t-40.5 -17.5q-25 0 -42 17.5t-17 42.5z" />
<glyph unicode="&#x152;" horiz-adv-x="1935" d="M154 393v850q0 182 129.5 294t339.5 112q221 0 350 -123v53q0 25 17 42t42 17h725q25 0 42.5 -17t17.5 -42q0 -24 -17.5 -40.5t-42.5 -16.5h-665v-582h612q25 0 42 -17t17 -42t-17 -41.5t-42 -16.5h-612v-704h682q25 0 42 -17.5t17 -42.5t-17 -42t-42 -17h-742 q-25 0 -42 17t-17 42v64q-142 -135 -350 -135q-211 0 -340 111.5t-129 293.5zM270 393q0 -131 99 -211q100 -78 254 -78t254 78q96 78 96 211v731q-206 2 -334.5 109.5t-132.5 284.5q-83 -19 -137 -64q-97 -75 -97 -211zM623 1532q0 -137 98 -213q95 -76 252 -76 q0 136 -96 211q-100 78 -254 78z" />
<glyph unicode="&#x153;" horiz-adv-x="1787" d="M143 340v448q0 166 123 271q114 94 285 94q169 0 283 -94q34 -25 65 -72q23 40 64 72q114 94 284 94q172 0 283 -94q123 -105 123 -271v-153q0 -21 -13 -37t-34 -20l-650 -123v-115q0 -110 80 -172q80 -64 211 -64q66 0 124 18t105 63.5t58 113.5q3 25 22.5 39.5 t42.5 9.5q25 -3 39.5 -22.5t10.5 -44.5q-20 -133 -129.5 -213t-272.5 -80q-117 0 -206.5 41t-141.5 116q-53 -75 -143 -116t-205 -41q-183 0 -295.5 97t-112.5 255zM260 340q0 -110 80 -172q80 -64 211 -64q129 0 209 64q80 62 80 172v448q0 82 -43.5 140t-107 83t-138.5 25 q-76 0 -140 -25t-107.5 -83t-43.5 -140v-448zM956 573q407 78 580 111v104q0 81 -43.5 139t-107 83.5t-138.5 25.5q-76 0 -140 -25.5t-107.5 -83.5t-43.5 -139v-215z" />
<glyph unicode="&#x178;" horiz-adv-x="1183" d="M164 856v733q0 25 17 42.5t42 17.5t41.5 -17.5t16.5 -42.5v-733q0 -113 79 -174q80 -64 211 -64t211 64q80 62 80 174v733q0 25 17.5 42.5t40.5 17.5q25 0 42 -17.5t17 -42.5v-1247q0 -158 -112.5 -256t-295.5 -98q-161 0 -271 80t-132 213q-3 25 11 44.5t38 22.5 q25 4 44 -10t24 -39q11 -68 57.5 -113.5t104.5 -63.5t124 -18q131 0 211 64q80 65 80 174v252q-115 -94 -291 -94q-183 0 -295 98t-112 258zM330 1812v113q0 25 17 42.5t42 17.5q23 0 40 -17.5t17 -42.5v-113q0 -25 -17 -42t-40 -17q-25 0 -42 17t-17 42zM696 1810v115 q0 23 17.5 40t42.5 17q23 0 40 -17t17 -40v-115q0 -25 -17 -42t-40 -17q-25 0 -42.5 17t-17.5 42z" />
<glyph unicode="&#x2c6;" horiz-adv-x="796" d="M84 1432.5q5 23.5 25 37.5l258 168q13 10 31 10t32 -10l258 -168q20 -14 25 -37.5t-8 -43.5q-12 -20 -36 -25t-44 8l-228 148q-49 -33 -225 -148q-20 -13 -44 -8t-36 25q-13 20 -8 43.5z" />
<glyph unicode="&#x2dc;" horiz-adv-x="819" d="M83 1521q-2 25 15 44q44 55 114.5 74.5t139.5 -3.5l156 -53q34 -10 68 -0.5t57 35.5q15 20 39.5 21.5t42.5 -13.5q20 -15 21.5 -39.5t-13.5 -42.5q-46 -55 -116.5 -74.5t-137.5 3.5l-156 53q-34 11 -68 1t-57 -38q-15 -19 -39.5 -21t-44.5 13q-19 15 -21 40z" />
<glyph unicode="&#x2000;" horiz-adv-x="1054" />
<glyph unicode="&#x2001;" horiz-adv-x="2109" />
<glyph unicode="&#x2002;" horiz-adv-x="1054" />
<glyph unicode="&#x2003;" horiz-adv-x="2109" />
<glyph unicode="&#x2004;" horiz-adv-x="703" />
<glyph unicode="&#x2005;" horiz-adv-x="527" />
<glyph unicode="&#x2006;" horiz-adv-x="351" />
<glyph unicode="&#x2007;" horiz-adv-x="351" />
<glyph unicode="&#x2008;" horiz-adv-x="263" />
<glyph unicode="&#x2009;" horiz-adv-x="421" />
<glyph unicode="&#x200a;" horiz-adv-x="117" />
<glyph unicode="&#x2010;" horiz-adv-x="684" d="M113 819q0 25 17 42.5t42 17.5h340q25 0 42 -17.5t17 -42.5t-17 -42t-42 -17h-340q-25 0 -42 17t-17 42z" />
<glyph unicode="&#x2011;" horiz-adv-x="684" d="M113 819q0 25 17 42.5t42 17.5h340q25 0 42 -17.5t17 -42.5t-17 -42t-42 -17h-340q-25 0 -42 17t-17 42z" />
<glyph unicode="&#x2012;" horiz-adv-x="684" d="M113 819q0 25 17 42.5t42 17.5h340q25 0 42 -17.5t17 -42.5t-17 -42t-42 -17h-340q-25 0 -42 17t-17 42z" />
<glyph unicode="&#x2013;" horiz-adv-x="1079" d="M113 819q0 25 17 42.5t42 17.5h735q25 0 42.5 -17.5t17.5 -42.5t-17.5 -42t-42.5 -17h-735q-25 0 -42 17t-17 42z" />
<glyph unicode="&#x2014;" horiz-adv-x="1302" d="M61 819q0 25 17.5 42.5t42.5 17.5h1061q25 0 42 -17.5t17 -42.5t-17 -42t-42 -17h-1061q-25 0 -42.5 17t-17.5 42z" />
<glyph unicode="&#x2018;" horiz-adv-x="350" d="M72 1407q0 27 12 51l66 154q9 22 31 30.5t44 -0.5q23 -9 32.5 -31.5t0.5 -45.5l-31 -70q52 -30 52 -88q0 -43 -31 -73.5t-74 -30.5t-72.5 30.5t-29.5 73.5z" />
<glyph unicode="&#x2019;" horiz-adv-x="350" d="M72 1544q0 43 30.5 74t73.5 31t73 -31t30 -74q0 -25 -13 -51l-65 -154q-9 -22 -31.5 -30.5t-44.5 0.5q-23 9 -32.5 31.5t-0.5 45.5l31 70q-51 30 -51 88z" />
<glyph unicode="&#x201a;" horiz-adv-x="350" d="M72 129q0 43 30.5 73.5t73.5 30.5t73 -30.5t30 -73.5q0 -25 -13 -51l-65 -154q-9 -22 -31.5 -30.5t-44.5 0.5q-23 9 -32.5 31.5t-0.5 45.5l31 70q-51 30 -51 88z" />
<glyph unicode="&#x201c;" horiz-adv-x="616" d="M72 1407q0 27 12 51l66 154q9 22 31 30.5t44 -0.5q23 -9 32.5 -31.5t0.5 -45.5l-31 -70q52 -30 52 -88q0 -43 -31 -73.5t-74 -30.5t-72.5 30.5t-29.5 73.5zM338 1407q0 27 12 51l66 154q9 22 31.5 30.5t44.5 -0.5q23 -9 32 -31.5t0 -45.5l-30 -70q51 -30 51 -88 q0 -43 -31 -73.5t-74 -30.5t-72.5 30.5t-29.5 73.5z" />
<glyph unicode="&#x201d;" horiz-adv-x="616" d="M72 1544q0 43 30.5 74t73.5 31t73 -31t30 -74q0 -25 -13 -51l-65 -154q-9 -22 -31.5 -30.5t-44.5 0.5q-23 9 -32.5 31.5t-0.5 45.5l31 70q-51 30 -51 88zM338 1544q0 43 30.5 74t73.5 31t73 -31t30 -74q0 -25 -13 -51l-65 -154q-9 -22 -31.5 -30.5t-44.5 0.5 q-23 9 -32.5 31.5t-0.5 45.5l31 70q-51 30 -51 88z" />
<glyph unicode="&#x201e;" horiz-adv-x="595" d="M72 129q0 43 30.5 73.5t73.5 30.5t73 -30.5t30 -73.5q0 -25 -13 -51l-65 -154q-9 -22 -31.5 -30.5t-44.5 0.5q-23 9 -32.5 31.5t-0.5 45.5l31 70q-51 30 -51 88zM338 129q0 43 30.5 73.5t73.5 30.5t73 -30.5t30 -73.5q0 -25 -13 -51l-65 -154q-9 -22 -31.5 -30.5 t-44.5 0.5q-23 9 -32.5 31.5t-0.5 45.5l31 70q-51 30 -51 88z" />
<glyph unicode="&#x2022;" horiz-adv-x="794" d="M154 897q0 100 71.5 172t171.5 72t172 -72t72 -172t-72 -172t-172 -72t-171.5 72t-71.5 172z" />
<glyph unicode="&#x2026;" horiz-adv-x="905" d="M113 47v115q0 23 17 40t42 17q23 0 40 -17t17 -40v-115q0 -25 -17 -42t-40 -17q-25 0 -42 17t-17 42zM352 47v115q0 23 17.5 40t42.5 17q23 0 40 -17t17 -40v-115q0 -25 -17 -42t-40 -17q-25 0 -42.5 17t-17.5 42zM594 47v115q0 23 17 40t42 17q23 0 40.5 -17t17.5 -40 v-115q0 -25 -17.5 -42t-40.5 -17q-25 0 -42 17t-17 42z" />
<glyph unicode="&#x202f;" horiz-adv-x="421" />
<glyph unicode="&#x2039;" horiz-adv-x="763" d="M124 696q0 24 17 41l400 400q17 17 41 17t41 -17q19 -19 19 -42t-19 -42l-357 -357q69 -68 357 -356q19 -19 19 -42t-19 -42q-17 -17 -41 -17t-41 17l-400 399q-17 17 -17 41z" />
<glyph unicode="&#x203a;" horiz-adv-x="763" d="M122 298q0 23 19 42l357 356l-357 357q-19 19 -19 42t19 42q17 17 41 17t41 -17l400 -400q17 -17 17 -41t-17 -41l-400 -399q-17 -17 -41 -17t-41 17q-19 19 -19 42z" />
<glyph unicode="&#x205f;" horiz-adv-x="527" />
<glyph unicode="&#x20ac;" horiz-adv-x="1286" d="M41 702q0 24 17.5 41t41.5 17h166v145h-166q-25 0 -42 17.5t-17 42.5t17 42t42 17h166v217q0 183 129 295.5t340 112.5t340 -112.5t129 -295.5q0 -23 -17 -40t-42 -17t-42.5 17t-17.5 40q0 135 -96 213q-98 76 -254 76q-159 0 -254 -76q-98 -76 -98 -213v-217h496 q25 0 41 -17t16 -42t-16.5 -42.5t-40.5 -17.5h-496v-145h496q24 0 40.5 -17t16.5 -41q0 -25 -16 -42t-41 -17h-496v-248q0 -137 98 -213q95 -76 254 -76q156 0 254 76q96 78 96 213q0 23 17.5 40.5t42.5 17.5t42 -17.5t17 -40.5q0 -183 -129 -295t-340 -112t-340 112 t-129 295v248h-166q-25 0 -42 17t-17 42z" />
<glyph unicode="&#x2122;" horiz-adv-x="1273" d="M82 1589q0 19 14 33t33 14h363q20 0 33.5 -14t13.5 -33q0 -20 -13.5 -33.5t-33.5 -13.5h-134v-559q0 -20 -13.5 -33.5t-33.5 -13.5q-19 0 -33 13.5t-14 33.5v559h-135q-19 0 -33 13.5t-14 33.5zM637 983v608q0 15 10 28.5t25 16.5q36 9 53 -22l190 -338q54 98 187 338 q21 32 53 22q15 -3 26 -16.5t11 -28.5v-608q0 -19 -13.5 -33t-33.5 -14q-19 0 -33 14t-14 33v428q-66 -121 -142 -256q-13 -22 -41 -22t-41 22l-143 256v-428q0 -20 -13.5 -33.5t-33.5 -13.5t-33.5 13.5t-13.5 33.5z" />
<glyph unicode="&#x25fc;" horiz-adv-x="1157" d="M0 0v1157h1157v-1157h-1157z" />
</font>
</defs>
</svg>
