<?xml version="1.0" standalone="no"?>
<!DOCTYPE svg PUBLIC "-//W3C//DTD SVG 1.1//EN" "http://www.w3.org/Graphics/SVG/1.1/DTD/svg11.dtd" >
<svg xmlns="http://www.w3.org/2000/svg">
<metadata></metadata>
<defs>
<font id="naivnormal" horiz-adv-x="1224" >
<font-face units-per-em="2048" ascent="1638" descent="-410" />
<missing-glyph horiz-adv-x="614" />
<glyph horiz-adv-x="2048" />
<glyph horiz-adv-x="2048" />
<glyph unicode="&#xd;" horiz-adv-x="2048" />
<glyph unicode=" "  horiz-adv-x="614" />
<glyph unicode="&#x09;" horiz-adv-x="614" />
<glyph unicode="&#xa0;" horiz-adv-x="614" />
<glyph unicode="!" horiz-adv-x="612" d="M225 68v112q0 32 25 56t57 24q33 0 56.5 -23.5t23.5 -56.5v-112q0 -33 -23.5 -56.5t-56.5 -23.5q-32 0 -57 24t-25 56zM225 428v1143q0 32 24 56t56 24q33 0 56.5 -23.5t23.5 -56.5l2 -1143q0 -34 -23 -57t-57 -23q-33 0 -57.5 23.5t-24.5 56.5z" />
<glyph unicode="&#x22;" horiz-adv-x="657" d="M98 1386l76 211q10 32 40 46.5t62 3.5q31 -11 45.5 -41.5t2.5 -61.5l-74 -211q-10 -32 -41 -46t-62 -3q-32 10 -46 40.5t-3 61.5zM354 1386l76 211q10 32 40 46.5t62 3.5q31 -11 45.5 -41.5t2.5 -61.5l-74 -211q-10 -32 -41 -46t-62 -3q-32 10 -46 40.5t-3 61.5z" />
<glyph unicode="#" horiz-adv-x="1671" d="M72 731q0 32 24 56t56 24h327l92 293h-276q-34 0 -57 24t-23 58q0 33 23.5 56.5t56.5 23.5h326l102 327q10 32 40 47.5t62 6.5q31 -9 46.5 -39t5.5 -62l-89 -280h287l103 327q10 32 39.5 47.5t60.5 6.5q32 -9 48 -39t5 -62l-88 -280h277q33 0 56 -23.5t23 -56.5 q0 -34 -23 -58t-56 -24h-326l-92 -293h274q33 0 56.5 -23.5t23.5 -56.5q0 -34 -23 -57t-57 -23h-325l-103 -329q-10 -32 -39.5 -47.5t-60.5 -6.5q-32 10 -48 40t-5 61l88 282h-287l-102 -329q-10 -32 -40 -47.5t-61 -6.5q-32 10 -47 40t-6 61l88 282h-276q-33 0 -56.5 23.5 t-23.5 56.5zM647 811h285l92 293h-285z" />
<glyph unicode="$" horiz-adv-x="1196" d="M115 348q-6 33 14 60t53 30q34 6 59.5 -13.5t30.5 -53.5q27 -183 250 -217v655q-145 61 -233 131q-137 122 -137 307q0 190 131 303q94 82 239 97v112q0 34 24 58t56 24q34 0 58 -24t24 -58v-114q110 -15 197 -70q126 -79 168 -236q8 -31 -9.5 -60t-50.5 -36 q-33 -8 -62 8.5t-36 48.5q-36 150 -207 183v-565q43 -18 77 -34.5t77.5 -43t76 -53.5t66 -65t54.5 -80.5t34.5 -98t13.5 -117.5q0 -96 -39.5 -180t-113.5 -144q-105 -88 -246 -106v-109q0 -34 -24 -57t-58 -23q-33 0 -56.5 23.5t-23.5 56.5v105q-138 12 -237 80 q-145 97 -170 276zM311 1247q0 -90 52.5 -149.5t158.5 -110.5v498q-39 -7 -72.5 -21t-66.5 -40t-52.5 -71.5t-19.5 -105.5zM684 158q103 24 169.5 91.5t66.5 176.5q0 110 -61 181t-175 132v-581z" />
<glyph unicode="%" horiz-adv-x="1458" d="M72 1139v270q0 107 76 174.5t196 67.5t196 -67.5t76 -174.5v-270q0 -106 -76 -174t-196 -68t-196 68t-76 174zM219 1139q0 -31 14.5 -51.5t37.5 -29t39.5 -11.5t33.5 -3q16 0 32.5 3t40 11.5t38 29t14.5 51.5v270q0 31 -14.5 52t-38 29.5t-40 11.5t-32.5 3t-33 -3 t-40 -11.5t-37.5 -29.5t-14.5 -52v-270zM272.5 42q-10.5 31 3.5 60l744 1504q15 31 46 41t62 -5q29 -15 39.5 -46t-4.5 -60l-743 -1503q-13 -30 -45.5 -41t-61.5 4q-30 15 -40.5 46zM842 229v271q0 107 76 174t196 67t196 -67t76 -174v-271q0 -106 -76 -173.5t-196 -67.5 t-196 67.5t-76 173.5zM989 229q0 -31 14.5 -51.5t38 -29t40 -11t32.5 -2.5t32.5 2.5t40 11t38 29t14.5 51.5v271q0 31 -14.5 52t-38 29.5t-40 11.5t-32.5 3t-32.5 -3t-40 -11.5t-38 -29.5t-14.5 -52v-271z" />
<glyph unicode="&#x26;" horiz-adv-x="1425" d="M143 467q0 100 33 193t92 157q43 46 84 70q-14 12 -39 37q-52 56 -80 137.5t-28 169.5q0 178 108 295q116 125 312 125q168 0 282 -97q24 -21 26.5 -54.5t-18.5 -57.5q-22 -25 -54.5 -27.5t-57.5 19.5q-69 57 -178 57q-69 0 -121.5 -22.5t-81.5 -61t-43 -82.5t-14 -94 t14 -96t43 -87t81.5 -65.5t121.5 -24.5h649q34 0 57 -22.5t23 -56.5q0 -33 -23.5 -56.5t-56.5 -23.5h-168v-330q0 -209 -123 -338q-134 -143 -358 -143q-107 0 -199.5 36t-157.5 107q-60 63 -92.5 150.5t-32.5 185.5zM303 467q0 -61 17.5 -115.5t53.5 -101.5t100.5 -75 t150.5 -28t150 28t100 75t53.5 102t17.5 117v330h-321q-85 0 -150 -29.5t-101 -78.5t-53.5 -105.5t-17.5 -118.5z" />
<glyph unicode="'" horiz-adv-x="401" d="M98 1386l76 211q10 32 40 46.5t62 3.5q31 -11 45.5 -41.5t2.5 -61.5l-74 -211q-10 -32 -41 -46t-62 -3q-32 10 -46 40.5t-3 61.5z" />
<glyph unicode="(" horiz-adv-x="788" d="M184 844q0 277 97.5 519t293.5 398q25 21 58 17.5t55 -29.5q20 -26 16.5 -59.5t-28.5 -53.5q-161 -129 -246.5 -333t-85.5 -459q0 -263 87.5 -482.5t242.5 -343.5q26 -22 30 -54t-16 -58q-22 -26 -55 -30t-58 18q-184 148 -287.5 399t-103.5 551z" />
<glyph unicode=")" horiz-adv-x="788" d="M84 1689.5q-4 33.5 16 59.5q22 26 55 29.5t58 -17.5q196 -156 293.5 -398t97.5 -519q0 -300 -103.5 -551t-287.5 -399q-25 -22 -58 -18t-55 30q-20 26 -15.5 58t30.5 54q155 124 242 343.5t87 482.5q0 255 -85 459t-246 333q-25 20 -29 53.5z" />
<glyph unicode="*" horiz-adv-x="1032" d="M83.5 902.5q5.5 32.5 33.5 51.5l260 185l-260 184q-28 19 -33.5 51t14.5 60q19 28 52 33.5t59 -13.5l227 -160v277q0 33 23.5 56.5t56.5 23.5t56.5 -23.5t23.5 -56.5v-277l227 160q26 19 59 13.5t52 -33.5q20 -28 14 -60t-33 -51l-260 -184l260 -185q27 -19 33 -51 t-14 -59q-19 -28 -52 -34t-59 13l-227 160v-276q0 -34 -23 -57t-57 -23t-57 23t-23 57v276l-227 -160q-26 -19 -59 -13t-52 34q-20 26 -14.5 58.5z" />
<glyph unicode="+" horiz-adv-x="1136" d="M113 702q0 33 23.5 56.5t56.5 23.5h294v295q0 34 24 58t58 24q32 0 56 -24t24 -58v-295h295q34 0 57 -23t23 -57t-23 -56.5t-57 -22.5h-295v-295q0 -34 -24 -58t-56 -24q-34 0 -58 24t-24 58v295h-294q-33 0 -56.5 23t-23.5 56z" />
<glyph unicode="," horiz-adv-x="524" d="M98 8l76 211q10 32 39.5 46t62.5 3q31 -11 45.5 -41t2.5 -61l-74 -211q-10 -32 -41 -46t-62 -3q-32 10 -46 40.5t-3 61.5z" />
<glyph unicode="-" horiz-adv-x="862" d="M113 819q0 33 23.5 56.5t56.5 23.5h477q34 0 57 -23t23 -57t-23 -57t-57 -23h-477q-33 0 -56.5 23.5t-23.5 56.5z" />
<glyph unicode="." horiz-adv-x="466" d="M113 80v113q0 33 23.5 56t56.5 23q34 0 56.5 -22.5t22.5 -56.5v-113q0 -33 -23 -56.5t-56 -23.5q-32 0 -56 24t-24 56z" />
<glyph unicode="/" horiz-adv-x="1124" d="M26.5 -105.5q-10.5 31.5 4.5 60.5l889 1798q15 31 46 41.5t62 -4.5q29 -15 39.5 -46.5t-4.5 -60.5l-889 -1798q-13 -31 -45 -41.5t-61 4.5q-31 15 -41.5 46.5z" />
<glyph unicode="0" horiz-adv-x="1306" d="M174 406v827q0 196 148 313q129 105 331 105q203 0 332 -105q148 -117 148 -313v-827q0 -197 -148 -314q-128 -104 -332 -104q-203 0 -331 104q-148 117 -148 314zM334 406q0 -55 18.5 -99.5t49.5 -74t72.5 -49t86 -28t92.5 -8.5q61 0 115.5 14t101 43.5t74 81.5 t27.5 120v827q0 55 -18.5 99.5t-49 73.5t-72 48.5t-86 28t-92.5 8.5t-92.5 -8.5t-86 -28t-72.5 -48.5t-49.5 -73.5t-18.5 -99.5v-827z" />
<glyph unicode="1" horiz-adv-x="897" d="M133 1171q0 33 23.5 56.5t56.5 23.5q68 0 120 28t81 75t43 101.5t14 115.5q0 33 23.5 56.5t56.5 23.5q34 0 57 -23t23 -57v-1503q0 -33 -23.5 -56.5t-56.5 -23.5q-32 0 -56 24t-24 56v1114q-107 -90 -258 -90q-32 0 -56 23.5t-24 55.5z" />
<glyph unicode="2" horiz-adv-x="1218" d="M123 43q-22 42 4 82q8 8 506 696q48 64 83 113t75 113t61.5 119t21.5 96q0 60 -24.5 106t-66.5 72t-91 38.5t-104 12.5q-113 0 -187.5 -46.5t-91.5 -129.5q-7 -32 -35.5 -50t-60.5 -12q-32 7 -49.5 35.5t-11.5 61.5q30 144 161 227q115 74 275 74q186 0 309 -97 q137 -110 137 -292q0 -93 -56 -201.5t-151 -239.5l-481 -661h670q33 0 56.5 -23.5t23.5 -56.5q0 -32 -24 -56t-56 -24h-823q-22 0 -41.5 11.5t-28.5 31.5z" />
<glyph unicode="3" horiz-adv-x="1193" d="M109 279q-11 31 3 61.5t44 42.5q32 11 62 -2.5t42 -44.5q34 -91 111.5 -140t187.5 -49q85 0 149 28t100 75t53.5 102t17.5 117q0 61 -17.5 117t-53.5 105t-101 78.5t-150 29.5q-32 0 -56 24t-24 58q0 32 24 56t56 24q69 0 121.5 24t82 64.5t44 86t14.5 95.5 q0 49 -14.5 93.5t-44 83t-81.5 61t-120 22.5q-100 0 -164.5 -46t-87.5 -132q-8 -31 -36 -48t-60 -8q-31 8 -49 37.5t-8 59.5q35 135 139 213q107 84 264 84q197 0 313 -125q109 -118 109 -295q0 -87 -28.5 -169t-80.5 -138q-20 -20 -41 -35q50 -30 86 -72q59 -62 92 -155 t33 -193q0 -207 -125 -338q-134 -143 -358 -143q-165 0 -283 80q-111 74 -165 211z" />
<glyph unicode="4" d="M135 342q-22 40 0 80l645 1188q15 29 47.5 38t61.5 -8q43 -22 43 -69v-1108h69q34 0 57 -23t23 -57t-23 -57t-57 -23h-69v-235q0 -32 -24 -56t-56 -24q-34 0 -58 24t-24 56v235h-565q-45 0 -70 39zM340 463h430v792z" />
<glyph unicode="5" horiz-adv-x="1245" d="M150 285q-11 31 3 60.5t46 41.5q31 11 61.5 -3t40.5 -44q34 -93 111 -143t188 -50q86 0 150.5 28t100.5 75t53.5 101.5t17.5 115.5q0 49 -10.5 95t-34.5 90t-60.5 76.5t-92 52.5t-124.5 20h-311q-37 0 -60 26q-23 23 -20 62l78 678q3 31 26 51t54 20h544q32 0 56 -23.5 t24 -55.5q0 -33 -23.5 -56.5t-56.5 -23.5h-473q-38 -313 -59 -518h223q221 0 356 -144q59 -64 91 -156.5t32 -193.5q0 -207 -123 -336q-134 -143 -358 -143q-163 0 -287 82q-111 77 -163 215z" />
<glyph unicode="6" horiz-adv-x="1273" d="M174 463v725q0 197 119 325q129 138 344 138q157 0 273 -77.5t163 -213.5q12 -34 -2.5 -63t-46.5 -40q-31 -10 -60.5 4.5t-41.5 45.5q-31 89 -104 136.5t-179 47.5q-81 0 -142 -26.5t-95.5 -71t-51 -96.5t-16.5 -109l-2 -350q111 123 319 123q222 0 357 -144 q59 -63 90.5 -155.5t31.5 -194.5q0 -208 -122 -336q-62 -70 -155 -106.5t-200 -36.5q-108 0 -201 36.5t-155 106.5q-120 126 -123 332zM334 467q0 -61 17.5 -115.5t53 -101.5t99 -75t147.5 -28q85 0 149 28t100 75t53.5 101.5t17.5 115.5q0 62 -17.5 118.5t-53.5 105.5 t-100 78.5t-149 29.5q-84 0 -147.5 -29.5t-99 -78.5t-53 -105.5t-17.5 -118.5z" />
<glyph unicode="7" horiz-adv-x="1103" d="M82 1559q0 32 24 55.5t56 23.5h747q40 0 66 -32q22 -36 10 -74l-504 -1489q-10 -32 -40.5 -47t-61.5 -4q-33 12 -46.5 42t-4.5 60l469 1385h-635q-33 0 -56.5 23.5t-23.5 56.5z" />
<glyph unicode="8" horiz-adv-x="1290" d="M164 469q0 133 54 244t155 176q-14 10 -39 35q-52 56 -80.5 138t-28.5 169q0 177 109 295q116 125 311 125t311 -125q109 -115 109 -295q0 -88 -28 -169.5t-81 -137.5q-28 -28 -38 -35q102 -63 155 -174.5t53 -245.5q0 -210 -122 -338q-134 -143 -359 -143t-356 143 q-125 131 -125 338zM324 469q0 -62 17.5 -117t53.5 -102t100 -75t150 -28t150.5 28t100.5 75t53.5 102t17.5 117q0 48 -10.5 93.5t-34.5 89.5t-60.5 76.5t-92 52.5t-124.5 20t-124.5 -20t-91.5 -52.5t-60.5 -76.5t-34.5 -89.5t-10 -93.5zM385 1231q0 -50 14 -95.5t43 -86 t81.5 -64.5t121.5 -24q67 0 118.5 23.5t81.5 63t45 86t15 97.5q0 50 -14 94t-43 82.5t-81.5 61t-121.5 22.5t-121.5 -22.5t-81.5 -61t-43 -82.5t-14 -94z" />
<glyph unicode="9" horiz-adv-x="1284" d="M154 1171q0 208 122 336q66 70 158 107t199 37q106 0 199 -37t155 -107q120 -126 123 -331v-725q0 -202 -128.5 -332.5t-334.5 -130.5q-157 0 -273 77.5t-163 213.5q-10 34 5 62.5t44 39.5q31 11 61.5 -3.5t40.5 -45.5q31 -89 104.5 -137t180.5 -48q65 0 117 18t86 47.5 t57 69t33 82t10 87.5v348q-121 -106 -319 -109q-220 3 -355 144q-122 131 -122 337zM313 1171q0 -62 17.5 -116.5t53.5 -101t100 -74t149 -27.5t148.5 27.5t99 74t52.5 101t17 116.5q0 61 -17 115.5t-52.5 101.5t-99 75t-148.5 28t-149 -28t-100 -75t-53.5 -101.5 t-17.5 -115.5z" />
<glyph unicode=":" horiz-adv-x="466" d="M113 68v112q0 33 23.5 56.5t56.5 23.5q34 0 56.5 -23t22.5 -57v-112q0 -33 -23 -56.5t-56 -23.5q-32 0 -56 24t-24 56zM113 967v112q0 33 23.5 56.5t56.5 23.5q34 0 56.5 -23t22.5 -57v-112q0 -33 -23 -56.5t-56 -23.5q-32 0 -56 24t-24 56z" />
<glyph unicode=";" horiz-adv-x="524" d="M98 -4l76 211q10 32 39.5 46t62.5 3q31 -11 45.5 -41t2.5 -61l-74 -211q-10 -32 -41 -46t-62 -3q-32 10 -46 40.5t-3 61.5zM131 967v112q0 32 24 56t56 24q33 0 56.5 -23.5t23.5 -56.5v-112q0 -34 -23 -57t-57 -23q-33 0 -56.5 23.5t-23.5 56.5z" />
<glyph unicode="&#x3c;" horiz-adv-x="995" d="M165 574.5q0 33.5 23 56.5l506 506q23 23 56.5 23t58.5 -23q22 -24 22.5 -56.5t-22.5 -56.5l-451 -451l451 -448q22 -25 22.5 -57t-22.5 -56q-25 -25 -58.5 -25t-56.5 25l-506 506q-23 23 -23 56.5z" />
<glyph unicode="=" horiz-adv-x="1052" d="M123 819q0 33 23.5 56.5t56.5 23.5h643q34 0 57 -23t23 -57t-23 -57t-57 -23h-643q-33 0 -56.5 23.5t-23.5 56.5zM127 549q0 33 23.5 56.5t56.5 23.5h643q34 0 57 -23t23 -57t-23 -57t-57 -23h-643q-33 0 -56.5 23.5t-23.5 56.5z" />
<glyph unicode="&#x3e;" horiz-adv-x="995" d="M163.5 68q0.5 32 22.5 57l451 448l-451 451q-23 24 -22.5 56.5t22.5 56.5q25 23 58.5 23t56.5 -23l506 -506q23 -23 23 -56.5t-23 -56.5l-506 -506q-23 -25 -56.5 -25t-58.5 25q-23 24 -22.5 56z" />
<glyph unicode="?" horiz-adv-x="1142" d="M61 1233q0 196 148 313q133 105 332 105q198 0 331 -105q148 -117 148 -313q0 -61 -15 -115.5t-36.5 -91.5t-55 -73t-59 -56t-61.5 -45q-39 -26 -76 -55q-29 -25 -47.5 -51.5t-28.5 -54.5t-14 -60.5t-4 -70v-81.5v-49q1 -33 -22 -56.5t-56 -25.5q-34 0 -58 24t-24 56v49 q1 47 0 91.5t6.5 91t22 89.5t45 87t75.5 82q20 19 90 67q40 27 64 47t48.5 51t35.5 70.5t10 91.5q-1 65 -29.5 114t-75 77t-100.5 41.5t-114 13.5q-61 0 -115.5 -14.5t-101.5 -43.5t-75 -80.5t-28 -119.5q0 -34 -23 -58t-57 -24q-32 0 -56 24t-24 58zM463 68v112q0 34 23 57 t57 23t57 -23t23 -57v-112q0 -33 -23.5 -56.5t-56.5 -23.5t-56.5 23.5t-23.5 56.5z" />
<glyph unicode="@" horiz-adv-x="1595" d="M154 545v549q0 130 49.5 237t144.5 180q175 140 449 140q269 0 448 -140q96 -73 146.5 -180t50.5 -237v-476q0 -132 -47 -206q-68 -103 -197 -103q-125 0 -188 72q-88 -72 -215 -72q-134 0 -220 77.5t-86 197.5v295q0 120 87 199t219 79q133 0 220 -79t87 -199v-261 q3 -16 3.5 -41.5t2 -41t9 -32t27.5 -24.5t54 -8q18 0 28.5 3t25 15t21.5 44.5t7 84.5v476q0 184 -135 292q-133 105 -348 105q-218 0 -351 -105q-133 -109 -133 -292v-549q0 -184 133 -293q65 -50 157 -77.5t194 -27.5q34 0 58 -22.5t24 -54.5q0 -34 -24 -58t-58 -24 q-271 0 -449 139q-194 156 -194 418zM651 584q0 -29 12 -51t28.5 -33t38 -18t36.5 -9t29 -2q18 0 38.5 4t47.5 14t44 34.5t17 60.5v295q0 59 -44 88.5t-103 29.5q-57 0 -100.5 -29.5t-43.5 -88.5v-295z" />
<glyph unicode="A" horiz-adv-x="1191" d="M76 90l442 1503q7 26 28.5 42t47.5 16q28 0 49.5 -16t28.5 -42l444 -1503q3 -11 3 -22q0 -19 -10 -38q-16 -29 -48 -38q-11 -3 -23 -3q-19 -1 -37 9q-29 16 -38 47l-115 387h-508l-113 -387q-9 -32 -37 -47q-18 -9 -37 -9q-12 0 -24 3q-32 9 -47 37q-9 18 -9 37 q0 12 3 24zM389 590h412l-207 700z" />
<glyph unicode="B" horiz-adv-x="1294" d="M205 80v1479q0 32 24 55.5t56 23.5h395q174 0 281 -129q98 -118 98 -290q0 -173 -98 -291q-6 -8 -21 -23q63 -38 107 -94q104 -132 104 -332t-104 -332q-116 -147 -316 -147h-446q-32 0 -56 24t-24 56zM365 160h366q68 0 120 27.5t81.5 74.5t44 101.5t14.5 115.5 t-14.5 115.5t-44 101.5t-81.5 75t-120 28h-366v-639zM365 958h315q72 0 123.5 39t73.5 96.5t22 125.5t-22 125t-73.5 96t-123.5 39h-315v-521z" />
<glyph unicode="C" horiz-adv-x="1234" d="M174 406v827q0 196 148 313q129 105 331 105q203 0 332 -105q148 -117 148 -313q0 -33 -23.5 -56.5t-56.5 -23.5q-34 0 -58 23t-24 57q0 55 -18.5 99.5t-49 73.5t-72 48.5t-86 28t-92.5 8.5t-92.5 -8.5t-86 -28t-72.5 -48.5t-49.5 -73.5t-18.5 -99.5v-827 q0 -55 18.5 -99.5t49.5 -74t72.5 -49t86 -28t92.5 -8.5q61 0 115.5 14t101 43.5t74 81.5t27.5 120q0 33 24 56t58 23q33 0 56.5 -23t23.5 -56q0 -197 -148 -314q-128 -104 -332 -104q-203 0 -331 104q-148 117 -148 314z" />
<glyph unicode="D" horiz-adv-x="1355" d="M205 80v1479q0 33 23.5 56t56.5 23h420q201 0 329 -104q148 -117 148 -313v-801q0 -129 -66 -226t-173 -145.5t-238 -48.5h-420q-32 0 -56 24t-24 56zM365 160h340q136 0 227 67t90 193v801q0 68 -27.5 120t-74 81t-100.5 43t-115 14h-340v-1319z" />
<glyph unicode="E" horiz-adv-x="1189" d="M205 80v1479q0 32 24 55.5t56 23.5h706q32 0 56 -23.5t24 -55.5q0 -33 -23.5 -56.5t-56.5 -23.5h-626v-518h573q34 0 58 -24t24 -58q0 -32 -24 -56t-58 -24h-573v-639h643q32 0 55.5 -23t23.5 -57q0 -32 -23.5 -56t-55.5 -24h-723q-32 0 -56 24t-24 56z" />
<glyph unicode="F" horiz-adv-x="1105" d="M205 68v1491q0 32 24 55.5t56 23.5h680q33 0 56 -23t23 -56q0 -34 -22.5 -57t-56.5 -23h-600v-518h561q24 0 45.5 -24.5t21.5 -57.5q0 -32 -24 -56t-56 -24h-548v-731q0 -33 -23.5 -56.5t-56.5 -23.5q-32 0 -56 24t-24 56z" />
<glyph unicode="G" horiz-adv-x="1306" d="M174 406v827q0 196 148 313q129 105 331 105q203 0 332 -105q148 -117 148 -313q0 -33 -23.5 -56.5t-56.5 -23.5q-34 0 -58 23t-24 57q0 55 -18.5 99.5t-49 73.5t-72 48.5t-86 28t-92.5 8.5t-92.5 -8.5t-86 -28t-72.5 -48.5t-49.5 -73.5t-18.5 -99.5v-827 q0 -55 18.5 -99.5t49.5 -74t72.5 -49t86 -28t92.5 -8.5q61 0 115.5 14t101 43.5t74 81.5t27.5 120v292h-320q-32 0 -56 24t-24 56q0 34 24 58t56 24h402q32 0 56 -24t24 -58v-372q0 -197 -148 -314q-128 -104 -332 -104q-203 0 -331 104q-148 117 -148 314z" />
<glyph unicode="H" horiz-adv-x="1318" d="M184 68v1503q0 34 23 57t57 23q33 0 56.5 -23.5t23.5 -56.5v-606h631v606q0 32 24 56t56 24q33 0 56.5 -23.5t23.5 -56.5v-1503q0 -34 -23 -57t-57 -23q-33 0 -56.5 23.5t-23.5 56.5v737h-631v-737q0 -32 -24 -56t-56 -24q-33 0 -56.5 23.5t-23.5 56.5z" />
<glyph unicode="I" horiz-adv-x="610" d="M225 68v1503q0 32 24 56t56 24q33 0 56.5 -23.5t23.5 -56.5v-1503q0 -33 -23.5 -56.5t-56.5 -23.5q-32 0 -56 24t-24 56z" />
<glyph unicode="J" horiz-adv-x="784" d="M51 68q0 33 23.5 56t56.5 23q61 0 115.5 14t101.5 43.5t75 81.5t28 120v1165q0 33 23 56.5t56 23.5t56.5 -23.5t23.5 -56.5v-1165q0 -129 -67 -226t-174.5 -144.5t-237.5 -47.5q-32 0 -56 24t-24 56z" />
<glyph unicode="K" horiz-adv-x="1241" d="M205 68v1503q0 32 24 56t56 24q33 0 56.5 -23.5t23.5 -56.5v-742l630 791q19 26 53 30q5 1 11 1q27 0 49 -19q26 -20 29.5 -53t-17.5 -59l-434 -545l473 -869q9 -18 9 -37q0 -12 -4 -24q-10 -32 -38 -47q-19 -11 -38 -11q-11 -1 -23 3q-32 10 -47 39l-440 811l-213 -269 v-503q0 -33 -23.5 -56.5t-56.5 -23.5q-32 0 -56 24t-24 56z" />
<glyph unicode="L" horiz-adv-x="1095" d="M205 80v1493q0 32 24 56t56 24q33 0 56.5 -23.5t23.5 -56.5v-1413h600q34 0 56.5 -23t22.5 -57q0 -33 -23 -56.5t-56 -23.5h-680q-32 0 -56 24t-24 56z" />
<glyph unicode="M" horiz-adv-x="1536" d="M184 68v1505q0 29 18 51.5t46 26.5q9 2 17 2q19 1 37 -9q25 -14 36 -40l426 -1024l424 1024q11 26 36 40q17 9 37 9q9 0 17 -2q28 -4 45.5 -26.5t17.5 -51.5v-1505q0 -33 -23 -56.5t-56 -23.5t-56.5 23.5t-23.5 56.5v1101l-344 -831q-9 -22 -29 -35.5t-45 -13.5t-45 13.5 t-29 35.5l-346 831v-1101q0 -33 -23.5 -56.5t-56.5 -23.5q-32 0 -56 24t-24 56z" />
<glyph unicode="N" horiz-adv-x="1380" d="M205 66v1505q0 28 16.5 49.5t44.5 28.5q9 2 18 2q18 0 34 -7q26 -11 38 -36q658 -1223 660 -1223v1186q0 32 24 56t56 24q33 0 56.5 -23.5t23.5 -56.5v-1503q0 -27 -16.5 -48.5t-43.5 -29.5q-28 -6 -53 5t-37 36l-661 1222v-1187q0 -33 -23.5 -56.5t-56.5 -23.5 q-32 0 -56 24t-24 56z" />
<glyph unicode="O" horiz-adv-x="1265" d="M154 406v827q0 197 147 313q129 105 332 105t332 -105q147 -122 147 -313v-827q0 -198 -147 -314q-128 -104 -332 -104t-332 104q-147 116 -147 314zM313 406q0 -68 28 -120t75 -81.5t101.5 -43.5t115.5 -14t115 14t100.5 43.5t74 81.5t27.5 120v681q-197 3 -323 105 q-134 106 -146 274q-168 -63 -168 -233v-827zM641 1491q6 -122 95.5 -182t213.5 -62q-6 122 -95.5 182t-213.5 62z" />
<glyph unicode="P" horiz-adv-x="1165" d="M205 68v1491q0 32 24 55.5t56 23.5h399q193 0 309 -143q101 -129 101 -324q0 -196 -101 -325q-116 -144 -309 -144h-319v-634q0 -33 -23.5 -56.5t-56.5 -23.5q-32 0 -56 24t-24 56zM365 862h327q64 0 112.5 27t75.5 73t40.5 98.5t13.5 110.5t-13.5 110.5t-42 98 t-78.5 72.5t-116 27h-319v-617z" />
<glyph unicode="Q" horiz-adv-x="1333" d="M154 406v827q0 197 147 313q129 105 332 105t332 -105q147 -116 147 -313v-827q0 -197 -147 -316q-79 -59 -172 -82q20 -61 70 -101t109 -56.5t126 -16.5q34 0 58 -23t24 -57q0 -32 -24 -56t-58 -24q-199 0 -332 105q-105 82 -135 209q-201 0 -330 102q-147 119 -147 316 zM313 393q3 -63 30.5 -111.5t72.5 -76.5t97 -42t110 -16q-2 64 -29.5 112.5t-72 76.5t-97 42t-111.5 15zM313 555q199 -3 324 -104q133 -105 145 -279q168 63 168 234v827q0 68 -27.5 120t-74 81t-100.5 43t-115 14t-115.5 -14t-101.5 -43t-75 -81t-28 -120v-678z" />
<glyph unicode="R" d="M205 68v1491q0 32 24 55.5t56 23.5h399q193 0 309 -143q101 -129 101 -324q0 -196 -101 -325q-79 -98 -190 -127l289 -617q8 -16 8 -34q0 -12 -4 -26q-12 -32 -41 -46q-17 -8 -34 -8q-15 0 -29 6q-32 12 -44 41l-315 667h-268v-634q0 -33 -23.5 -56.5t-56.5 -23.5 q-32 0 -56 24t-24 56zM365 862h319q66 0 116 26.5t78.5 72t42 98.5t13.5 112q0 58 -13.5 110.5t-42 98t-78.5 72.5t-116 27h-319v-617z" />
<glyph unicode="S" horiz-adv-x="1196" d="M115 348q-1 8 -1 15q0 24 15 45q20 27 53 30q34 6 59.5 -13.5t30.5 -53.5q9 -59 39.5 -102.5t66 -65t82 -34.5t75.5 -16t57 -3q62 0 119 17t104.5 49.5t76 87t28.5 122.5q0 134 -93 215q-87 78 -225 137l-72 29q-154 63 -241 133q-137 122 -137 307q0 190 131 303 q116 101 311 101q169 0 287 -76q126 -79 168 -236q8 -31 -9.5 -60t-50.5 -36q-11 -3 -21 -3q-21 0 -41 12q-29 16 -36 48q-12 49 -40 85.5t-60 56t-72 31.5t-68.5 15t-56.5 3q-31 0 -62 -4t-73 -19t-73 -40t-53 -72t-22 -109q0 -55 19 -98t59 -77.5t87 -60t118 -55.5l72 -30 q46 -19 79.5 -35t79.5 -42.5t79.5 -53t69 -66t58 -82.5t37 -100t14.5 -121q0 -96 -39.5 -180t-113.5 -144q-136 -114 -338 -114q-182 0 -307 84q-145 97 -170 276z" />
<glyph unicode="T" horiz-adv-x="1144" d="M51 1559q0 34 23 56.5t57 22.5h883q33 0 56.5 -23t23.5 -56t-23.5 -56.5t-56.5 -23.5h-363v-1411q0 -34 -23 -57t-57 -23q-33 0 -56 23t-23 57v1411h-361q-34 0 -57 23t-23 57z" />
<glyph unicode="U" horiz-adv-x="1368" d="M205 406v1165q0 32 24 56t56 24q33 0 56.5 -23.5t23.5 -56.5v-1165q0 -55 18.5 -99.5t49.5 -74t72.5 -49t86 -28t92.5 -8.5q61 0 115 14t100.5 43.5t74 81.5t27.5 120v1165q0 32 24 56t58 24q32 0 56 -24t24 -56v-1165q0 -198 -147 -314q-128 -104 -332 -104t-332 104 q-147 116 -147 314z" />
<glyph unicode="V" horiz-adv-x="1118" d="M76 1550q-3 10 -3 20q1 22 13 42q18 30 49 37q9 2 18 2q22 -1 42 -13q28 -18 36 -49l306 -1214l352 1218q9 31 37 47q18 10 38 10q11 0 23 -3q32 -9 48 -38q10 -19 10 -38q0 -11 -3 -23l-434 -1503q-7 -26 -29 -41.5t-49 -15.5q-28 0 -48.5 16.5t-26.5 44.5z" />
<glyph unicode="W" horiz-adv-x="1927" d="M76 1550q-3 10 -3 20q1 22 13 42q18 30 49 37q9 2 18 2q22 -1 42 -13q28 -18 36 -49l306 -1214l350 1218q6 26 28 42t50 16t48.5 -17t26.5 -45l306 -1214l352 1218q9 31 37.5 47t60.5 7t48 -38q10 -19 10 -38q0 -11 -3 -23l-434 -1503q-7 -26 -28.5 -41.5t-49.5 -15.5 t-48.5 16.5t-26.5 44.5l-306 1213l-350 -1217q-7 -26 -29 -41.5t-49 -15.5q-28 0 -48.5 16.5t-26.5 44.5z" />
<glyph unicode="X" horiz-adv-x="1142" d="M76 45q-3 11 -3 23q0 20 11 38l395 725l-383 701q-15 29 -5.5 61t38.5 47q19 11 39 11q12 0 22 -3q32 -9 48 -38l333 -613l334 613q17 29 49 38q11 3 21 3q20 0 39 -11q29 -15 38.5 -47t-5.5 -61l-383 -701l395 -725q11 -19 11 -38q0 -11 -4 -23q-10 -32 -38 -47 q-19 -11 -38 -11q-11 -1 -23 3q-32 10 -47 39l-349 635l-348 -635q-15 -29 -47 -39q-11 -3 -23 -3q-20 0 -38 11q-29 15 -39 47z" />
<glyph unicode="Y" horiz-adv-x="1216" d="M174 854v717q0 34 23 57t57 23t57 -23t23 -57v-717q0 -55 22.5 -96.5t60.5 -65t82.5 -34.5t94.5 -11t93.5 11t81.5 34.5t60.5 65t22.5 96.5v717q0 33 23.5 56.5t56.5 23.5q34 0 57 -23t23 -57v-1217q0 -172 -129 -276q-116 -90 -289 -90q-167 0 -280 82.5t-136 222.5 q-5 33 15 59.5t53 30.5q32 6 58.5 -14t31.5 -52q9 -59 51.5 -99t94.5 -55.5t112 -15.5q106 0 182 51t76 156v201q-106 -68 -258 -68q-174 0 -291 91q-129 104 -129 276z" />
<glyph unicode="Z" horiz-adv-x="1099" d="M72 1559q0 32 24 55.5t56 23.5h796q34 0 57 -22.5t23 -56.5q0 -23 -8 -39l-733 -1360h661q34 0 57 -23t23 -57q0 -33 -23.5 -56.5t-56.5 -23.5h-796q-46 0 -68 39q-12 19 -12 40q0 19 10 40l733 1360h-663q-33 0 -56.5 23.5t-23.5 56.5z" />
<glyph unicode="[" horiz-adv-x="821" d="M246 -240v1958q0 32 24 56t56 24h333q32 0 56 -24t24 -56q0 -33 -23.5 -56.5t-56.5 -23.5h-253v-1798h253q33 0 56.5 -23.5t23.5 -56.5q0 -32 -24 -55.5t-56 -23.5h-333q-32 0 -56 23.5t-24 55.5z" />
<glyph unicode="\" horiz-adv-x="1114" d="M46.5 1743.5q10.5 31.5 41.5 46.5q29 15 61.5 4t45.5 -41l888 -1798q15 -29 5 -60.5t-39 -46.5q-31 -15 -62.5 -4.5t-46.5 41.5l-889 1798q-15 29 -4.5 60.5z" />
<glyph unicode="]" horiz-adv-x="821" d="M82 -240q0 33 23.5 56.5t56.5 23.5h254v1798h-254q-33 0 -56.5 23.5t-23.5 56.5q0 32 24 56t56 24h334q32 0 55.5 -24t23.5 -56v-1958q0 -32 -23.5 -55.5t-55.5 -23.5h-334q-32 0 -56 23.5t-24 55.5z" />
<glyph unicode="^" horiz-adv-x="1300" d="M71 1074q0 33 25 56l498 498q23 23 56.5 23t56.5 -23l497 -498q23 -23 23 -56t-23 -58q-24 -22 -56 -22.5t-56 22.5l-443 442l-440 -442q-25 -22 -57 -22.5t-56 22.5q-25 25 -25 58z" />
<glyph unicode="_" d="M113 80q0 33 23.5 56.5t56.5 23.5h839q34 0 57 -23t23 -57t-23 -57t-57 -23h-839q-33 0 -56.5 23.5t-23.5 56.5z" />
<glyph unicode="`" horiz-adv-x="514" d="M98 1544q-11 31 3 62t46 41q31 11 62 -3.5t41 -46.5l74 -211q12 -31 -2.5 -61t-45.5 -41q-33 -11 -62.5 3t-39.5 46z" />
<glyph unicode="a" d="M143 356v422q0 176 129 283q118 98 291 98q175 0 293 -98q129 -110 129 -283v-452q0 -23 4 -46.5t16 -57t42.5 -54.5t76.5 -21q34 0 57 -22.5t23 -56.5q0 -33 -23.5 -56.5t-56.5 -23.5q-155 0 -237 121q-21 -21 -33 -31q-116 -90 -291 -90t-291 90q-129 104 -129 278z M303 356q0 -73 40 -122t96.5 -68t123.5 -19q50 0 94.5 11.5t82.5 35t60.5 65.5t22.5 97v422q0 108 -76.5 164.5t-183.5 56.5t-183.5 -56.5t-76.5 -164.5v-422z" />
<glyph unicode="b" horiz-adv-x="1146" d="M164 356v424v791q0 32 24 56t56 24q33 0 56.5 -23.5t23.5 -56.5v-486q113 74 260 74q172 0 290 -98q130 -108 130 -281v-424q0 -173 -130 -278q-116 -90 -290 -90q-175 0 -291 90q-129 104 -129 278zM324 356q0 -73 40 -122t96.5 -68t123.5 -19t123.5 19t96.5 68t40 122 v424q0 72 -39 123.5t-96 73.5t-125 22t-125 -22t-96 -73.5t-39 -123.5v-424z" />
<glyph unicode="c" horiz-adv-x="1114" d="M143 356v424q0 177 129 281q118 98 291 98q160 0 274 -84.5t140 -222.5q6 -32 -13 -59t-53 -33q-32 -6 -59 12.5t-33 50.5q-15 80 -85 128t-171 48q-68 0 -125 -22t-96 -73.5t-39 -123.5v-424q0 -73 40 -122t96.5 -68t123.5 -19q60 0 112 15.5t93.5 56t50.5 100.5 q6 33 33 52.5t59 13.5q32 -5 52 -31q17 -22 17 -48q0 -5 -1 -11q-22 -139 -135.5 -223t-280.5 -84q-175 0 -291 90q-129 104 -129 278z" />
<glyph unicode="d" horiz-adv-x="1226" d="M143 356v422q0 173 129 283q118 98 293 98q147 0 260 -74v486q0 33 23.5 56.5t56.5 23.5t56.5 -23.5t23.5 -56.5v-1245q0 -17 2 -35t10.5 -45.5t22.5 -48t41.5 -35.5t64.5 -15q33 0 56.5 -23t23.5 -56t-23.5 -56.5t-56.5 -23.5q-155 0 -237 118q-6 -6 -18.5 -15.5 t-16.5 -12.5q-113 -90 -289 -90q-175 0 -291 90q-131 104 -131 278zM305 356q0 -55 22.5 -97t60.5 -65.5t82.5 -35t94.5 -11.5q67 0 123.5 19t96.5 68t40 122v422q0 107 -77 164t-183 57t-183 -57t-77 -164v-422z" />
<glyph unicode="e" horiz-adv-x="1105" d="M143 356v424q0 177 129 281q118 98 291 98t291 -98q129 -104 129 -281v-137q0 -28 -18 -51t-47 -27l-615 -116v-93q0 -73 40 -122t96.5 -68t123.5 -19q60 0 112 15.5t93.5 56t50.5 100.5q6 33 33 52.5t59 13.5q32 -5 52 -31.5t16 -58.5q-22 -139 -135.5 -223t-280.5 -84 q-175 0 -291 90q-129 104 -129 278zM303 612q313 57 520 99v69q0 72 -39 123.5t-96 73.5t-125 22t-125 -22t-96 -73.5t-39 -123.5v-168z" />
<glyph unicode="f" horiz-adv-x="811" d="M61 1067q0 33 23.5 56.5t56.5 23.5h129v123q0 174 129 282q119 99 291 99q33 0 56.5 -23.5t23.5 -56.5q0 -34 -23 -57t-57 -23q-107 0 -183.5 -56.5t-76.5 -164.5v-123h209q34 0 57 -23t23 -57q0 -33 -23.5 -56.5t-56.5 -23.5h-209v-919q0 -33 -23.5 -56.5t-56.5 -23.5 q-32 0 -56 24t-24 56v919h-129q-32 0 -56 24t-24 56z" />
<glyph unicode="g" horiz-adv-x="1308" d="M143 780q0 176 127 281q118 98 293 98q215 0 336 -145q103 145 289 145q33 0 56.5 -23.5t23.5 -56.5q0 -34 -23 -57t-57 -23q-105 0 -156 -76t-51 -182v-858q0 -175 -129 -276q-116 -90 -289 -90q-167 0 -280 82.5t-136 222.5q-5 33 15 59.5t53 30.5q32 6 58.5 -14 t31.5 -52q9 -60 51 -100t94 -55t113 -15q50 0 93.5 11t81.5 34.5t60.5 65t22.5 96.5l2 174q-110 -69 -258 -69q-175 0 -291 90q-129 104 -129 276zM303 780l2 -426q0 -72 39.5 -120.5t96 -67.5t124.5 -19q106 0 182 51t76 156l-2 426q0 72 -39 123.5t-95.5 73.5t-123.5 22 q-68 0 -125 -22t-96 -73.5t-39 -123.5z" />
<glyph unicode="h" horiz-adv-x="1157" d="M174 68v1503q0 32 24 56t56 24q33 0 56.5 -23.5t23.5 -56.5v-488q112 76 260 76q173 0 291 -98q129 -108 129 -283v-710q0 -32 -24 -56t-56 -24q-33 0 -56.5 23.5t-23.5 56.5v710q0 107 -77 164t-183 57t-183 -57t-77 -164v-710q0 -33 -23.5 -56.5t-56.5 -23.5 q-32 0 -56 24t-24 56z" />
<glyph unicode="i" horiz-adv-x="530" d="M184 68v1011q0 34 24 57t58 23q33 0 56.5 -23.5t23.5 -56.5v-1011q0 -32 -24 -56t-56 -24q-34 0 -58 24t-24 56zM184 1458v113q0 32 24 56t58 24q32 0 56 -24t24 -56v-113q0 -33 -23.5 -56.5t-56.5 -23.5q-34 0 -58 23t-24 57z" />
<glyph unicode="j" horiz-adv-x="593" d="M-92 -403q0 32 24 55.5t56 23.5q39 0 75 6.5t70.5 22t59.5 39t40 59t15 80.5v1196q0 33 23.5 56.5t56.5 23.5t56.5 -23.5t23.5 -56.5v-1196q1 -170 -121.5 -268t-298.5 -98q-33 0 -56.5 23.5t-23.5 56.5zM248 1458v113q0 33 23.5 56.5t56.5 23.5t56.5 -23.5t23.5 -56.5 v-113q0 -33 -23.5 -56.5t-56.5 -23.5t-56.5 23.5t-23.5 56.5z" />
<glyph unicode="k" horiz-adv-x="1015" d="M174 68v1503q0 33 23.5 56.5t56.5 23.5q34 0 57 -23t23 -57v-922l450 481q23 25 56.5 26.5t56.5 -21.5q25 -23 26 -55.5t-22 -57.5l-311 -334l342 -579q11 -19 11 -40q-1 -9 -3 -21q-8 -32 -37 -50q-20 -11 -40 -11q-11 0 -21 3q-31 9 -49 37l-316 538l-143 -151v-346 q0 -33 -23.5 -56.5t-56.5 -23.5q-32 0 -56 24t-24 56z" />
<glyph unicode="l" horiz-adv-x="663" d="M143 352v1219q0 34 23 57t57 23q33 0 56.5 -23.5t23.5 -56.5v-1219q0 -105 76 -156t182 -51q34 0 58 -23t24 -56q0 -34 -24 -57t-58 -23q-173 0 -289 90q-129 104 -129 276z" />
<glyph unicode="m" horiz-adv-x="1841" d="M174 68v1009q0 33 23.5 56.5t56.5 23.5q32 0 55 -21.5t25 -52.5q112 76 260 76q175 0 293 -98q28 -25 49 -49q21 24 49 49q118 98 291 98q175 0 293 -98q129 -110 129 -283v-710q0 -32 -24 -56t-58 -24q-32 0 -56 24t-24 56v710q0 72 -39 123.5t-96 73.5t-125 22 t-125 -22t-96 -73.5t-39 -123.5v-710q0 -33 -23.5 -56.5t-56.5 -23.5q-34 0 -58 24t-24 56v710q0 107 -76 163t-184 56q-68 0 -125 -22t-96 -73.5t-39 -123.5v-710q0 -33 -23.5 -56.5t-56.5 -23.5q-32 0 -56 24t-24 56z" />
<glyph unicode="n" horiz-adv-x="1159" d="M174 68v1009q0 33 23.5 56.5t56.5 23.5q32 0 55 -21.5t25 -52.5q112 76 260 76q175 0 293 -98q129 -110 129 -283v-710q0 -32 -24 -56t-56 -24q-34 0 -58 24t-24 56v710q0 107 -76 163t-184 56q-68 0 -125 -22t-96 -73.5t-39 -123.5v-710q0 -33 -23.5 -56.5t-56.5 -23.5 q-32 0 -56 24t-24 56z" />
<glyph unicode="o" horiz-adv-x="1128" d="M143 356v424q0 177 129 281q118 98 291 98q175 0 293 -98q129 -107 129 -281v-424q0 -174 -131 -278q-116 -90 -291 -90q-176 0 -289 90q-131 104 -131 278zM303 356q0 -73 40 -122t96.5 -68t123.5 -19q50 0 94.5 11.5t82.5 35t60.5 65.5t22.5 97v275q-168 3 -280 92 q-117 91 -129 242q-111 -62 -111 -185v-424zM571 999q1 -71 39.5 -119t92.5 -67t120 -20q-4 98 -77 151t-175 55z" />
<glyph unicode="p" horiz-adv-x="1159" d="M184 -401v1466q0 33 23.5 56.5t56.5 23.5q28 0 49.5 -16t28.5 -42q110 72 262 72q175 0 291 -90q131 -104 131 -278v-422q0 -173 -129 -283q-118 -98 -293 -98q-148 0 -260 73v-462q0 -34 -23 -58t-57 -24q-32 0 -56 24t-24 58zM344 369q0 -107 77 -164.5t183 -57.5 q107 0 183.5 57.5t76.5 164.5v422q0 55 -22.5 97t-60.5 65.5t-82.5 34.5t-94.5 11q-68 0 -124 -19t-96 -67.5t-40 -121.5v-422z" />
<glyph unicode="q" horiz-adv-x="1159" d="M133 369v422q0 174 131 278q113 90 289 90q154 0 264 -72q7 26 28.5 42t49.5 16q33 0 56.5 -23.5t23.5 -56.5l-2 -1466q0 -34 -24 -58t-56 -24q-34 0 -58 24t-24 58l2 462q-112 -73 -260 -73q-173 0 -291 98q-129 108 -129 283zM293 369q0 -107 77 -164.5t183 -57.5 q107 0 183.5 57.5t76.5 164.5v422q0 55 -22.5 97t-60.5 65.5t-82.5 34.5t-94.5 11q-68 0 -124 -19t-96 -67.5t-40 -121.5v-422z" />
<glyph unicode="r" horiz-adv-x="663" d="M164 68v1011q0 33 23.5 56.5t56.5 23.5q29 0 51.5 -18.5t28.5 -46.5q86 65 208 65q34 0 57 -24t23 -58q0 -33 -23.5 -56.5t-56.5 -23.5q-55 0 -97 -22.5t-65.5 -60.5t-34.5 -82.5t-11 -94.5v-669q0 -33 -23.5 -56.5t-56.5 -23.5q-32 0 -56 24t-24 56z" />
<glyph unicode="s" horiz-adv-x="995" d="M115 266q-1 8 -1 16q0 24 14 44q19 28 52 34q7 1 14 1q26 1 47 -15q27 -20 31 -53q8 -47 37 -79t68 -45t66.5 -17.5t52.5 -4.5q93 0 160 46t67 139q0 134 -240 182q-150 27 -233 82q-115 80 -115 227q0 155 115 250q103 86 256 86q126 0 220.5 -60t131.5 -163 q10 -31 -4 -60.5t-45 -41.5q-31 -11 -61.5 3.5t-40.5 45.5q-19 53 -73 83.5t-128 30.5q-53 0 -98.5 -15.5t-79 -56.5t-33.5 -102q0 -40 15.5 -64.5t64 -46.5t139.5 -40q192 -41 279 -123q43 -40 66.5 -99t23.5 -122q0 -78 -33 -146t-88 -110q-104 -84 -266 -84 q-152 0 -255.5 76t-125.5 202z" />
<glyph unicode="t" horiz-adv-x="780" d="M51 1065q0 34 24 58t56 24h129v424q0 32 24 56t56 24q33 0 56.5 -23.5t23.5 -56.5v-424h129q34 0 57 -24t23 -58q0 -32 -23 -55t-57 -23h-129v-633q0 -105 76 -156t182 -51q34 0 58 -23t24 -56q0 -34 -24 -57t-58 -23q-173 0 -289 90q-129 104 -129 276v633h-129 q-32 0 -56 23t-24 55z" />
<glyph unicode="u" horiz-adv-x="1148" d="M154 356v723q0 33 23 56.5t56 23.5q34 0 57 -23t23 -57v-723q0 -73 40 -122t96.5 -68t123.5 -19q68 0 124.5 19t96.5 68t40 122v723q0 34 23.5 57t57.5 23q33 0 56.5 -23.5t23.5 -56.5v-723q0 -174 -131 -278q-116 -90 -291 -90t-288 90q-131 104 -131 278z" />
<glyph unicode="v" horiz-adv-x="997" d="M78 1053q-4 13 -4 26q0 17 8 35q14 30 45 41q13 4 26 4q17 0 35 -8q30 -14 41 -45l269 -791l268 791q10 32 40 46q17 8 35 8q13 0 27 -5q32 -11 47 -41q9 -18 9 -36q0 -12 -4 -25l-347 -1010q-7 -25 -28 -40t-47 -15q-25 0 -46 15t-30 40z" />
<glyph unicode="w" horiz-adv-x="1685" d="M78 1053q-5 14 -5 27q0 18 9 35q15 30 47 40q13 5 26 5q17 0 35 -8q30 -14 39 -46l269 -791l268 791q9 24 30 38.5t48 14.5q25 0 46 -14.5t30 -38.5l268 -791l268 791q11 31 41 45q18 8 36 8q13 0 26 -4q31 -11 45 -41q8 -17 8 -35q0 -13 -4 -26l-344 -1010 q-9 -25 -29.5 -40t-46.5 -15t-47.5 15t-28.5 40l-268 786l-271 -786q-7 -25 -28 -40t-47 -15q-25 0 -46 15t-30 40z" />
<glyph unicode="x" horiz-adv-x="1103" d="M124 54q-1 8 -1 15q0 24 14 44l318 467l-310 452q-19 28 -13 60.5t34 52.5q20 14 43 14q7 0 17 -2q32 -7 53 -35l272 -401l274 401q21 28 53 35q9 2 17 2q23 0 43 -14q28 -20 33.5 -52.5t-13.5 -60.5l-309 -452l318 -467q14 -20 14 -44q0 -8 -1 -15q-6 -33 -34 -52 q-21 -14 -45 -14q-7 0 -15 1q-32 6 -52 34l-283 413l-281 -413q-20 -28 -52 -34q-8 -1 -15 -1q-24 0 -45 14q-28 19 -34 52z" />
<glyph unicode="y" horiz-adv-x="1155" d="M143 354v725q0 34 23 57t57 23t57 -23t23 -57v-725q0 -72 39.5 -120.5t96 -67.5t124.5 -19q106 0 182 51t76 156v725q0 33 23.5 56.5t56.5 23.5q34 0 57 -23t23 -57v-1194q0 -114 -58.5 -199t-152.5 -127t-207 -42q-167 0 -280 83.5t-136 221.5q-1 7 -1 14q0 26 16 47 q19 27 53 31q32 5 59 -14.5t31 -51.5q14 -88 88 -130t170 -42q67 0 123 19t95.5 68t39.5 122v172q-107 -69 -258 -69q-177 0 -298.5 98t-121.5 268z" />
<glyph unicode="z" horiz-adv-x="1079" d="M123 1067q0 33 23.5 56.5t56.5 23.5h674q47 0 69 -43q10 -16 10 -34q0 -22 -14 -48l-588 -862h523q33 0 56 -23t23 -57q0 -32 -23.5 -56t-55.5 -24h-674q-22 0 -41.5 11.5t-28.5 31.5q-10 21 -10 40q0 23 14 42l586 862h-520q-33 0 -56.5 23.5t-23.5 56.5z" />
<glyph unicode="{" horiz-adv-x="1003" d="M72 778q0 32 24 56t56 24q119 0 159 55q41 52 41 203v264q0 197 148 314q128 104 331 104q33 0 56.5 -23.5t23.5 -56.5q0 -34 -23 -57t-57 -23q-61 0 -115 -14t-100.5 -43t-74 -81t-27.5 -120v-264q0 -199 -74 -301q-5 -5 -16 -18t-18 -19q4 -4 34 -39q74 -99 74 -299 v-342q0 -68 27.5 -120t74 -81t100.5 -43t115 -14q34 0 57 -23t23 -57q0 -32 -23.5 -55.5t-56.5 -23.5q-203 0 -331 104q-148 117 -148 313v342q0 151 -41 203q-40 55 -159 55q-33 0 -56.5 23.5t-23.5 56.5z" />
<glyph unicode="|" horiz-adv-x="753" d="M297 68v1503q0 32 24 56t56 24q33 0 56.5 -23.5t23.5 -56.5v-1503q0 -34 -23 -57t-57 -23q-33 0 -56.5 23.5t-23.5 56.5z" />
<glyph unicode="}" horiz-adv-x="1003" d="M92 -240q0 34 23 57t57 23q61 0 115 14t100.5 43t74 81t27.5 120v342q0 199 74 301q4 4 16 17.5t19 19.5q-11 11 -35 39q-74 99 -74 299l5 264q0 55 -18.5 99.5t-49 73.5t-72 48.5t-86 28t-92.5 8.5q-34 0 -57 23t-23 57q0 33 23.5 56.5t56.5 23.5q204 0 332 -104 q147 -116 147 -314l-4 -264q0 -151 41 -203q40 -55 160 -55q33 0 56.5 -23.5t23.5 -56.5q0 -32 -24 -56t-56 -24q-120 0 -160 -55q-41 -52 -41 -203v-342q0 -197 -147 -313q-128 -104 -332 -104q-34 0 -57 23.5t-23 55.5z" />
<glyph unicode="~" horiz-adv-x="931" d="M124.5 748.5q-3.5 32.5 16.5 58.5q51 60 126 81.5t149 -3.5l151 -51q59 -20 99 26q22 26 54 29t58 -19q26 -20 29 -53t-19 -59q-50 -60 -124 -81.5t-148 3.5l-151 53q-26 9 -54 1.5t-45 -29.5q-22 -25 -54.5 -28.5t-57.5 17.5q-26 22 -29.5 54.5z" />
<glyph unicode="&#xa1;" horiz-adv-x="569" d="M205 68v1142q0 34 23 57t57 23q33 0 56.5 -23.5t23.5 -56.5v-1142q0 -32 -24 -56t-56 -24q-33 0 -56.5 23.5t-23.5 56.5zM205 1458v113q0 33 23.5 56.5t56.5 23.5q32 0 56 -24t24 -56v-113q0 -32 -24 -56t-56 -24q-33 0 -56.5 23.5t-23.5 56.5z" />
<glyph unicode="&#xa2;" horiz-adv-x="1114" d="M143 356v424q0 177 129 281q90 74 211 92v176q0 33 23.5 56.5t56.5 23.5t56.5 -23.5t23.5 -56.5v-176q131 -20 221 -100.5t113 -200.5q6 -32 -13 -59t-53 -33q-32 -6 -59 12.5t-33 50.5q-15 80 -85 128t-171 48q-68 0 -125 -22t-96 -73.5t-39 -123.5v-424q0 -73 40 -122 t96.5 -68t123.5 -19q60 0 112 15.5t93.5 56t50.5 100.5q6 33 33 52.5t59 13.5q32 -5 52 -31.5t16 -58.5q-20 -123 -109.5 -202.5t-226.5 -98.5v-166q0 -33 -23.5 -56.5t-56.5 -23.5t-56.5 23.5t-23.5 56.5v166q-124 15 -211 84q-129 104 -129 278z" />
<glyph unicode="&#xa3;" horiz-adv-x="1411" d="M123 80q0 33 23.5 56.5t56.5 23.5q102 0 155 59q54 54 54 148v290h-207q-33 0 -56.5 23.5t-23.5 56.5q0 34 23 57t57 23h207v432q0 170 104 283q107 116 299 119q157 3 270 -92q52 -45 89.5 -113t37.5 -133q0 -30 -18.5 -52t-48.5 -26q-32 -6 -59 12.5t-33 52.5 q-13 90 -76 140.5t-162 50.5q-65 0 -113.5 -21t-76 -56.5t-41 -77t-13.5 -87.5v-432h383q34 0 57 -23t23 -57q0 -33 -23.5 -56.5t-56.5 -23.5h-383v-290q0 -114 -55 -207h741q34 0 58 -23t24 -57q0 -32 -24 -56t-58 -24h-1052h-2q-32 0 -56 24t-24 56z" />
<glyph unicode="&#xa5;" horiz-adv-x="1175" d="M107 1593q9 32 38 47q29 17 60.5 8t48.5 -38l334 -613l334 613q15 29 47 38t61 -8q29 -15 38 -47t-5 -61l-334 -608h256q34 0 58 -24t24 -56q0 -34 -24 -58t-58 -24h-317v-131h317q34 0 58 -24t24 -58q0 -32 -24 -56t-58 -24h-317v-401q0 -32 -24 -56t-56 -24 q-33 0 -56.5 23.5t-23.5 56.5v401h-320q-32 0 -55.5 24t-23.5 56q0 34 23.5 58t55.5 24h320v131h-320q-32 0 -55.5 24t-23.5 58q0 32 23.5 56t55.5 24h258l-333 608q-15 29 -6 61z" />
<glyph unicode="&#xa6;" horiz-adv-x="589" d="M225 68v194q0 33 23.5 56.5t56.5 23.5q34 0 57 -23t23 -57v-194q0 -33 -23.5 -56.5t-56.5 -23.5q-32 0 -56 24t-24 56zM225 883v194q0 33 23.5 56.5t56.5 23.5q34 0 57 -23t23 -57v-194q0 -33 -23.5 -56.5t-56.5 -23.5q-32 0 -56 24t-24 56z" />
<glyph unicode="&#xa7;" horiz-adv-x="1095" d="M154 733q0 112 44 186t124 140q-127 111 -127 258q0 156 114 250q105 84 256 84q126 0 219.5 -59t130.5 -162q12 -31 -2 -61.5t-45 -41.5q-32 -11 -62 2.5t-40 44.5q-20 54 -74 85.5t-127 31.5q-53 0 -98.5 -15.5t-79 -56.5t-33.5 -102q0 -68 56 -121t184 -121 q91 -48 150.5 -88t107 -88.5t69 -103.5t21.5 -123q0 -78 -25 -142t-58 -103t-85 -83q127 -108 127 -256q0 -155 -115 -250q-105 -84 -256 -84q-126 0 -220.5 59t-131.5 162q-11 31 3.5 62t45.5 41q31 11 62 -3t41 -46q19 -53 73 -84t127 -31q52 0 97.5 15.5t79.5 56.5 t34 102q0 68 -55.5 120t-185.5 122q-91 48 -150 87.5t-106 88t-68.5 103.5t-21.5 124zM313 733q0 -46 18 -80.5t75.5 -78.5t168.5 -103q51 -28 58 -33q84 65 116.5 111.5t32.5 122.5q0 46 -18.5 80.5t-76 78.5t-167.5 103q-27 15 -59 31q-83 -63 -115.5 -109.5t-32.5 -122.5 z" />
<glyph unicode="&#xa8;" horiz-adv-x="727" d="M102 1458v113q0 33 23.5 56.5t56.5 23.5q34 0 57 -23t23 -57v-113q0 -33 -23.5 -56.5t-56.5 -23.5q-32 0 -56 24t-24 56zM465 1458v113q0 33 23.5 56.5t56.5 23.5q34 0 57 -23t23 -57v-113q0 -33 -23.5 -56.5t-56.5 -23.5q-32 0 -56 24t-24 56z" />
<glyph unicode="&#xa9;" horiz-adv-x="1847" d="M92 819q0 167 67 320.5t179 265.5t265.5 179t320.5 67t320.5 -67t265.5 -179t178.5 -265.5t66.5 -320.5t-66.5 -320.5t-178.5 -265.5t-265.5 -178.5t-320.5 -66.5t-320.5 66.5t-265.5 178.5t-179 265.5t-67 320.5zM240 819q0 -182 93 -340t251 -251t340 -93t340 93 t251 251t93 340t-93 340t-251 251t-340 93t-340 -93t-251 -251t-93 -340zM614 588v481q0 120 86 196t222 76t221.5 -76t85.5 -196q0 -31 -21.5 -52.5t-52.5 -21.5t-52.5 21.5t-21.5 52.5q0 40 -18.5 67t-48 38t-50.5 14.5t-42 3.5t-42 -3.5t-51 -14.5t-48.5 -38t-18.5 -67 v-481q0 -40 19 -67.5t48.5 -38.5t51 -15t41.5 -4t41.5 4t51 15t48 38.5t18.5 67.5q0 31 21.5 52.5t52.5 21.5t52.5 -21.5t21.5 -52.5q0 -120 -85.5 -196.5t-221.5 -76.5t-222 76.5t-86 196.5z" />
<glyph unicode="&#xab;" horiz-adv-x="1157" d="M123 692.5q0 32.5 24 57.5l388 387q23 23 56 23t58 -23q22 -24 22.5 -56.5t-22.5 -56.5l-332 -332l332 -332q23 -24 22.5 -56t-22.5 -56q-25 -23 -58 -23t-56 23l-388 387q-24 25 -24 57.5zM485 692.5q0 32.5 23 57.5l389 387q23 23 56.5 23t56.5 -23t23 -57t-23 -56 l-332 -332l332 -332q23 -22 23 -55.5t-23 -56.5t-56.5 -23t-56.5 23l-389 387q-23 25 -23 57.5z" />
<glyph unicode="&#xac;" horiz-adv-x="1030" d="M41 850q0 33 23.5 56.5t56.5 23.5h788q33 0 56.5 -23.5t23.5 -56.5v-246q0 -33 -23.5 -56.5t-56.5 -23.5q-32 0 -56 24t-24 56v166h-708q-34 0 -57 23t-23 57z" />
<glyph unicode="&#xad;" horiz-adv-x="862" d="M113 819q0 33 23.5 56.5t56.5 23.5h477q34 0 57 -23t23 -57t-23 -57t-57 -23h-477q-33 0 -56.5 23.5t-23.5 56.5z" />
<glyph unicode="&#xae;" horiz-adv-x="1847" d="M92 819q0 167 67 320.5t179 265.5t265.5 179t320.5 67t320.5 -67t265.5 -179t178.5 -265.5t66.5 -320.5t-66.5 -320.5t-178.5 -265.5t-265.5 -178.5t-320.5 -66.5t-320.5 66.5t-265.5 178.5t-179 265.5t-67 320.5zM240 819q0 -182 93 -340t251 -251t340 -93t340 93 t251 251t93 340t-93 340t-251 251t-340 93t-340 -93t-251 -251t-93 -340zM666 387v870q0 31 21 52.5t52 21.5h236q118 0 192 -84.5t74 -216.5q0 -101 -43 -175.5t-119 -106.5l156 -328q12 -28 2 -57t-37 -41q-29 -13 -57.5 -3.5t-40.5 37.5l-174 371h-115v-340 q0 -30 -22 -52t-52 -22t-51.5 22t-21.5 52zM813 874h162q39 0 65 18t36.5 47t14 50t3.5 41t-3.5 40t-14 49t-36.5 47t-65 18h-162v-310z" />
<glyph unicode="&#xaf;" horiz-adv-x="1019" d="M92 1563q0 33 23.5 56t56.5 23h676q34 0 57 -22.5t23 -56.5t-23 -57t-57 -23h-676q-33 0 -56.5 23.5t-23.5 56.5z" />
<glyph unicode="&#xb0;" horiz-adv-x="800" d="M72 1323q0 136 96 232t233 96q135 0 231.5 -96t96.5 -232q0 -135 -96.5 -231.5t-231.5 -96.5q-136 0 -232.5 96.5t-96.5 231.5zM219 1323q0 -75 53.5 -128.5t128.5 -53.5t128 53.5t53 128.5t-53 128.5t-128 53.5t-128.5 -53.5t-53.5 -128.5z" />
<glyph unicode="&#xb1;" horiz-adv-x="1077" d="M113 80q0 33 23.5 56.5t56.5 23.5h692q34 0 57 -23t23 -57t-23 -57t-57 -23h-692q-33 0 -56.5 23.5t-23.5 56.5zM119 743q0 33 23.5 56.5t56.5 23.5h254v254q0 34 24 58t58 24q32 0 55.5 -24t23.5 -58v-254h254q34 0 57 -23t23 -57t-23 -56.5t-57 -22.5h-254v-254 q0 -34 -23.5 -58t-55.5 -24q-34 0 -58 24t-24 58v254h-254q-33 0 -56.5 23t-23.5 56z" />
<glyph unicode="&#xb4;" horiz-adv-x="716" d="M78 1421q-10 32 5 61t46 40l412 125q30 10 59.5 -5.5t40.5 -46.5q9 -32 -6.5 -61.5t-46.5 -38.5l-412 -127q-31 -9 -60 6t-38 47z" />
<glyph unicode="&#xb6;" horiz-adv-x="1021" d="M113 1376q0 109 77.5 185.5t186.5 76.5h360q33 0 56.5 -23t23.5 -56v-1639q0 -33 -23.5 -56.5t-56.5 -23.5t-56.5 23.5t-23.5 56.5v1559h-84v-1559q0 -33 -23 -56.5t-56 -23.5q-32 0 -56 24t-24 56v1192h-37q-109 0 -186.5 77.5t-77.5 186.5z" />
<glyph unicode="&#xb7;" horiz-adv-x="673" d="M154 803q0 76 53.5 130t128.5 54q76 0 130 -53.5t54 -130.5q0 -75 -54 -128.5t-130 -53.5q-75 0 -128.5 53.5t-53.5 128.5z" />
<glyph unicode="&#xb8;" horiz-adv-x="542" d="M82 -375q0 28 18.5 47t46.5 19q26 0 45 -19t19 -47q0 -25 17.5 -43t43.5 -18q25 0 43.5 18t18.5 43q0 26 -18.5 44t-43.5 18q-26 0 -44.5 18.5t-18.5 46.5v185q0 26 18.5 44.5t44.5 18.5t45 -18.5t19 -44.5v-134q56 -20 90.5 -68.5t34.5 -109.5q0 -78 -55.5 -133 t-133.5 -55t-134 55t-56 133z" />
<glyph unicode="&#xbb;" horiz-adv-x="1157" d="M124 304.5q0 33.5 23 55.5l332 332l-332 332q-23 22 -23 56t23 57t56.5 23t56.5 -23l389 -387q23 -25 23 -57.5t-23 -57.5l-389 -387q-23 -23 -56.5 -23t-56.5 23t-23 56.5zM485.5 304q-0.5 32 22.5 56l332 332l-332 332q-23 24 -22.5 56.5t22.5 56.5q25 23 58.5 23 t56.5 -23l387 -387q23 -25 23 -57.5t-23 -57.5l-387 -387q-23 -23 -56.5 -23t-58.5 23q-22 24 -22.5 56z" />
<glyph unicode="&#xbd;" horiz-adv-x="1024" />
<glyph unicode="&#xbf;" horiz-adv-x="1142" d="M123 432q2 43 11.5 82t20.5 67.5t32.5 57.5t35.5 45.5t43 39.5t41 32t43 30q30 20 76 56q67 58 81.5 116.5t12.5 188.5v61q-1 33 22 56.5t56 25.5q34 0 58 -24t24 -56v-61q0 -47 0.5 -90t-7.5 -88t-22.5 -85.5t-45 -83.5t-75.5 -81q-25 -23 -90 -68q-40 -27 -64 -47 t-48 -51t-35 -70.5t-10 -91.5q1 -65 29.5 -114t75 -77t100.5 -41.5t114 -13.5q61 0 115.5 14.5t101.5 44t75 81t28 119.5q0 34 22.5 57.5t56.5 23.5q33 0 56.5 -23.5t23.5 -57.5q0 -198 -147 -314q-132 -104 -332 -104t-332 104q-147 113 -147 340zM520 1458v113 q0 33 23.5 56.5t56.5 23.5t56.5 -23.5t23.5 -56.5v-113q0 -34 -23 -57t-57 -23t-57 23t-23 57z" />
<glyph unicode="&#xc0;" horiz-adv-x="1191" d="M76 90l442 1503q7 26 28.5 42t47.5 16q28 0 49.5 -16t28.5 -42l444 -1503q9 -31 -7 -60t-48 -38q-31 -9 -60 6.5t-38 46.5l-115 387h-508l-113 -387q-9 -32 -37 -47t-61 -6q-32 9 -47 37t-6 61zM279 1796q-10 32 5 60.5t46 39.5l411 125q31 10 60.5 -5t40.5 -46 q9 -32 -7 -61.5t-47 -38.5l-411 -127q-31 -9 -60 6t-38 47zM389 590h412l-207 700z" />
<glyph unicode="&#xc1;" horiz-adv-x="1191" d="M76 90l442 1503q7 26 28.5 42t47.5 16q28 0 49.5 -16t28.5 -42l444 -1503q9 -31 -7 -60t-48 -38q-31 -9 -60 6.5t-38 46.5l-115 387h-508l-113 -387q-9 -32 -37 -47t-61 -6q-32 9 -47 37t-6 61zM317 1968q9 32 38.5 47t60.5 6l411 -127q31 -9 47 -38.5t7 -61.5 q-11 -31 -40.5 -46t-60.5 -5l-411 125q-31 11 -46.5 39.5t-5.5 60.5zM389 590h412l-207 700z" />
<glyph unicode="&#xc2;" horiz-adv-x="1191" d="M76 90l442 1503q7 26 28.5 42t47.5 16q28 0 49.5 -16t28.5 -42l444 -1503q9 -31 -7 -60t-48 -38q-31 -9 -60 6.5t-38 46.5l-115 387h-508l-113 -387q-9 -32 -37 -47t-61 -6q-32 9 -47 37t-6 61zM252 1836.5q7 32.5 35 49.5l252 166q44 29 88 0l252 -166 q28 -17 34.5 -49.5t-12.5 -60.5t-50.5 -35t-59.5 12l-209 137l-207 -137q-28 -19 -61 -12t-52 35q-17 28 -10 60.5zM389 590h412l-207 700z" />
<glyph unicode="&#xc3;" horiz-adv-x="1191" d="M76 90l442 1503q7 26 28.5 42t47.5 16q28 0 49.5 -16t28.5 -42l444 -1503q9 -31 -7 -60t-48 -38q-31 -9 -60 6.5t-38 46.5l-115 387h-508l-113 -387q-9 -32 -37 -47t-61 -6q-32 9 -47 37t-6 61zM253.5 1819.5q-3.5 32.5 16.5 58.5q51 60 126 81.5t149 -3.5l151 -51 q59 -20 99 26q22 26 54 29.5t58 -18.5q26 -20 29.5 -53.5t-18.5 -59.5q-49 -60 -124.5 -81.5t-148.5 3.5l-151 53q-26 9 -54 1.5t-45 -29.5q-22 -25 -54.5 -28.5t-57.5 17.5q-26 22 -29.5 54.5zM389 590h412l-207 700z" />
<glyph unicode="&#xc4;" horiz-adv-x="1191" d="M76 90l442 1503q7 26 28.5 42t47.5 16q28 0 49.5 -16t28.5 -42l444 -1503q9 -31 -7 -60t-48 -38q-31 -9 -60 6.5t-38 46.5l-115 387h-508l-113 -387q-9 -32 -37 -47t-61 -6q-32 9 -47 37t-6 61zM279 1833v113q0 33 23 56t56 23q34 0 57 -22.5t23 -56.5v-113 q0 -33 -23.5 -56.5t-56.5 -23.5q-32 0 -55.5 24t-23.5 56zM389 590h412l-207 700zM723 1833v113q0 33 23.5 56t56.5 23q34 0 57 -22.5t23 -56.5v-113q0 -33 -23.5 -56.5t-56.5 -23.5q-32 0 -56 24t-24 56z" />
<glyph unicode="&#xc5;" horiz-adv-x="1191" d="M76 90l442 1503q7 26 28.5 42t47.5 16q28 0 49.5 -16t28.5 -42l444 -1503q9 -31 -7 -60t-48 -38q-31 -9 -60 6.5t-38 46.5l-115 387h-508l-113 -387q-9 -32 -37 -47t-61 -6q-32 9 -47 37t-6 61zM375 1917q0 91 63 154t154 63q90 0 153.5 -63.5t63.5 -153.5t-63.5 -153.5 t-153.5 -63.5q-91 0 -154 63t-63 154zM389 590h412l-207 700zM502 1917q0 -37 26.5 -63.5t63.5 -26.5t62.5 26.5t25.5 63.5t-25.5 63.5t-62.5 26.5t-63.5 -26.5t-26.5 -63.5z" />
<glyph unicode="&#xc6;" horiz-adv-x="1933" d="M78 96l571 1491q19 51 76 51h2h1008q33 0 56.5 -23t23.5 -56q0 -34 -23 -57t-57 -23h-625v-518h573q32 0 56 -24t24 -58q0 -32 -24 -56t-56 -24h-573v-639h641q34 0 57 -23t23 -57q0 -33 -23.5 -56.5t-56.5 -23.5h-723q-32 0 -56 24t-24 56v393h-555l-166 -434 q-12 -31 -42.5 -44t-61.5 -1q-31 10 -44 40.5t-1 61.5zM455 633h493v846h-168z" />
<glyph unicode="&#xc7;" horiz-adv-x="1234" d="M174 406v827q0 196 148 313q129 105 331 105q203 0 332 -105q148 -117 148 -313q0 -33 -23.5 -56.5t-56.5 -23.5q-34 0 -58 23t-24 57q0 55 -18.5 99.5t-49 73.5t-72 48.5t-86 28t-92.5 8.5t-92.5 -8.5t-86 -28t-72.5 -48.5t-49.5 -73.5t-18.5 -99.5v-827 q0 -55 18.5 -99.5t49.5 -74t72.5 -49t86 -28t92.5 -8.5q61 0 115.5 14t101 43.5t74 81.5t27.5 120q0 33 24 56t58 23q33 0 56.5 -23t23.5 -56q0 -197 -148 -314q-112 -90 -283 -102v-107q56 -20 90.5 -68.5t34.5 -109.5q0 -78 -55 -133t-133 -55t-134 55t-56 133 q0 28 18.5 47t46.5 19q26 0 45 -19t19 -47q0 -25 17.5 -43t43.5 -18q25 0 43 18t18 43q0 26 -18 44t-43 18q-27 0 -45.5 18.5t-18.5 46.5v160q-148 15 -253 100q-148 117 -148 314z" />
<glyph unicode="&#xc8;" horiz-adv-x="1128" d="M184 80v1479q0 32 24 55.5t56 23.5h707q32 0 56 -23.5t24 -55.5q0 -33 -23.5 -56.5t-56.5 -23.5h-627v-518h574q34 0 57.5 -24t23.5 -58q0 -33 -23.5 -56.5t-57.5 -23.5h-574v-639h643q33 0 56.5 -23.5t23.5 -56.5q0 -32 -24 -56t-56 -24h-723q-32 0 -56 24t-24 56z M317 1968q9 32 38.5 47t60.5 6l411 -127q31 -9 47 -38.5t7 -61.5q-11 -31 -40.5 -46t-60.5 -5l-411 125q-31 11 -46.5 39.5t-5.5 60.5z" />
<glyph unicode="&#xc9;" horiz-adv-x="1169" d="M205 80v1479q0 32 24 55.5t56 23.5h706q32 0 56 -23.5t24 -55.5q0 -33 -23.5 -56.5t-56.5 -23.5h-626v-518h573q34 0 58 -24t24 -58q0 -32 -24 -56t-58 -24h-573v-639h643q32 0 55.5 -23t23.5 -57q0 -32 -23.5 -56t-55.5 -24h-723q-32 0 -56 24t-24 56zM326 1796 q-10 32 5 60.5t46 39.5l411 125q31 10 60.5 -5t40.5 -46q9 -32 -6.5 -61.5t-46.5 -38.5l-412 -127q-31 -9 -60 6t-38 47z" />
<glyph unicode="&#xca;" horiz-adv-x="1169" d="M205 80v1479q0 32 24 55.5t56 23.5h706q32 0 56 -23.5t24 -55.5q0 -33 -23.5 -56.5t-56.5 -23.5h-626v-518h573q34 0 58 -24t24 -58q0 -32 -24 -56t-58 -24h-573v-639h643q32 0 55.5 -23t23.5 -57q0 -32 -23.5 -56t-55.5 -24h-723q-32 0 -56 24t-24 56zM301 1836.5 q7 32.5 35 49.5l252 166q44 29 88 0l252 -166q28 -17 34.5 -49.5t-12.5 -60.5t-50.5 -35t-59.5 12l-209 137l-207 -137q-28 -19 -61 -12t-52 35q-17 28 -10 60.5z" />
<glyph unicode="&#xcb;" horiz-adv-x="1128" d="M184 80v1479q0 32 24 55.5t56 23.5h707q32 0 56 -23.5t24 -55.5q0 -33 -23.5 -56.5t-56.5 -23.5h-627v-518h574q34 0 57.5 -24t23.5 -58q0 -33 -23.5 -56.5t-57.5 -23.5h-574v-639h643q33 0 56.5 -23.5t23.5 -56.5q0 -32 -24 -56t-56 -24h-723q-32 0 -56 24t-24 56z M342 1819v112q0 33 23.5 56.5t56.5 23.5q34 0 57 -23t23 -57v-112q0 -33 -23.5 -56.5t-56.5 -23.5q-32 0 -56 24t-24 56zM745 1819v112q0 33 23.5 56.5t56.5 23.5q34 0 57 -23t23 -57v-112q0 -33 -23.5 -56.5t-56.5 -23.5q-32 0 -56 24t-24 56z" />
<glyph unicode="&#xcc;" horiz-adv-x="614" d="M27 1968q9 32 38 47t60 6l412 -127q31 -9 46.5 -38.5t6.5 -61.5q-11 -31 -40.5 -46t-60.5 -5l-411 125q-31 11 -46 39.5t-5 60.5zM227 68v1503q0 32 24 56t56 24q33 0 56.5 -23.5t23.5 -56.5v-1503q0 -33 -23.5 -56.5t-56.5 -23.5q-32 0 -56 24t-24 56z" />
<glyph unicode="&#xcd;" horiz-adv-x="614" d="M27 1796q-10 32 5 60.5t46 39.5l411 125q31 10 60.5 -5t40.5 -46q9 -32 -6.5 -61.5t-46.5 -38.5l-412 -127q-31 -9 -60 6t-38 47zM227 68v1503q0 32 24 56t56 24q33 0 56.5 -23.5t23.5 -56.5v-1503q0 -33 -23.5 -56.5t-56.5 -23.5q-32 0 -56 24t-24 56z" />
<glyph unicode="&#xce;" horiz-adv-x="706" d="M22.5 1836.5q6.5 32.5 34.5 49.5l252 166q44 29 88 0l252 -166q28 -17 35 -49.5t-12 -60.5t-51 -35t-60 12l-209 137l-207 -137q-28 -19 -60.5 -12t-51.5 35q-17 28 -10.5 60.5zM266 68v1503q0 32 24 56t56 24q33 0 56.5 -23.5t23.5 -56.5v-1503q0 -33 -23.5 -56.5 t-56.5 -23.5q-32 0 -56 24t-24 56z" />
<glyph unicode="&#xcf;" horiz-adv-x="604" d="M20 1819v112q0 33 23.5 56.5t56.5 23.5q34 0 57 -23t23 -57v-112q0 -33 -23.5 -56.5t-56.5 -23.5q-32 0 -56 24t-24 56zM223 68v1503q0 32 24 56t56 24q33 0 56.5 -23.5t23.5 -56.5v-1503q0 -33 -23.5 -56.5t-56.5 -23.5q-32 0 -56 24t-24 56zM424 1819v112 q0 33 23.5 56.5t56.5 23.5q34 0 57 -23t23 -57v-112q0 -33 -23.5 -56.5t-56.5 -23.5q-32 0 -56 24t-24 56z" />
<glyph unicode="&#xd0;" horiz-adv-x="1024" />
<glyph unicode="&#xd1;" horiz-adv-x="1380" d="M205 66v1505q0 28 16.5 49.5t44.5 28.5q26 6 51.5 -5t38.5 -36q658 -1223 660 -1223v1186q0 32 24 56t56 24q33 0 56.5 -23.5t23.5 -56.5v-1503q0 -27 -16.5 -48.5t-43.5 -29.5q-28 -6 -53 5t-37 36l-661 1222v-1187q0 -33 -23.5 -56.5t-56.5 -23.5q-32 0 -56 24t-24 56z M331 1813.5q-3 32.5 17 58.5q51 60 126 81.5t149 -3.5l151 -52q26 -9 52.5 -2t45.5 29q22 26 54.5 29t58.5 -19q26 -20 29 -53t-19 -59q-50 -60 -124 -81.5t-148 3.5l-152 53q-26 9 -53.5 1t-44.5 -30q-22 -25 -55 -28t-58 18q-26 22 -29 54.5z" />
<glyph unicode="&#xd2;" horiz-adv-x="1265" d="M154 406v827q0 197 147 313q129 105 332 105t332 -105q147 -116 147 -313v-827q0 -198 -147 -314q-128 -104 -332 -104t-332 104q-147 116 -147 314zM313 406q0 -68 28 -120t75 -81.5t101.5 -43.5t115.5 -14t115 14t100.5 43.5t74 81.5t27.5 120v681q-197 3 -323 105 q-134 106 -146 274q-168 -63 -168 -233v-827zM367 1968q9 32 38 47t60 6l412 -127q31 -9 46.5 -38.5t6.5 -61.5q-11 -31 -40.5 -46t-60.5 -5l-411 125q-31 11 -46 39.5t-5 60.5zM641 1491q6 -122 95.5 -182t213.5 -62q-6 122 -95.5 182t-213.5 62z" />
<glyph unicode="&#xd3;" horiz-adv-x="1265" d="M154 406v827q0 197 147 313q129 105 332 105t332 -105q147 -116 147 -313v-827q0 -198 -147 -314q-128 -104 -332 -104t-332 104q-147 116 -147 314zM313 406q0 -68 28 -120t75 -81.5t101.5 -43.5t115.5 -14t115 14t100.5 43.5t74 81.5t27.5 120v681q-197 3 -323 105 q-134 106 -146 274q-168 -63 -168 -233v-827zM317 1796q-10 32 5.5 60.5t46.5 39.5l411 125q31 10 60.5 -5t40.5 -46q9 -32 -7 -61.5t-47 -38.5l-411 -127q-31 -9 -60.5 6t-38.5 47zM641 1491q6 -122 95.5 -182t213.5 -62q-6 122 -95.5 182t-213.5 62z" />
<glyph unicode="&#xd4;" horiz-adv-x="1265" d="M154 406v827q0 197 147 313q129 105 332 105t332 -105q147 -116 147 -313v-827q0 -198 -147 -314q-128 -104 -332 -104t-332 104q-147 116 -147 314zM303 1836.5q7 32.5 35 49.5l252 166q44 29 88 0l252 -166q28 -17 34.5 -49.5t-12.5 -60.5t-50.5 -35t-59.5 12l-209 137 l-207 -137q-28 -19 -61 -12t-52 35q-17 28 -10 60.5zM313 406q0 -68 28 -120t75 -81.5t101.5 -43.5t115.5 -14t115 14t100.5 43.5t74 81.5t27.5 120v681q-197 3 -323 105q-134 106 -146 274q-168 -63 -168 -233v-827zM641 1491q6 -122 95.5 -182t213.5 -62q-6 122 -95.5 182 t-213.5 62z" />
<glyph unicode="&#xd5;" horiz-adv-x="1265" d="M154 406v827q0 197 147 313q129 105 332 105t332 -105q147 -116 147 -313v-827q0 -198 -147 -314q-128 -104 -332 -104t-332 104q-147 116 -147 314zM272 1819.5q-3 32.5 17 58.5q51 60 125.5 81.5t148.5 -3.5l152 -51q58 -20 98 26q22 26 54.5 29.5t58.5 -18.5 q26 -20 29 -53.5t-19 -59.5q-50 -60 -124 -81.5t-148 3.5l-152 53q-26 9 -53.5 1.5t-44.5 -29.5q-22 -25 -55 -28.5t-58 17.5q-26 22 -29 54.5zM313 406q0 -68 28 -120t75 -81.5t101.5 -43.5t115.5 -14t115 14t100.5 43.5t74 81.5t27.5 120v681q-197 3 -323 105 q-134 106 -146 274q-168 -63 -168 -233v-827zM641 1491q6 -122 95.5 -182t213.5 -62q-6 122 -95.5 182t-213.5 62z" />
<glyph unicode="&#xd6;" horiz-adv-x="1265" d="M154 406v827q0 197 147 313q129 105 332 105t332 -105q147 -116 147 -313v-827q0 -198 -147 -314q-128 -104 -332 -104t-332 104q-147 116 -147 314zM313 406q0 -68 28 -120t75 -81.5t101.5 -43.5t115.5 -14t115 14t100.5 43.5t74 81.5t27.5 120v681q-197 3 -323 105 q-134 106 -146 274q-168 -63 -168 -233v-827zM344 1819v112q0 33 23.5 56.5t56.5 23.5q34 0 57 -23t23 -57v-112q0 -33 -23.5 -56.5t-56.5 -23.5q-32 0 -56 24t-24 56zM641 1491q6 -122 95.5 -182t213.5 -62q-6 122 -95.5 182t-213.5 62zM748 1819v112q0 33 23 56.5t56 23.5 q34 0 57 -23t23 -57v-112q0 -33 -23.5 -56.5t-56.5 -23.5q-32 0 -55.5 24t-23.5 56z" />
<glyph unicode="&#xd7;" horiz-adv-x="980" d="M145 548q0 33 23 58l209 209l-209 209q-23 23 -23 55.5t23 57.5q25 23 57.5 23t55.5 -23l208 -209l209 209q25 23 58.5 23t56.5 -23q25 -23 25 -57.5t-25 -57.5l-209 -209l209 -209q24 -24 24 -55.5t-24 -56.5q-25 -24 -57 -24t-56 24l-208 208l-209 -208 q-23 -25 -57.5 -25t-57.5 25q-23 23 -23 56z" />
<glyph unicode="&#xd8;" horiz-adv-x="1298" d="M149 -48q-10 31 5 62l84 164q-68 95 -68 228v827q0 199 147 315q130 103 332 103q164 0 287 -72l65 129q15 29 47.5 39.5t61.5 -4.5t39.5 -47.5t-4.5 -61.5l-86 -170q69 -97 69 -231v-827q0 -197 -147 -316q-129 -102 -332 -102q-169 0 -291 75l-61 -122 q-15 -29 -47.5 -39.5t-61.5 4.5t-39 46zM332 406q0 -68 27.5 -120t74 -81.5t100.5 -43.5t115 -14t115.5 14t101 43.5t74 81.5t27.5 120v681q-198 3 -324 105q-130 103 -145 274q-166 -62 -166 -233v-827zM657 1491q6 -122 95.5 -181t214.5 -61q-3 93 -64 154q-84 84 -246 88 z" />
<glyph unicode="&#xd9;" horiz-adv-x="1368" d="M205 406v1165q0 32 24 56t56 24q33 0 56.5 -23.5t23.5 -56.5v-1165q0 -55 18.5 -99.5t49.5 -74t72.5 -49t86 -28t92.5 -8.5q61 0 115 14t100.5 43.5t74 81.5t27.5 120v1165q0 32 24 56t58 24q32 0 56 -24t24 -56v-1165q0 -198 -147 -314q-128 -104 -332 -104t-332 104 q-147 116 -147 314zM401 1968q9 32 38.5 47t60.5 6l411 -127q31 -9 47 -38.5t7 -61.5q-11 -31 -40.5 -46t-60.5 -5l-411 125q-31 11 -46.5 39.5t-5.5 60.5z" />
<glyph unicode="&#xda;" horiz-adv-x="1368" d="M205 406v1165q0 32 24 56t56 24q33 0 56.5 -23.5t23.5 -56.5v-1165q0 -55 18.5 -99.5t49.5 -74t72.5 -49t86 -28t92.5 -8.5q61 0 115 14t100.5 43.5t74 81.5t27.5 120v1165q0 32 24 56t58 24q32 0 56 -24t24 -56v-1165q0 -198 -147 -314q-128 -104 -332 -104t-332 104 q-147 116 -147 314zM406 1796q-10 32 5 60.5t46 39.5l411 125q31 10 60.5 -5t40.5 -46q9 -32 -7 -61.5t-47 -38.5l-411 -127q-31 -9 -60 6t-38 47z" />
<glyph unicode="&#xdb;" horiz-adv-x="1368" d="M205 406v1165q0 32 24 56t56 24q33 0 56.5 -23.5t23.5 -56.5v-1165q0 -55 18.5 -99.5t49.5 -74t72.5 -49t86 -28t92.5 -8.5q61 0 115 14t100.5 43.5t74 81.5t27.5 120v1165q0 32 24 56t58 24q32 0 56 -24t24 -56v-1165q0 -198 -147 -314q-128 -104 -332 -104t-332 104 q-147 116 -147 314zM358.5 1834.5q6.5 32.5 34.5 49.5l252 166q44 29 88 0l252 -166q28 -17 35 -49.5t-12 -60.5t-51 -35t-60 12l-209 137l-207 -137q-28 -19 -60.5 -12t-51.5 35q-17 28 -10.5 60.5z" />
<glyph unicode="&#xdc;" horiz-adv-x="1368" d="M205 406v1165q0 32 24 56t56 24q33 0 56.5 -23.5t23.5 -56.5v-1165q0 -55 18.5 -99.5t49.5 -74t72.5 -49t86 -28t92.5 -8.5q61 0 115 14t100.5 43.5t74 81.5t27.5 120v1165q0 32 24 56t58 24q32 0 56 -24t24 -56v-1165q0 -198 -147 -314q-128 -104 -332 -104t-332 104 q-147 116 -147 314zM406 1819v112q0 33 23 56.5t56 23.5q34 0 57 -23t23 -57v-112q0 -33 -23.5 -56.5t-56.5 -23.5q-32 0 -55.5 24t-23.5 56zM809 1819v112q0 33 23.5 56.5t56.5 23.5q34 0 57 -23t23 -57v-112q0 -33 -23.5 -56.5t-56.5 -23.5q-32 0 -56 24t-24 56z" />
<glyph unicode="&#xdd;" horiz-adv-x="1216" d="M174 854v717q0 34 23 57t57 23t57 -23t23 -57v-717q0 -55 22.5 -96.5t60.5 -65t82.5 -34.5t94.5 -11t93.5 11t81.5 34.5t60.5 65t22.5 96.5v717q0 33 23.5 56.5t56.5 23.5q34 0 57 -23t23 -57v-1217q0 -172 -129 -276q-116 -90 -289 -90q-167 0 -280 82.5t-136 222.5 q-5 33 15 59.5t53 30.5q32 6 58.5 -14t31.5 -52q9 -59 51.5 -99t94.5 -55.5t112 -15.5q106 0 182 51t76 156v201q-106 -68 -258 -68q-174 0 -291 91q-129 104 -129 276zM303 1794q-10 32 5 60.5t46 39.5l412 125q31 10 60 -5t40 -46q9 -32 -6.5 -61.5t-46.5 -38.5l-412 -127 q-31 -9 -60 6t-38 47z" />
<glyph unicode="&#xde;" horiz-adv-x="1024" />
<glyph unicode="&#xdf;" horiz-adv-x="1196" d="M164 -80v1311q0 182 110 295q116 125 314 125q197 0 313 -125q111 -114 111 -295q0 -88 -29 -169.5t-82 -137.5q-25 -25 -39 -35q48 -31 84 -70q61 -64 94 -157t33 -193q0 -208 -127 -338q-131 -143 -358 -143q-34 0 -58 24t-24 56q0 33 24 56t58 23q86 0 151 28t101 75 t53.5 102t17.5 117q0 59 -16.5 114t-51 103.5t-95.5 79t-142 33.5h-18q-35 0 -58.5 24t-23.5 58t24 57t58 23h18q65 3 114 28t76 65t40.5 84.5t13.5 92.5q0 50 -14 94t-43.5 82.5t-82 61t-122.5 22.5t-123 -22.5t-82.5 -61t-44 -83t-14.5 -93.5v-1311q0 -33 -23.5 -56.5 t-56.5 -23.5q-32 0 -56 24t-24 56z" />
<glyph unicode="&#xe0;" d="M143 356v422q0 176 129 283q118 98 291 98q175 0 293 -98q129 -110 129 -283v-452q0 -23 4 -46.5t16 -57t42.5 -54.5t76.5 -21q34 0 57 -22.5t23 -56.5q0 -33 -23.5 -56.5t-56.5 -23.5q-155 0 -237 121q-21 -21 -33 -31q-116 -90 -291 -90t-291 90q-129 104 -129 278z M279 1595q11 31 40.5 46.5t59.5 5.5l412 -125q31 -11 46 -40t5 -61q-9 -32 -38.5 -47t-60.5 -6l-411 127q-31 9 -46.5 38.5t-6.5 61.5zM303 356q0 -73 40 -122t96.5 -68t123.5 -19q50 0 94.5 11.5t82.5 35t60.5 65.5t22.5 97v422q0 108 -76.5 164.5t-183.5 56.5 t-183.5 -56.5t-76.5 -164.5v-422z" />
<glyph unicode="&#xe1;" d="M143 356v422q0 176 129 283q118 98 291 98q175 0 293 -98q129 -110 129 -283v-452q0 -23 4 -46.5t16 -57t42.5 -54.5t76.5 -21q34 0 57 -22.5t23 -56.5q0 -33 -23.5 -56.5t-56.5 -23.5q-155 0 -237 121q-21 -21 -33 -31q-116 -90 -291 -90t-291 90q-129 104 -129 278z M256 1421q-10 32 5 61t46 40l412 125q30 10 59.5 -5.5t40.5 -46.5q9 -32 -6.5 -61.5t-46.5 -38.5l-412 -127q-31 -9 -60 6t-38 47zM303 356q0 -73 40 -122t96.5 -68t123.5 -19q50 0 94.5 11.5t82.5 35t60.5 65.5t22.5 97v422q0 108 -76.5 164.5t-183.5 56.5t-183.5 -56.5 t-76.5 -164.5v-422z" />
<glyph unicode="&#xe2;" d="M143 356v422q0 176 129 283q118 98 291 98q175 0 293 -98q129 -110 129 -283v-452q0 -23 4 -46.5t16 -57t42.5 -54.5t76.5 -21q34 0 57 -22.5t23 -56.5q0 -33 -23.5 -56.5t-56.5 -23.5q-155 0 -237 121q-21 -21 -33 -31q-116 -90 -291 -90t-291 90q-129 104 -129 278z M233.5 1420.5q6.5 32.5 34.5 49.5l252 166q44 29 88 0l252 -166q28 -17 35 -49.5t-12 -60.5t-51 -35t-60 12l-209 138l-207 -138q-28 -19 -60.5 -12t-51.5 35q-17 28 -10.5 60.5zM303 356q0 -73 40 -122t96.5 -68t123.5 -19q50 0 94.5 11.5t82.5 35t60.5 65.5t22.5 97v422 q0 108 -76.5 164.5t-183.5 56.5t-183.5 -56.5t-76.5 -164.5v-422z" />
<glyph unicode="&#xe3;" d="M143 356v422q0 176 129 283q118 98 291 98q175 0 293 -98q129 -110 129 -283v-452q0 -23 4 -46.5t16 -57t42.5 -54.5t76.5 -21q34 0 57 -22.5t23 -56.5q0 -33 -23.5 -56.5t-56.5 -23.5q-155 0 -237 121q-21 -21 -33 -31q-116 -90 -291 -90t-291 90q-129 104 -129 278z M223 1502.5q-3 32.5 17 58.5q51 60 126 81t148 -4l152 -51q26 -9 52.5 -2t45.5 29q22 26 54.5 29t58.5 -19q26 -20 29 -53.5t-19 -59.5q-49 -60 -124.5 -81t-148.5 4l-151 53q-26 9 -53.5 1t-44.5 -30q-22 -25 -55 -28t-58 18q-26 22 -29 54.5zM303 356q0 -73 40 -122 t96.5 -68t123.5 -19q50 0 94.5 11.5t82.5 35t60.5 65.5t22.5 97v422q0 108 -76.5 164.5t-183.5 56.5t-183.5 -56.5t-76.5 -164.5v-422z" />
<glyph unicode="&#xe4;" d="M143 356v422q0 176 129 283q118 98 291 98q175 0 293 -98q129 -110 129 -283v-452q0 -23 4 -46.5t16 -57t42.5 -54.5t76.5 -21q34 0 57 -22.5t23 -56.5q0 -33 -23.5 -56.5t-56.5 -23.5q-155 0 -237 121q-21 -21 -33 -31q-116 -90 -291 -90t-291 90q-129 104 -129 278z M303 356q0 -73 40 -122t96.5 -68t123.5 -19q50 0 94.5 11.5t82.5 35t60.5 65.5t22.5 97v422q0 108 -76.5 164.5t-183.5 56.5t-183.5 -56.5t-76.5 -164.5v-422zM322 1458v113q0 33 23 56.5t56 23.5q34 0 57 -23t23 -57v-113q0 -33 -23.5 -56.5t-56.5 -23.5q-32 0 -55.5 24 t-23.5 56zM684 1458v113q0 33 23.5 56.5t56.5 23.5q34 0 57 -23t23 -57v-113q0 -33 -23.5 -56.5t-56.5 -23.5q-32 0 -56 24t-24 56z" />
<glyph unicode="&#xe5;" d="M143 356v422q0 176 129 283q118 98 291 98q175 0 293 -98q129 -110 129 -283v-452q0 -23 4 -46.5t16 -57t42.5 -54.5t76.5 -21q34 0 57 -22.5t23 -56.5q0 -33 -23.5 -56.5t-56.5 -23.5q-155 0 -237 121q-21 -21 -33 -31q-116 -90 -291 -90t-291 90q-129 104 -129 278z M303 356q0 -73 40 -122t96.5 -68t123.5 -19q50 0 94.5 11.5t82.5 35t60.5 65.5t22.5 97v422q0 108 -76.5 164.5t-183.5 56.5t-183.5 -56.5t-76.5 -164.5v-422zM346 1434q0 91 63 154t154 63q90 0 153.5 -63.5t63.5 -153.5t-63.5 -153.5t-153.5 -63.5q-91 0 -154 63t-63 154z M473 1434q0 -37 26.5 -64t63.5 -27q36 0 62 27t26 64t-25.5 63.5t-62.5 26.5t-63.5 -26.5t-26.5 -63.5z" />
<glyph unicode="&#xe6;" horiz-adv-x="1738" d="M143 326q0 42 7.5 83t31.5 91.5t63.5 89t111 68.5t165.5 38l232 19v108q0 61 -33.5 102t-78.5 56.5t-97 15.5q-74 0 -128 -31t-73 -83q-12 -32 -41.5 -46t-62.5 -3q-31 11 -45 41t-2 61q37 103 131.5 162t220.5 59q152 0 256 -84q23 -18 47 -49q16 19 35 35 q118 98 293 98q172 0 290 -98q129 -107 129 -283v-137q0 -28 -18 -51t-47 -27l-615 -117v-88q0 -73 40 -122t96.5 -68t124.5 -19q60 0 112 15.5t93.5 56t50.5 100.5q6 33 33 52.5t59 13.5q33 -4 52.5 -30.5t14.5 -59.5q-22 -141 -134.5 -224t-280.5 -83q-175 0 -291 90 q-16 12 -43 39q-103 -131 -312 -131q-159 0 -266 84q-121 95 -121 256zM303 326q0 -92 66.5 -136.5t160.5 -44.5q100 0 160 48q64 49 64 151v211l-219 -18q-73 -6 -122 -28t-71.5 -54.5t-30.5 -62.5t-8 -66zM915 608q325 60 521 99v69q0 107 -77 164t-183 57t-183.5 -57 t-77.5 -164v-168z" />
<glyph unicode="&#xe7;" horiz-adv-x="1114" d="M143 356v424q0 177 129 281q118 98 291 98q160 0 274 -84.5t140 -222.5q6 -32 -13 -59t-53 -33q-32 -6 -59 12.5t-33 50.5q-15 80 -85 128t-171 48q-68 0 -125 -22t-96 -73.5t-39 -123.5v-424q0 -73 40 -122t96.5 -68t123.5 -19q60 0 112 15.5t93.5 56t50.5 100.5 q6 33 33 52.5t59 13.5q32 -5 52 -31.5t16 -58.5q-20 -127 -115.5 -208t-240.5 -95v-109q56 -20 90.5 -68.5t34.5 -109.5q0 -78 -55.5 -133t-133.5 -55t-134 55t-56 133q0 28 18.5 47t46.5 19q26 0 45 -19t19 -47q0 -25 17.5 -43t43.5 -18q25 0 43.5 18t18.5 43 q0 26 -18.5 44t-43.5 18q-26 0 -44.5 18.5t-18.5 46.5v160q-136 16 -224 86q-129 104 -129 278z" />
<glyph unicode="&#xe8;" horiz-adv-x="1126" d="M143 356v424q0 177 129 281q118 98 291 98t291 -98q129 -104 129 -281v-137q0 -28 -18 -51t-47 -27l-615 -116v-93q0 -73 40 -122t96.5 -68t123.5 -19q60 0 112 15.5t93.5 56t50.5 100.5q6 33 33 52.5t59 13.5q32 -5 52 -31.5t16 -58.5q-22 -139 -135.5 -223t-280.5 -84 q-175 0 -291 90q-129 104 -129 278zM244 1595q11 31 40.5 46.5t59.5 5.5l412 -125q31 -11 46 -40t5 -61q-9 -32 -38 -47t-60 -6l-412 127q-31 9 -46.5 38.5t-6.5 61.5zM303 612q313 57 520 99v69q0 72 -39 123.5t-96 73.5t-125 22t-125 -22t-96 -73.5t-39 -123.5v-168z" />
<glyph unicode="&#xe9;" horiz-adv-x="1126" d="M143 356v424q0 177 129 281q118 98 291 98t291 -98q129 -104 129 -281v-137q0 -28 -18 -51t-47 -27l-615 -116v-93q0 -73 40 -122t96.5 -68t123.5 -19q60 0 112 15.5t93.5 56t50.5 100.5q6 33 33 52.5t59 13.5q32 -5 52 -31.5t16 -58.5q-22 -139 -135.5 -223t-280.5 -84 q-175 0 -291 90q-129 104 -129 278zM246 1421q-10 32 5 61t46 40l412 125q30 10 59.5 -5.5t40.5 -46.5q9 -32 -6.5 -61.5t-46.5 -38.5l-412 -127q-31 -9 -60 6t-38 47zM303 612q313 57 520 99v69q0 72 -39 123.5t-96 73.5t-125 22t-125 -22t-96 -73.5t-39 -123.5v-168z" />
<glyph unicode="&#xea;" horiz-adv-x="1126" d="M143 356v424q0 177 129 281q118 98 291 98t291 -98q129 -104 129 -281v-137q0 -28 -18 -51t-47 -27l-615 -116v-93q0 -73 40 -122t96.5 -68t123.5 -19q60 0 112 15.5t93.5 56t50.5 100.5q6 33 33 52.5t59 13.5q32 -5 52 -31.5t16 -58.5q-22 -139 -135.5 -223t-280.5 -84 q-175 0 -291 90q-129 104 -129 278zM227.5 1420.5q6.5 32.5 34.5 49.5l252 166q44 29 88 0l252 -166q28 -17 35 -49.5t-12 -60.5t-51 -35t-60 12l-209 138l-207 -138q-28 -19 -60.5 -12t-51.5 35q-17 28 -10.5 60.5zM303 612q313 57 520 99v69q0 72 -39 123.5t-96 73.5 t-125 22t-125 -22t-96 -73.5t-39 -123.5v-168z" />
<glyph unicode="&#xeb;" horiz-adv-x="1116" d="M143 356v424q0 177 129 281q118 98 291 98t291 -98q129 -104 129 -281v-137q0 -28 -18 -51t-47 -27l-615 -116v-93q0 -73 40 -122t96.5 -68t123.5 -19q60 0 112 15.5t93.5 56t50.5 100.5q6 33 33 52.5t59 13.5q32 -5 52 -31.5t16 -58.5q-22 -139 -135.5 -223t-280.5 -84 q-175 0 -291 90q-129 104 -129 278zM303 612q313 57 520 99v69q0 72 -39 123.5t-96 73.5t-125 22t-125 -22t-96 -73.5t-39 -123.5v-168zM311 1458v113q0 33 23.5 56.5t56.5 23.5q34 0 57 -23t23 -57v-113q0 -33 -23.5 -56.5t-56.5 -23.5q-32 0 -56 24t-24 56zM674 1458v113 q0 33 23.5 56.5t56.5 23.5q34 0 57 -23t23 -57v-113q0 -33 -23.5 -56.5t-56.5 -23.5q-32 0 -56 24t-24 56z" />
<glyph unicode="&#xec;" horiz-adv-x="614" d="M25 1595q11 31 40.5 46.5t59.5 5.5l412 -125q31 -11 46 -40t5 -61q-9 -32 -38.5 -47t-60.5 -6l-411 127q-31 9 -46.5 38.5t-6.5 61.5zM221 68v1011q0 34 24 57t58 23q33 0 56.5 -23.5t23.5 -56.5v-1011q0 -32 -24 -56t-56 -24q-34 0 -58 24t-24 56z" />
<glyph unicode="&#xed;" horiz-adv-x="614" d="M27 1421q-10 32 5 61t46 40l411 125q30 10 60 -5.5t41 -46.5q9 -32 -6.5 -61.5t-46.5 -38.5l-412 -127q-31 -9 -60 6t-38 47zM221 68v1011q0 34 24 57t58 23q33 0 56.5 -23.5t23.5 -56.5v-1011q0 -32 -24 -56t-56 -24q-34 0 -58 24t-24 56z" />
<glyph unicode="&#xee;" horiz-adv-x="706" d="M22.5 1420.5q6.5 32.5 34.5 49.5l252 166q44 29 88 0l252 -166q28 -17 35 -49.5t-12 -60.5t-51 -35t-60 12l-209 138l-207 -138q-28 -19 -60.5 -12t-51.5 35q-17 28 -10.5 60.5zM270 68v1011q0 34 24 57t58 23q33 0 56.5 -23.5t23.5 -56.5v-1011q0 -32 -24 -56t-56 -24 q-34 0 -58 24t-24 56z" />
<glyph unicode="&#xef;" horiz-adv-x="563" d="M20 1458v113q0 33 23.5 56.5t56.5 23.5q34 0 57 -23t23 -57v-113q0 -33 -23.5 -56.5t-56.5 -23.5q-32 0 -56 24t-24 56zM201 68v1011q0 34 24 57t58 23q33 0 56 -23.5t23 -56.5v-1011q0 -32 -23.5 -56t-55.5 -24q-34 0 -58 24t-24 56zM383 1458v113q0 33 23.5 56.5 t56.5 23.5q34 0 57 -23t23 -57v-113q0 -33 -23.5 -56.5t-56.5 -23.5q-32 0 -56 24t-24 56z" />
<glyph unicode="&#xf0;" horiz-adv-x="1024" />
<glyph unicode="&#xf1;" horiz-adv-x="1159" d="M174 68v1009q0 33 23.5 56.5t56.5 23.5q32 0 55 -21.5t25 -52.5q112 76 260 76q175 0 293 -98q129 -110 129 -283v-710q0 -32 -24 -56t-56 -24q-34 0 -58 24t-24 56v710q0 107 -76 163t-184 56q-68 0 -125 -22t-96 -73.5t-39 -123.5v-710q0 -33 -23.5 -56.5t-56.5 -23.5 q-32 0 -56 24t-24 56zM241 1502.5q-3 32.5 17 58.5q51 60 126 81t148 -4l152 -51q26 -9 52.5 -2t45.5 29q22 26 54.5 29t58.5 -19q26 -20 29 -53.5t-19 -59.5q-49 -60 -124 -81t-148 4l-152 53q-26 9 -53.5 1t-44.5 -30q-22 -25 -55 -28t-58 18q-26 22 -29 54.5z" />
<glyph unicode="&#xf2;" horiz-adv-x="1128" d="M143 356v424q0 177 129 281q118 98 291 98q175 0 293 -98q129 -107 129 -281v-424q0 -174 -131 -278q-116 -90 -291 -90q-176 0 -289 90q-131 104 -131 278zM281 1595q11 31 40.5 46.5t59.5 5.5l412 -125q31 -11 46 -40t5 -61q-9 -32 -38.5 -47t-60.5 -6l-411 127 q-31 9 -46.5 38.5t-6.5 61.5zM303 356q0 -73 40 -122t96.5 -68t123.5 -19q50 0 94.5 11.5t82.5 35t60.5 65.5t22.5 97v275q-168 3 -280 92q-117 91 -129 242q-111 -62 -111 -185v-424zM571 999q1 -71 39.5 -119t92.5 -67t120 -20q-4 98 -77 151t-175 55z" />
<glyph unicode="&#xf3;" horiz-adv-x="1128" d="M143 356v424q0 177 129 281q118 98 291 98q175 0 293 -98q129 -107 129 -281v-424q0 -174 -131 -278q-116 -90 -291 -90q-176 0 -289 90q-131 104 -131 278zM240 1421q-10 32 5 61t46 40l411 125q30 10 60 -5.5t41 -46.5q9 -32 -6.5 -61.5t-46.5 -38.5l-412 -127 q-31 -9 -60 6t-38 47zM303 356q0 -73 40 -122t96.5 -68t123.5 -19q50 0 94.5 11.5t82.5 35t60.5 65.5t22.5 97v275q-168 3 -280 92q-117 91 -129 242q-111 -62 -111 -185v-424zM571 999q1 -71 39.5 -119t92.5 -67t120 -20q-4 98 -77 151t-175 55z" />
<glyph unicode="&#xf4;" horiz-adv-x="1128" d="M143 356v424q0 177 129 281q118 98 291 98q175 0 293 -98q129 -107 129 -281v-424q0 -174 -131 -278q-116 -90 -291 -90q-176 0 -289 90q-131 104 -131 278zM231.5 1420.5q6.5 32.5 34.5 49.5l252 166q44 29 88 0l252 -166q28 -17 35 -49.5t-12 -60.5t-51 -35t-60 12 l-209 138l-207 -138q-28 -19 -60.5 -12t-51.5 35q-17 28 -10.5 60.5zM303 356q0 -73 40 -122t96.5 -68t123.5 -19q50 0 94.5 11.5t82.5 35t60.5 65.5t22.5 97v275q-168 3 -280 92q-117 91 -129 242q-111 -62 -111 -185v-424zM571 999q1 -71 39.5 -119t92.5 -67t120 -20 q-4 98 -77 151t-175 55z" />
<glyph unicode="&#xf5;" horiz-adv-x="1118" d="M143 356v424q0 177 129 281q118 98 291 98q175 0 293 -98q129 -107 129 -281v-424q0 -174 -131 -278q-116 -90 -291 -90q-176 0 -289 90q-131 104 -131 278zM231 1502.5q-3 32.5 17 58.5q51 60 126 81t148 -4l152 -51q26 -9 52.5 -2t45.5 29q22 26 54.5 29t58.5 -19 q26 -20 29 -53.5t-19 -59.5q-49 -60 -124 -81t-148 4l-152 53q-26 9 -53.5 1t-44.5 -30q-22 -25 -55 -28t-58 18q-26 22 -29 54.5zM303 356q0 -73 40 -122t96.5 -68t123.5 -19q50 0 94.5 11.5t82.5 35t60.5 65.5t22.5 97v275q-168 3 -280 92q-117 91 -129 242 q-111 -62 -111 -185v-424zM571 999q1 -71 39.5 -119t92.5 -67t120 -20q-4 98 -77 151t-175 55z" />
<glyph unicode="&#xf6;" horiz-adv-x="1128" d="M143 356v424q0 177 129 281q118 98 291 98q175 0 293 -98q129 -107 129 -281v-424q0 -174 -131 -278q-116 -90 -291 -90q-176 0 -289 90q-131 104 -131 278zM303 356q0 -73 40 -122t96.5 -68t123.5 -19q50 0 94.5 11.5t82.5 35t60.5 65.5t22.5 97v275q-168 3 -280 92 q-117 91 -129 242q-111 -62 -111 -185v-424zM307 1458v113q0 33 23.5 56.5t56.5 23.5q34 0 57 -23t23 -57v-113q0 -33 -23.5 -56.5t-56.5 -23.5q-32 0 -56 24t-24 56zM571 999q1 -71 39.5 -119t92.5 -67t120 -20q-4 98 -77 151t-175 55zM670 1458v113q0 33 23.5 56.5 t56.5 23.5q34 0 56.5 -23t22.5 -57v-113q0 -33 -23 -56.5t-56 -23.5q-32 0 -56 24t-24 56z" />
<glyph unicode="&#xf7;" horiz-adv-x="1116" d="M113 678q0 33 23.5 56.5t56.5 23.5h731q34 0 57 -23t23 -57t-23 -57t-57 -23h-731q-33 0 -56.5 23.5t-23.5 56.5zM485 268v58q0 33 23.5 56.5t56.5 23.5q34 0 57 -23t23 -57v-58q0 -33 -23.5 -56.5t-56.5 -23.5q-32 0 -56 24t-24 56zM485 1022v57q0 33 23.5 56.5 t56.5 23.5q34 0 57 -23t23 -57v-57q0 -33 -23.5 -56.5t-56.5 -23.5q-32 0 -56 24t-24 56z" />
<glyph unicode="&#xf8;" horiz-adv-x="1161" d="M135.5 -41q-7.5 32 9.5 61l80 125q-65 89 -65 211v422q0 176 129 283q118 98 291 98q124 0 231 -55l68 108q18 28 49 35.5t61 -10.5q28 -17 35.5 -49.5t-10.5 -61.5l-82 -131q67 -91 67 -217v-422q0 -175 -129 -276q-119 -92 -290 -92q-132 0 -232 53l-65 -107 q-19 -28 -51 -35t-60 11q-29 17 -36.5 49zM319 356q0 -73 40.5 -122t97 -68t123.5 -19q50 0 94.5 11.5t82.5 35t60.5 65.5t22.5 97v271q-168 3 -281 96q-117 88 -129 240q-50 -26 -80.5 -73.5t-30.5 -111.5v-422zM588 999q1 -54 22.5 -95t58.5 -64.5t79.5 -35t91.5 -13.5 q-3 67 -41 115t-92 69.5t-119 23.5z" />
<glyph unicode="&#xf9;" horiz-adv-x="1148" d="M154 356v723q0 33 23 56.5t56 23.5q34 0 57 -23t23 -57v-723q0 -73 40 -122t96.5 -68t123.5 -19q68 0 124.5 19t96.5 68t40 122v723q0 34 23.5 57t57.5 23q33 0 56.5 -23.5t23.5 -56.5v-723q0 -174 -131 -278q-116 -90 -291 -90t-288 90q-131 104 -131 278zM301 1595 q11 31 40.5 46.5t59.5 5.5l412 -125q31 -11 46 -40t5 -61q-9 -32 -38 -47t-60 -6l-412 127q-31 9 -46.5 38.5t-6.5 61.5z" />
<glyph unicode="&#xfa;" horiz-adv-x="1148" d="M154 356v723q0 33 23 56.5t56 23.5q34 0 57 -23t23 -57v-723q0 -73 40 -122t96.5 -68t123.5 -19q68 0 124.5 19t96.5 68t40 122v723q0 34 23.5 57t57.5 23q33 0 56.5 -23.5t23.5 -56.5v-723q0 -174 -131 -278q-116 -90 -291 -90t-288 90q-131 104 -131 278zM281 1421 q-10 32 5 61t46 40l411 125q30 10 60 -5.5t41 -46.5q9 -32 -6.5 -61.5t-46.5 -38.5l-412 -127q-31 -9 -60 6t-38 47z" />
<glyph unicode="&#xfb;" horiz-adv-x="1148" d="M154 356v723q0 33 23 56.5t56 23.5q34 0 57 -23t23 -57v-723q0 -73 40 -122t96.5 -68t123.5 -19q68 0 124.5 19t96.5 68t40 122v723q0 34 23.5 57t57.5 23q33 0 56.5 -23.5t23.5 -56.5v-723q0 -174 -131 -278q-116 -90 -291 -90t-288 90q-131 104 -131 278zM227 1502.5 q-3 32.5 17 58.5q51 60 126 81t148 -4l152 -51q26 -9 52.5 -2t45.5 29q22 26 54.5 29t58.5 -19q26 -20 29 -53.5t-19 -59.5q-49 -60 -124.5 -81t-148.5 4l-151 53q-26 9 -53.5 1t-44.5 -30q-22 -25 -55 -28t-58 18q-26 22 -29 54.5z" />
<glyph unicode="&#xfc;" horiz-adv-x="1148" d="M154 356v723q0 33 23 56.5t56 23.5q34 0 57 -23t23 -57v-723q0 -73 40 -122t96.5 -68t123.5 -19q68 0 124.5 19t96.5 68t40 122v723q0 34 23.5 57t57.5 23q33 0 56.5 -23.5t23.5 -56.5v-723q0 -174 -131 -278q-116 -90 -291 -90t-288 90q-131 104 -131 278zM319 1458v113 q0 33 23.5 56.5t56.5 23.5q34 0 57 -23t23 -57v-113q0 -33 -23.5 -56.5t-56.5 -23.5q-32 0 -56 24t-24 56zM682 1458v113q0 33 23.5 56.5t56.5 23.5q34 0 57 -23t23 -57v-113q0 -33 -23.5 -56.5t-56.5 -23.5q-32 0 -56 24t-24 56z" />
<glyph unicode="&#xfd;" horiz-adv-x="1155" d="M143 354v725q0 34 23 57t57 23t57 -23t23 -57v-725q0 -72 39.5 -120.5t96 -67.5t124.5 -19q106 0 182 51t76 156v725q0 33 23.5 56.5t56.5 23.5q34 0 57 -23t23 -57v-1194q0 -175 -129 -276q-119 -92 -289 -92q-167 0 -280 83.5t-136 221.5q-5 34 14.5 61t53.5 31 q32 5 59 -14.5t31 -51.5q14 -88 88 -130t170 -42q67 0 123 19t95.5 68t39.5 122v172q-107 -69 -258 -69q-175 0 -291 90q-129 104 -129 276zM268 1421q-10 32 5 61t46 40l412 125q30 10 59.5 -5.5t40.5 -46.5q9 -32 -6.5 -61.5t-46.5 -38.5l-411 -127q-31 -9 -60.5 6 t-38.5 47z" />
<glyph unicode="&#xff;" horiz-adv-x="1155" d="M143 354v725q0 34 23 57t57 23t57 -23t23 -57v-725q0 -72 39.5 -120.5t96 -67.5t124.5 -19q106 0 182 51t76 156v725q0 33 23.5 56.5t56.5 23.5q34 0 57 -23t23 -57v-1194q0 -175 -129 -276q-119 -92 -289 -92q-167 0 -280 83.5t-136 221.5q-5 34 14.5 61t53.5 31 q32 5 59 -14.5t31 -51.5q14 -88 88 -130t170 -42q67 0 123 19t95.5 68t39.5 122v172q-107 -69 -258 -69q-175 0 -291 90q-129 104 -129 276zM301 1458v113q0 33 23.5 56.5t56.5 23.5q34 0 57 -23t23 -57v-113q0 -33 -23.5 -56.5t-56.5 -23.5q-32 0 -56 24t-24 56zM664 1458 v113q0 33 23 56.5t56 23.5q34 0 57 -23t23 -57v-113q0 -33 -23.5 -56.5t-56.5 -23.5q-32 0 -55.5 24t-23.5 56z" />
<glyph unicode="&#x152;" horiz-adv-x="1935" d="M154 406v827q0 199 147 315q130 103 332 103q186 0 317 -95v3q0 32 24 55.5t56 23.5h707q32 0 56 -23.5t24 -55.5q0 -33 -23.5 -56.5t-56.5 -23.5h-627v-258v-2v-258h573q34 0 58 -24t24 -58q0 -32 -24 -56t-58 -24h-573v-381v-258h643q33 0 56.5 -23.5t23.5 -56.5 q0 -32 -24 -56t-56 -24h-723q-32 0 -56 24t-24 56v2q-129 -94 -317 -94q-204 0 -332 104q-147 116 -147 314zM313 406q0 -68 28 -120t75 -81.5t101.5 -43.5t115.5 -14t115 14t100.5 43.5t74 81.5t27.5 120v681q-197 3 -323 105q-134 106 -146 274q-168 -63 -168 -233v-827z M639 1491q6 -122 96 -181t215 -61q-3 63 -31 110.5t-73 75.5t-97 41.5t-110 14.5z" />
<glyph unicode="&#x153;" horiz-adv-x="1808" d="M143 356v422q0 176 129 283q118 98 291 98q175 0 293 -98q28 -21 49 -49q17 26 47 49q118 98 293 98q173 0 291 -98q129 -108 129 -283v-135q0 -29 -18.5 -51.5t-47.5 -28.5l-614 -117v-90q0 -55 22.5 -97t60.5 -65.5t82.5 -35t94.5 -11.5q60 0 112 15.5t93.5 56 t50.5 100.5q6 32 33 52t59 16q32 -6 52 -33t16 -59q-22 -139 -135.5 -223t-280.5 -84q-175 0 -291 90q-24 19 -51 49q-21 -28 -49 -49q-116 -90 -291 -90q-176 0 -289 90q-131 104 -131 278zM303 356q0 -73 40 -122t96.5 -68t123.5 -19q50 0 94.5 11.5t82.5 35t60.5 65.5 t22.5 97v422q0 108 -76 164.5t-184 56.5q-107 0 -183.5 -56.5t-76.5 -164.5v-422zM985 610l520 99v69q0 108 -76.5 164.5t-183.5 56.5q-108 0 -184 -56.5t-76 -164.5v-168z" />
<glyph unicode="&#x178;" horiz-adv-x="1216" d="M174 854v717q0 34 23 57t57 23t57 -23t23 -57v-717q0 -55 22.5 -96.5t60.5 -65t82.5 -34.5t94.5 -11t93.5 11t81.5 34.5t60.5 65t22.5 96.5v717q0 33 23.5 56.5t56.5 23.5q34 0 57 -23t23 -57v-1217q0 -172 -129 -276q-116 -90 -289 -90q-167 0 -279 82.5t-137 222.5 q-6 33 14 59t54 31q32 6 58.5 -14t31.5 -52q9 -59 51.5 -99t94.5 -55.5t112 -15.5q106 0 182 51t76 156v201q-106 -68 -258 -68q-174 0 -291 91q-129 104 -129 276zM311 1819v112q0 33 23.5 56.5t56.5 23.5q34 0 57 -23t23 -57v-112q0 -33 -23.5 -56.5t-56.5 -23.5 q-32 0 -56 24t-24 56zM715 1819v112q0 33 23.5 56.5t56.5 23.5q34 0 56.5 -23t22.5 -57v-112q0 -33 -23 -56.5t-56 -23.5q-32 0 -56 24t-24 56z" />
<glyph unicode="&#x2c6;" horiz-adv-x="829" d="M84 1420.5q7 32.5 35 49.5l252 166q44 29 88 0l252 -166q28 -17 34.5 -49.5t-12.5 -60.5t-50.5 -35t-59.5 12l-209 138l-207 -138q-28 -19 -61 -12t-52 35q-17 28 -10 60.5z" />
<glyph unicode="&#x2dc;" horiz-adv-x="849" d="M83.5 1502.5q-3.5 32.5 16.5 58.5q51 60 126.5 81t148.5 -4l151 -51q26 -9 53 -2t46 29q22 26 54 29t58 -19q26 -20 29.5 -53.5t-18.5 -59.5q-49 -60 -124.5 -81t-148.5 4l-151 53q-26 9 -54 1t-45 -30q-22 -25 -54.5 -28t-57.5 18q-26 22 -29.5 54.5z" />
<glyph unicode="&#x2000;" horiz-adv-x="1067" />
<glyph unicode="&#x2001;" horiz-adv-x="2134" />
<glyph unicode="&#x2002;" horiz-adv-x="1067" />
<glyph unicode="&#x2003;" horiz-adv-x="2134" />
<glyph unicode="&#x2004;" horiz-adv-x="711" />
<glyph unicode="&#x2005;" horiz-adv-x="533" />
<glyph unicode="&#x2006;" horiz-adv-x="355" />
<glyph unicode="&#x2007;" horiz-adv-x="355" />
<glyph unicode="&#x2008;" horiz-adv-x="266" />
<glyph unicode="&#x2009;" horiz-adv-x="426" />
<glyph unicode="&#x200a;" horiz-adv-x="118" />
<glyph unicode="&#x2010;" horiz-adv-x="862" d="M113 819q0 33 23.5 56.5t56.5 23.5h477q34 0 57 -23t23 -57t-23 -57t-57 -23h-477q-33 0 -56.5 23.5t-23.5 56.5z" />
<glyph unicode="&#x2011;" horiz-adv-x="862" d="M113 819q0 33 23.5 56.5t56.5 23.5h477q34 0 57 -23t23 -57t-23 -57t-57 -23h-477q-33 0 -56.5 23.5t-23.5 56.5z" />
<glyph unicode="&#x2012;" horiz-adv-x="862" d="M113 819q0 33 23.5 56.5t56.5 23.5h477q34 0 57 -23t23 -57t-23 -57t-57 -23h-477q-33 0 -56.5 23.5t-23.5 56.5z" />
<glyph unicode="&#x2013;" horiz-adv-x="1110" d="M113 819q0 33 23.5 56.5t56.5 23.5h725q34 0 56.5 -23t22.5 -57t-22.5 -57t-56.5 -23h-725q-33 0 -56.5 23.5t-23.5 56.5z" />
<glyph unicode="&#x2014;" horiz-adv-x="1404" d="M61 819q0 33 23.5 56.5t56.5 23.5h1123q32 0 55.5 -23.5t23.5 -56.5t-23.5 -56.5t-55.5 -23.5h-1123q-33 0 -56.5 23.5t-23.5 56.5z" />
<glyph unicode="&#x2018;" horiz-adv-x="387" d="M74 1393v4q-3 20 6 41l70 164q12 30 42.5 42.5t61.5 0.5q30 -13 42.5 -44.5t0.5 -62.5l-23 -53q41 -38 41 -92q0 -50 -34.5 -85.5t-85.5 -35.5t-86 35.5t-35 85.5z" />
<glyph unicode="&#x2019;" horiz-adv-x="407" d="M82 1530q0 50 35 85.5t86 35.5t86 -35.5t35 -85.5v-4q3 -18 -7 -41l-69 -164q-12 -30 -43 -42.5t-62 -0.5q-31 13 -43 44t0 62l23 54q-41 38 -41 92z" />
<glyph unicode="&#x201a;" horiz-adv-x="387" d="M72 139q0 50 35 85.5t86 35.5t85.5 -35.5t34.5 -85.5v-4q3 -20 -6 -41l-69 -164q-12 -30 -43 -42.5t-62 -0.5q-30 13 -42.5 44.5t-0.5 62.5l23 53q-41 38 -41 92z" />
<glyph unicode="&#x201c;" horiz-adv-x="731" d="M74 1393v4q-3 20 6 41l70 164q12 30 42.5 42.5t61.5 0.5q30 -13 42.5 -44.5t0.5 -62.5l-23 -53q41 -38 41 -92q0 -50 -34.5 -85.5t-85.5 -35.5t-86 35.5t-35 85.5zM418 1393v4q-3 20 6 41l70 164q12 30 42.5 42.5t61.5 0.5q30 -13 42.5 -44.5t0.5 -62.5l-23 -53 q41 -38 41 -92q0 -50 -34.5 -85.5t-85.5 -35.5t-86 35.5t-35 85.5z" />
<glyph unicode="&#x201d;" horiz-adv-x="727" d="M72 1530q0 50 35 85.5t86 35.5t85.5 -35.5t34.5 -85.5v-4q3 -20 -6 -41l-69 -164q-12 -30 -43 -42.5t-62 -0.5q-31 13 -43 44t0 62l23 54q-41 38 -41 92zM412 1530q0 50 34.5 85.5t85.5 35.5t86 -35.5t35 -85.5v-4q3 -20 -6 -41l-69 -164q-12 -30 -43 -42.5t-62 -0.5 q-31 13 -43 44t0 62l23 54q-41 38 -41 92z" />
<glyph unicode="&#x201e;" horiz-adv-x="731" d="M72 139q0 50 35 85.5t86 35.5t85.5 -35.5t34.5 -85.5v-4q3 -20 -6 -41l-69 -164q-12 -30 -43 -42.5t-62 -0.5q-30 13 -42.5 44.5t-0.5 62.5l23 53q-41 38 -41 92zM416 137q0 50 35 85.5t86 35.5t85.5 -35.5t34.5 -85.5v-4q3 -20 -6 -41l-69 -164q-12 -30 -43 -42.5 t-62 -0.5q-30 13 -42.5 44.5t-0.5 62.5l23 53q-41 38 -41 92z" />
<glyph unicode="&#x2022;" horiz-adv-x="817" d="M154 803q0 106 75 181t179 75q106 0 181 -75t75 -181q0 -104 -75 -179t-181 -75q-104 0 -179 75t-75 179z" />
<glyph unicode="&#x2026;" horiz-adv-x="1107" d="M113 66v112q0 33 23.5 56.5t56.5 23.5q34 0 56.5 -23t22.5 -57v-112q0 -33 -23 -56.5t-56 -23.5q-32 0 -56 24t-24 56zM434 68v112q0 33 23.5 56.5t56.5 23.5q34 0 57 -23t23 -57v-112q0 -33 -23.5 -56.5t-56.5 -23.5q-32 0 -56 24t-24 56zM754 68v112q0 33 23.5 56.5 t56.5 23.5q34 0 56.5 -23t22.5 -57v-112q0 -33 -23 -56.5t-56 -23.5q-32 0 -56 24t-24 56z" />
<glyph unicode="&#x202f;" horiz-adv-x="426" />
<glyph unicode="&#x2039;" horiz-adv-x="794" d="M124 692.5q0 32.5 23 57.5l388 387q23 23 56 23t58 -23q22 -24 22.5 -56.5t-22.5 -56.5l-332 -332l332 -332q23 -24 22.5 -56t-22.5 -56q-25 -23 -58 -23t-56 23l-388 387q-23 25 -23 57.5z" />
<glyph unicode="&#x203a;" horiz-adv-x="794" d="M122.5 304q-0.5 32 22.5 56l332 332l-332 332q-23 24 -22.5 56.5t22.5 56.5q25 23 58.5 23t56.5 -23l387 -387q23 -25 23 -57.5t-23 -57.5l-387 -387q-23 -23 -56.5 -23t-58.5 23q-22 24 -22.5 56z" />
<glyph unicode="&#x205f;" horiz-adv-x="533" />
<glyph unicode="&#x20ac;" horiz-adv-x="1298" d="M41 696q0 32 24 56t56 24h139v115h-139q-33 0 -56.5 23.5t-23.5 56.5q0 32 24 56t56 24h139v182q0 198 148 313q126 105 329 105t332 -105q148 -117 148 -313q0 -34 -23 -57t-57 -23q-33 0 -56.5 23.5t-23.5 56.5q0 55 -18.5 99.5t-49 73.5t-72.5 48.5t-86.5 28 t-93.5 8.5q-61 0 -115 -14t-100.5 -43t-74 -81t-27.5 -120v-182h457q33 0 57 -23.5t24 -56.5q0 -34 -23.5 -57t-57.5 -23h-457v-115h457q33 0 57 -24t24 -56q0 -34 -23.5 -57t-57.5 -23h-457v-210q0 -68 27.5 -120t74 -81.5t100.5 -43.5t115 -14t116 14t102 43.5t74.5 81.5 t27.5 120q0 33 23.5 56t56.5 23q34 0 57 -22.5t23 -56.5q0 -197 -148 -314q-128 -104 -332 -104t-329 104q-148 115 -148 314v210h-139q-33 0 -56.5 23.5t-23.5 56.5z" />
<glyph unicode="&#x2122;" horiz-adv-x="1347" d="M82 1569q0 29 20.5 49t49.5 20h352q28 0 47.5 -20t19.5 -49q0 -28 -20 -48t-49 -20h-107v-522q0 -28 -19.5 -48t-47.5 -20q-29 0 -49.5 20t-20.5 48v522h-106q-29 0 -49.5 20t-20.5 48zM680 979v594q0 25 14 43t37 24t44.5 -3t33.5 -29l164 -285l166 285q10 20 31.5 29 t43.5 3q23 -6 37.5 -24t14.5 -43v-594q0 -28 -20 -48t-48 -20q-29 0 -49.5 20t-20.5 48v338l-96 -166q-21 -35 -59 -35q-39 0 -60 35l-96 166v-338q0 -28 -19.5 -48t-47.5 -20q-29 0 -49.5 20t-20.5 48z" />
<glyph unicode="&#x25fc;" horiz-adv-x="1157" d="M0 0v1157h1157v-1157h-1157z" />
<glyph unicode="&#xfb01;" horiz-adv-x="1255" d="M61 1067q0 33 23.5 56.5t56.5 23.5h129v123q0 174 129 282q119 99 291 99q33 0 56.5 -23.5t23.5 -56.5q0 -34 -23 -57t-57 -23q-107 0 -183.5 -56.5t-76.5 -164.5v-123h559h2q33 0 56.5 -23.5t23.5 -56.5v-999q0 -32 -24 -56t-56 -24q-34 0 -58 24t-24 56v919h-479v-919 q0 -33 -23.5 -56.5t-56.5 -23.5q-32 0 -56 24t-24 56v919h-129q-32 0 -56 24t-24 56zM909 1458v113q0 33 23.5 56.5t56.5 23.5q32 0 57 -24t25 -56v-113q0 -32 -25 -56t-57 -24q-33 0 -56.5 23.5t-23.5 56.5z" />
<glyph unicode="&#xfb02;" horiz-adv-x="1429" d="M61 1067q0 33 23.5 56.5t56.5 23.5h129v110q0 86 33.5 164.5t95.5 130.5q119 99 291 99q33 0 56.5 -23.5t23.5 -56.5q0 -34 -23 -57t-57 -23q-105 0 -182.5 -62.5t-77.5 -171.5v-110h479v424q0 34 23 57t57 23q33 0 56.5 -23.5t23.5 -56.5v-1217q0 -105 76 -156t182 -51 q34 0 58 -23t24 -56q0 -34 -24 -57t-58 -23q-173 0 -289 90q-129 104 -129 276v633h-479v-919q0 -33 -23.5 -56.5t-56.5 -23.5q-32 0 -56 24t-24 56v919h-129q-32 0 -56 24t-24 56z" />
</font>
</defs>
</svg>
