<?xml version="1.0" standalone="no"?>
<!DOCTYPE svg PUBLIC "-//W3C//DTD SVG 1.1//EN" "http://www.w3.org/Graphics/SVG/1.1/DTD/svg11.dtd" >
<svg xmlns="http://www.w3.org/2000/svg">
<metadata></metadata>
<defs>
<font id="ouishare_stencilbold" horiz-adv-x="1705" >
<font-face units-per-em="2048" ascent="1536" descent="-512" />
<missing-glyph horiz-adv-x="491" />
<glyph horiz-adv-x="2048" />
<glyph horiz-adv-x="2048" />
<glyph unicode="&#xd;" horiz-adv-x="2048" />
<glyph unicode=" "  horiz-adv-x="491" />
<glyph unicode="&#x09;" horiz-adv-x="491" />
<glyph unicode="&#xa0;" horiz-adv-x="491" />
<glyph unicode="!" horiz-adv-x="569" d="M123 166q0 68 47.5 115t114.5 47t114 -47t47 -115t-47 -115t-114 -47t-114.5 47t-47.5 115zM139 578v743q0 60 43 102.5t103 42.5t102.5 -42.5t42.5 -102.5v-743q0 -60 -42.5 -103t-102.5 -43t-103 43t-43 103z" />
<glyph unicode="&#x22;" />
<glyph unicode="$" horiz-adv-x="1187" d="M72.5 258q-3.5 60 36.5 104t100 48.5t104 -35.5q114 -101 310 -101q118 0 178 60q30 30 30 78q-3 76 -69 123q-47 36 -127 67l102 272q120 -46 201 -106q81 -64 129 -145q53 -95 53 -207q3 -170 -112 -285q-90 -94 -244 -131v-121q0 -60 -43 -102.5t-103 -42.5 t-102.5 42.5t-42.5 102.5v117q-87 16 -154 41q-121 49 -198 121q-45 40 -48.5 100zM102 1096q0 194 156 319q91 70 215 98v138q0 60 42.5 102.5t102.5 42.5t103 -42.5t43 -102.5v-148q124 -35 248 -108q51 -29 65.5 -88t-16.5 -111q-31 -51 -88.5 -65.5t-110.5 16.5 q-150 88 -264 88q-82 0 -143.5 -36t-61.5 -103q0 -16 1.5 -26.5t12.5 -32.5t31.5 -39.5t63.5 -39.5t104 -40q4 0 4 -3l-102 -270q-169 52 -266 139q-140 125 -140 312z" />
<glyph unicode="'" horiz-adv-x="559" d="M115 1360q0 27 4 39q15 55 61 88t101 33q87 0 133 -76l16 -27l-24 41q2 -4 8 -14q39 -63 39 -164q0 -82 -29 -178q-19 -55 -58 -96.5t-92 -51.5q-6 -2 -20 -2q-48 0 -87 34t-42 85q0 25 22.5 67t22.5 64q0 14 -6 29l-41 74q-8 24 -8 55z" />
<glyph unicode="*" horiz-adv-x="1021" d="M82 1122q0 51 35.5 87t85.5 36h92l-47 76q-19 32 -19 63q0 48 35.5 85.5t87.5 37.5q66 0 103 -59l47 -76l41 80q15 30 44.5 48t63.5 18q51 0 87 -37.5t36 -85.5q0 -31 -14 -56l-49 -94h106q51 0 87 -36t36 -87t-36 -86t-87 -35h-90l47 -77q19 -32 19 -64q0 -47 -34.5 -85 t-86.5 -38q-68 0 -105 60l-47 77l-45 -83q-15 -29 -43.5 -46.5t-60.5 -17.5q-52 0 -87.5 37t-35.5 86q0 30 14 55l49 96h-108q-50 0 -85.5 35t-35.5 86z" />
<glyph unicode="+" horiz-adv-x="937" d="M41 610q0 51 36 87t87 36h184v185q0 51 36 86.5t87 35.5t86 -35.5t35 -86.5v-185h186q51 0 86 -36t35 -87q0 -50 -35 -85.5t-86 -35.5h-186v-186q0 -50 -35 -85.5t-86 -35.5t-87 35.5t-36 85.5v186h-184q-51 0 -87 35.5t-36 85.5z" />
<glyph unicode="," horiz-adv-x="565" d="M109 166q0 65 51 116.5t127 51.5q85 0 133 -80q37 -63 37 -178q0 -71 -11 -113q-5 -21 -12 -43.5t-23.5 -56t-36.5 -58.5t-51.5 -43t-68.5 -18q-55 0 -95 39.5t-40 79.5q0 32 25.5 71.5t25.5 63.5q0 38 -30.5 82t-30.5 86z" />
<glyph unicode="-" horiz-adv-x="1136" d="M139 618q0 51 36 87t87 36h615q51 0 85.5 -36t34.5 -87q0 -50 -34.5 -85t-85.5 -35h-615q-51 0 -87 35t-36 85z" />
<glyph unicode="." horiz-adv-x="538" d="M106 166q0 68 47 115t115 47t115 -47t47 -115t-47 -115t-115 -47t-115 47t-47 115z" />
<glyph unicode="/" horiz-adv-x="1021" d="M20 47q0 28 15 55l735 1393q17 30 47.5 48t63.5 18q51 0 85.5 -38.5t34.5 -86.5q0 -31 -14 -56l-735 -1392q-17 -30 -46.5 -48t-62.5 -18q-52 0 -87.5 38.5t-35.5 86.5z" />
<glyph unicode="0" horiz-adv-x="1150" d="M127 485v519q0 56 12 115t42.5 123.5t74.5 116t115.5 88t158.5 44.5v-279q-64 -19 -100.5 -81.5t-36.5 -129.5v-514q0 -78 35.5 -136t101.5 -72v-279q-74 6 -135.5 31.5t-104.5 64t-75.5 85.5t-51 100.5t-27.5 104t-9 99.5zM621 0v279q66 14 101.5 72t35.5 136v514 q0 67 -36.5 129.5t-100.5 81.5v279q87 -8 158.5 -44.5t115.5 -88t74.5 -116t42.5 -123.5t12 -115v-519q0 -49 -9 -99.5t-27.5 -104t-51 -100.5t-75.5 -85.5t-104.5 -64t-135.5 -31.5z" />
<glyph unicode="1" horiz-adv-x="706" d="M14 1073q0 64 45 109l258 260q49 49 99 49q54 0 94.5 -43t40.5 -105v-1193q0 -65 -41 -107.5t-96 -42.5q-54 0 -94.5 42.5t-40.5 107.5v878q-4 1 -14 -13.5t-23 -33t-39.5 -34t-57.5 -15.5q-55 0 -93 39.5t-38 101.5z" />
<glyph unicode="2" horiz-adv-x="1130" d="M121 145q0 56 39 105q22 28 251 304t232 280q39 50 57.5 88t18.5 88q0 82 -51.5 142t-135.5 60q-37 0 -68.5 -15.5t-53.5 -37t-43 -43.5t-46.5 -37.5t-54.5 -15.5q-54 0 -91.5 41.5t-37.5 101.5q0 47 27 86q143 199 371 199q138 0 243 -66.5t158 -175t53 -239.5 q0 -168 -112 -316q-86 -112 -186.5 -230t-224 -256t-183.5 -208h-29q-58 0 -95.5 44t-37.5 101zM401 0q15 17 104.5 121t137.5 158h244q57 0 92 -42.5t35 -97.5q0 -53 -35 -96t-92 -43h-486z" />
<glyph unicode="3" horiz-adv-x="1081" d="M109 264q0 54 37.5 93.5t95.5 39.5q28 0 54 -13.5t47.5 -32.5t44 -37.5t53.5 -32t67 -13.5q78 0 133 50.5t55 121.5q0 43 -22 82q127 38 233 133q60 -102 60 -215q0 -181 -135 -310.5t-324 -129.5q-78 0 -169 32.5t-160.5 95.5t-69.5 136zM111 1231q0 56 42 106.5 t104.5 83t129.5 51.5t121 19q123 0 229 -59.5t168 -161t62 -219.5q0 -57 -21 -125q-48 -138 -168 -225t-270 -87q-57 0 -96 36t-39 93t39.5 96.5t95.5 39.5q78 0 133 50.5t55 121.5t-55 121.5t-133 50.5q-42 0 -80 -20t-61.5 -43.5t-56 -43.5t-64.5 -20q-56 0 -95.5 40.5 t-39.5 94.5z" />
<glyph unicode="4" horiz-adv-x="1003" d="M53 358q0 44 19 86l334 955q14 41 47.5 66.5t74.5 25.5q55 0 94.5 -40.5t39.5 -102.5q0 -29 -13 -70l-287 -795h164v80q0 63 39.5 105.5t93.5 42.5t94 -42.5t40 -105.5v-76h26q51 0 89 -39.5t38 -99.5q0 -61 -37.5 -99t-89.5 -38h-26v-66q0 -57 -37.5 -101t-96.5 -44 q-53 0 -93 40t-40 105v66h-338q-59 0 -97 42.5t-38 104.5z" />
<glyph unicode="5" horiz-adv-x="1181" d="M129 254q0 58 43.5 102.5t103.5 44.5q66 0 109 -49q64 -76 166 -76q94 0 159.5 66t65.5 160t-65.5 160.5t-159.5 66.5q-47 0 -101 -23t-81 -42q-39 -25 -82 -25q-62 0 -104 43.5t-42 101.5v31q73 94 180 149.5t232 55.5q256 0 395 -174q55 -69 87 -148.5t32 -195.5 q0 -138 -69 -256.5t-188 -189t-259 -70.5q-81 0 -176.5 32t-170.5 96t-75 140zM141 983v336q0 60 43 102.5t103 42.5h604q60 0 102.5 -42.5t42.5 -102.5t-42.5 -102.5t-102.5 -42.5h-459v-50q-164 -30 -291 -141z" />
<glyph unicode="6" horiz-adv-x="1169" d="M127 498v514q0 105 38.5 196.5t101.5 154t146 98.5t171 36q57 0 126 -16.5t132.5 -45.5t106 -76t42.5 -102q0 -57 -42 -98t-97 -41q-54 0 -92 35q-75 66 -176 66q-66 0 -122 -57.5t-56 -149.5v-43q66 25 124 30v-280q-124 -30 -124 -219q0 -72 31.5 -130.5t92.5 -80.5 v-285q-120 16 -213 88.5t-141.5 179t-48.5 226.5zM664 4v287q60 22 91 80t31 129q0 185 -122 219v280q184 -19 292 -153q109 -133 109 -346q0 -190 -111 -329t-290 -167z" />
<glyph unicode="7" horiz-adv-x="1073" d="M109 1335q0 60 42.5 103t102.5 43h635q59 0 102 -43t43 -103q0 -30 -12 -57l-10 -23h-101q-175 0 -290 -65h-367q-60 0 -102.5 42.5t-42.5 102.5zM231 143q0 29 13 58l344 800q30 55 93.5 88t117.5 41.5t112 8.5h52l-453 -1053q-19 -41 -55 -64.5t-78 -23.5 q-63 0 -104.5 43.5t-41.5 101.5z" />
<glyph unicode="8" horiz-adv-x="1179" d="M43 457l2 30q8 121 92 228q3 -2 5.5 -4.5t5.5 -6t4 -4.5q101 -98 213 -125q-35 -50 -35 -112q0 -81 56.5 -139t133.5 -58t134 58t57 139q0 75 -52.5 131.5t-126.5 62.5h-22q-172 6 -293 121.5t-121 292.5q0 172 123.5 292t302.5 120q175 0 299.5 -121t124.5 -291 q0 -98 -47 -190q-17 9 -58 33t-63.5 36t-59.5 26.5t-73 20.5q14 35 14 66q0 62 -41 103.5t-98 41.5q-60 0 -99.5 -38t-39.5 -107q0 -73 37 -120.5t102 -47.5q54 0 114 -13.5t125.5 -47t117 -82t85 -125.5t33.5 -170q0 -126 -63 -230.5t-172 -164.5t-240 -60 q-199 0 -338 130.5t-139 324.5z" />
<glyph unicode="9" horiz-adv-x="1169" d="M104 995q0 192 111 331t291 167v-287q-60 -22 -91.5 -80.5t-31.5 -130.5q0 -182 123 -217v-280q-185 19 -293 153q-109 133 -109 344zM178 240q0 57 42 98t97 41q52 0 93 -35q74 -65 176 -65q64 0 121 55t57 151v41q-59 -22 -125 -28v280q125 31 125 219q0 72 -32 130.5 t-93 80.5v285q117 -16 210 -89t143 -179.5t50 -225.5v-514q0 -134 -62.5 -246t-167 -175.5t-226.5 -63.5q-59 0 -127.5 16.5t-132 45.5t-106 76t-42.5 102z" />
<glyph unicode=":" horiz-adv-x="559" d="M117 166q0 68 47.5 115t114.5 47t114 -47t47 -115t-47 -115t-114 -47t-114.5 47t-47.5 115zM117 780q0 68 47.5 115t114.5 47t114 -47t47 -115t-47 -115t-114 -47t-114.5 47t-47.5 115z" />
<glyph unicode=";" horiz-adv-x="567" d="M113 780q0 68 47 115t114 47q68 0 115 -47t47 -115t-47 -115t-115 -47q-67 0 -114 47t-47 115zM125 166q0 51 30.5 93.5t84.5 62.5q34 12 63 12q85 0 133 -80q37 -63 37 -178q0 -75 -10 -113q-28 -123 -92 -178q-48 -41 -101 -41q-60 0 -100 43q-35 38 -35 76q0 15 15 55 q4 9 14 24t16 28t6 28q0 6 -4 22q-7 24 -24 48t-23 41q-10 30 -10 57z" />
<glyph unicode="&#x3c;" horiz-adv-x="1095" d="M25 745q0 77 63 121l639 428q39 25 82 25q56 0 100.5 -42t44.5 -103q0 -77 -65 -121q-86 -69 -457 -310l455 -307q65 -44 65 -121q0 -45 -24 -82q-45 -63 -121 -63q-43 0 -82 25l-637 430q-63 44 -63 120z" />
<glyph unicode="=" horiz-adv-x="1140" d="M141 326q0 51 36 85.5t87 34.5h615q51 0 85.5 -34.5t34.5 -85.5t-34.5 -87t-85.5 -36h-615q-51 0 -87 36t-36 87zM141 655q0 51 36 86t87 35h615q51 0 85.5 -35t34.5 -86t-34.5 -87t-85.5 -36h-615q-51 0 -87 36t-36 87z" />
<glyph unicode="&#x3e;" horiz-adv-x="1097" d="M143 1174q0 61 45 103t101 42q43 0 82 -25l639 -428q63 -44 63 -121q0 -76 -63 -120l-637 -430q-39 -25 -82 -25q-76 0 -121 63q-25 39 -25 82q0 76 66 121l455 307q-371 241 -457 310q-66 45 -66 121z" />
<glyph unicode="?" horiz-adv-x="1058" d="M51 1204q0 64 64 123t147 100q111 54 232 54q215 0 355 -111.5t140 -282.5q0 -99 -51 -180.5t-143 -167.5q-65 -61 -87 -90t-22 -63q0 -59 -40.5 -99.5t-98.5 -40.5t-98.5 40.5t-40.5 99.5q0 81 31 152.5t76 120t89.5 89t75.5 76t31 63.5q0 39 -62 77t-155 38 q-109 0 -205 -96q-41 -41 -99 -41q-57 0 -98 41t-41 98zM397 147q0 65 43.5 108.5t108.5 43.5q64 0 107.5 -43.5t43.5 -108.5t-43 -108t-108 -43t-108.5 43.5t-43.5 107.5z" />
<glyph unicode="A" horiz-adv-x="1353" d="M70 147q0 24 10 54l330 854q117 -73 198 -291l-258 -670q-17 -42 -53.5 -67t-81.5 -25q-63 0 -104 43t-41 102zM459 1180l84 221q15 41 52.5 66.5t82.5 25.5t81.5 -25.5t53.5 -68.5l461 -1198q10 -30 10 -54q0 -59 -41 -102t-104 -43q-44 0 -81 25.5t-54 68.5l-66 168 h-367l113 291h143l-26 68q-2 4 -28 83.5t-48 129.5l-10 24q-47 123 -120.5 206t-135.5 114z" />
<glyph unicode="B" horiz-adv-x="1396" d="M152 147v1196q0 62 43 105t104 43h147v-1491h-147q-61 0 -104 43t-43 104zM582 676v295h100q38 0 63.5 3.5t50.5 14t37.5 34t12.5 60.5t-12.5 60.5t-37.5 34.5t-50.5 14.5t-63.5 3.5h-100v295h34q162 0 230 -25q141 -53 218 -157t77 -230q0 -110 -45 -190q39 -25 69 -55 q135 -135 135 -330q0 -87 -28 -166q-31 -87 -80 -150.5t-103 -99t-126 -56t-134 -26.5t-141 -6h-104v297h141q68 0 123 16.5t95 60.5t40 111t-39.5 111.5t-95.5 62t-123 17.5h-143z" />
<glyph unicode="C" horiz-adv-x="1292" d="M113 616v64h290v-64q0 -67 11 -120.5t26.5 -87t41.5 -57.5t46 -35t50.5 -17.5t45.5 -7t40 -0.5q68 0 120 20.5t83 49.5t57 58t55.5 49.5t64.5 20.5q60 0 103 -42.5t43 -102.5q0 -42 -23 -80q-170 -264 -503 -264q-273 0 -420 182q-131 161 -131 434zM113 813v68 q0 273 131 434q147 182 420 182q238 0 403 -186q125 -143 125 -236q0 -60 -42.5 -102.5t-102.5 -42.5q-47 0 -85.5 27.5t-52.5 70.5q-3 7 -9 19t-28 43t-47.5 54.5t-69 42.5t-91.5 19q-25 0 -40 -0.5t-45.5 -7t-50.5 -17.5t-46 -35t-41.5 -57.5t-26.5 -87t-11 -120.5v-68 h-290z" />
<glyph unicode="D" horiz-adv-x="1388" d="M152 147v1196q0 62 43.5 105t107.5 43h143v-1491h-147q-61 0 -104 43t-43 104zM578 0h235q102 0 203.5 58t170 160.5t68.5 217.5v619q0 183 -124 309.5t-316 126.5h-237v-293h239q65 0 106.5 -36.5t41.5 -100.5v-619q0 -153 -254 -153q-26 0 -65.5 2t-49.5 2 q-14 0 -18 -2v-291z" />
<glyph unicode="E" horiz-adv-x="1370" d="M154 145v1201q0 60 42.5 102.5t102.5 42.5h145v-596h494q62 0 104.5 -42.5t42.5 -104.5q0 -60 -43 -103t-104 -43h-494v-602h-145q-55 0 -100 45t-45 100zM578 0v291h501q60 0 103 -43t43 -103t-43 -102.5t-103 -42.5h-501zM578 1200v291h501q60 0 103 -42.5t43 -102.5 t-43 -103t-103 -43h-501z" />
<glyph unicode="F" horiz-adv-x="1247" d="M152 145q0 -57 44.5 -101t100.5 -44q60 0 102.5 39t42.5 106v457h494q61 0 104 43t43 103q0 62 -42.5 104.5t-104.5 42.5h-494v596h-145q-60 0 -102.5 -42.5t-42.5 -102.5v-1201zM575 1200v291h502q60 0 103 -42.5t43 -102.5t-43 -103t-103 -43h-502z" />
<glyph unicode="G" horiz-adv-x="1298" d="M113 616v64h290v-64q0 -67 11 -120.5t26 -87t40.5 -57.5t46 -35t51.5 -17.5t46.5 -7t41.5 -0.5q108 0 169.5 55t61.5 162v74h-131q-60 0 -102.5 42.5t-42.5 102.5t42.5 102.5t102.5 42.5h276q60 0 103 -42.5t43 -102.5v-219q0 -122 -44 -221t-118.5 -160.5t-167 -94 t-194.5 -32.5q-273 0 -420 182q-131 161 -131 434zM113 813v68q0 273 131 434q147 182 420 182q79 0 166 -29.5t166.5 -87.5t123.5 -131q17 -31 17 -67q0 -60 -43 -103t-103 -43q-59 0 -139 80q-98 98 -184 98q-25 0 -43 -1t-47.5 -8t-51 -19t-46.5 -37t-40.5 -59t-26 -88 t-10.5 -121v-68h-290z" />
<glyph unicode="H" horiz-adv-x="1392" d="M152 147v1201q0 60 42.5 102.5t102.5 42.5t102.5 -42.5t42.5 -102.5v-459h187v-291h-187v-451q0 -60 -42.5 -102.5t-102.5 -42.5t-102.5 42.5t-42.5 102.5zM762 598v291h186v459q0 60 43 102.5t103 42.5t102.5 -42.5t42.5 -102.5v-1201q0 -60 -42.5 -102.5t-102.5 -42.5 t-103 42.5t-43 102.5v451h-186z" />
<glyph unicode="I" horiz-adv-x="591" d="M147 145v551h291v-551q0 -60 -42.5 -102.5t-102.5 -42.5t-103 42.5t-43 102.5zM147 829v517q0 60 43 102.5t103 42.5t102.5 -42.5t42.5 -102.5v-517h-291z" />
<glyph unicode="J" horiz-adv-x="962" d="M23 248q0 60 39 95.5t96 35.5q65 0 104 -39q36 -37 69 -53.5t77 -16.5q49 0 82.5 23.5t33.5 71.5v981q0 60 43 102.5t103 42.5t102.5 -42.5t42.5 -102.5v-990q0 -62 -18 -121.5t-56 -113.5t-106.5 -87.5t-159.5 -33.5q-79 0 -142 7t-102 17t-72 27t-49.5 30.5t-35.5 33.5 q-23 23 -37 59.5t-14 73.5z" />
<glyph unicode="K" horiz-adv-x="1366" d="M152 145v1201q0 60 42.5 102.5t102.5 42.5t102.5 -42.5t42.5 -102.5v-428v-773q0 -60 -42.5 -102.5t-102.5 -42.5t-102.5 42.5t-42.5 102.5zM575 639v412l398 397q43 43 102 43t104.5 -44.5t45.5 -105.5q0 -57 -43 -100zM674 547l213 215l305 -545q20 -33 20 -72 q0 -56 -42.5 -100.5t-102.5 -44.5q-39 0 -73 20t-54 56z" />
<glyph unicode="L" horiz-adv-x="1255" d="M152 145v1201q0 60 42.5 102.5t102.5 42.5t102.5 -42.5t42.5 -102.5v-1346h-145q-65 0 -105 40t-40 105zM575 0v291h519q60 0 102.5 -43t42.5 -103t-42.5 -102.5t-102.5 -42.5h-519z" />
<glyph unicode="M" horiz-adv-x="1863" d="M152 143v852q128 -17 217 -106q9 -10 73 -74v-674q0 -60 -42.5 -101.5t-102.5 -41.5t-102.5 42.5t-42.5 102.5zM152 1124v224q0 59 41 101t104 42q61 0 102 -41l531 -528l532 528q41 41 103 41q60 0 102.5 -42t42.5 -101v-224q-169 -18 -291 -127l-385 -383 q-43 -43 -104 -43q-60 0 -103 43l-385 381q-122 111 -290 129zM1419 143v672l74 74q89 89 217 106v-852q0 -60 -42.5 -102.5t-102.5 -42.5t-103 42.5t-43 102.5z" />
<glyph unicode="N" horiz-adv-x="1406" d="M150 150v774q139 -39 247 -209l49 -78v-487q0 -66 -44.5 -108t-102.5 -42q-60 0 -104.5 42t-44.5 108zM150 1061v266q0 69 46 111.5t107 42.5t125 -56l8 -6l492 -764q42 -63 81 -109t105 -92.5t141 -64.5v-231q0 -67 -44.5 -108.5t-102.5 -41.5q-46 0 -74.5 16t-54.5 44 l-471 720q-157 240 -358 273zM958 852v489q0 65 45 107.5t105 42.5q58 0 102.5 -42.5t44.5 -107.5v-813q-58 20 -108.5 68t-106.5 133z" />
<glyph unicode="O" horiz-adv-x="1253" d="M115 518v178h288v-182q0 -106 66 -164.5t156 -58.5q91 0 158 59.5t67 163.5v182h289v-178q0 -142 -70 -261.5t-190.5 -188t-262.5 -68.5q-218 0 -359.5 147.5t-141.5 370.5zM115 829v144q0 145 68.5 264t187 186.5t262.5 67.5q143 0 259.5 -69t181.5 -187.5t65 -261.5 v-144h-289v144q0 106 -65.5 165.5t-155.5 59.5q-92 0 -159 -59.5t-67 -165.5v-144h-288z" />
<glyph unicode="P" horiz-adv-x="1316" d="M152 147v1196q0 62 43 105t104 43h147v-1344q0 -61 -43 -104t-104 -43t-104 43t-43 104zM582 592v295h168q239 0 239 155q0 47 -20 79t-56.5 47.5t-75 21.5t-87.5 6h-168v295h178q161 0 229 -25q144 -53 219.5 -160t75.5 -247q0 -90 -31 -174.5t-90 -143.5 q-93 -92 -191 -120.5t-255 -28.5h-135z" />
<glyph unicode="Q" horiz-adv-x="1316" d="M115 518v178h288v-182q0 -106 72.5 -164.5t171.5 -58.5q17 0 49 4q-24 37 -24 80q0 58 44 101.5t103 43.5q34 0 72 -20v196h291v-178q0 -127 -64 -239l31 -31q43 -43 43 -103q0 -57 -42.5 -101t-102.5 -44t-103 43l-31 31q-129 -74 -274 -74t-265 67.5t-189.5 186.5 t-69.5 264zM115 829v144q0 108 43.5 205t116.5 165t171.5 108t206.5 40q107 0 205 -40.5t169 -109.5t113 -165.5t42 -202.5v-144h-291v144q0 106 -72 165.5t-170 59.5q-100 0 -173 -59.5t-73 -165.5v-144h-288z" />
<glyph unicode="R" horiz-adv-x="1310" d="M154 147v1196q0 62 40.5 105t98.5 43h141v-1344q0 -61 -41 -104t-100 -43q-58 0 -98.5 42.5t-40.5 104.5zM561 592v295h139q228 0 228 155q0 47 -19 79t-54 47.5t-71.5 21.5t-83.5 6h-139v295h150q154 0 217 -25q136 -53 208 -160t72 -247q0 -89 -29.5 -174.5 t-84.5 -143.5q-89 -92 -182 -120.5t-242 -28.5h-109zM737 459q157 6 279 67l143 -315q12 -24 12 -49v-15q0 -57 -37.5 -101t-99.5 -44q-87 0 -127 84z" />
<glyph unicode="S" horiz-adv-x="1261" d="M104 266q0 60 44 103t102 43q28 0 56 -14t56.5 -34.5t64.5 -41t95.5 -34.5t132.5 -14q90 0 149.5 37t59.5 101q0 113 -196 190l102 272q183 -70 283 -187t100 -271v-8q0 -123 -67.5 -220.5t-180.5 -149.5t-250 -52q-82 0 -175 18t-178.5 51t-141.5 88.5t-56 122.5z M135 1096q0 184 142.5 307t353.5 123q191 0 413 -131q70 -42 70 -123q0 -63 -43 -104.5t-102 -41.5q-37 0 -74 21q-150 88 -264 88q-82 0 -143.5 -36t-61.5 -103q0 -15 2 -27t13.5 -34t32.5 -40.5t65 -40.5t104 -39l-102 -270q-171 53 -267 139q-139 124 -139 312z" />
<glyph unicode="T" horiz-adv-x="1214" d="M63 1343q0 60 43 103t103 43h797q60 0 102.5 -43t42.5 -103t-42.5 -102.5t-102.5 -42.5h-797q-60 0 -103 42.5t-43 102.5zM461 143v922h291v-922q0 -60 -43 -102.5t-103 -42.5t-102.5 42.5t-42.5 102.5z" />
<glyph unicode="U" horiz-adv-x="1263" d="M133 526v168h270v-168q0 -54 15 -96.5t40.5 -66.5t51.5 -40t56 -22t44.5 -8t26.5 -2q34 0 70 13t70.5 39t56.5 73.5t22 109.5v168h272v-168q0 -116 -40 -215.5t-107.5 -167t-157 -105.5t-186.5 -38q-173 0 -311 104q-193 146 -193 422zM133 827v523q0 60 39 102.5 t96 42.5q56 0 95.5 -42.5t39.5 -102.5v-523h-270zM856 827v523q0 60 40.5 102.5t96.5 42.5q57 0 96 -42.5t39 -102.5v-523h-272z" />
<glyph unicode="V" horiz-adv-x="1351" d="M68 1346q0 58 41.5 101.5t103.5 43.5q45 0 81.5 -25t53.5 -67l258 -672l-16 -45q-22 -60 -47.5 -105.5t-53 -73t-43 -39.5t-38.5 -26l-330 854q-10 30 -10 54zM457 313q62 31 135.5 113.5t120.5 206.5q63 166 176 465t112 299q17 43 54.5 68.5t81.5 25.5 q62 0 103.5 -43.5t41.5 -101.5q0 -24 -10 -54l-461 -1200q-15 -41 -52 -66.5t-83 -25.5q-45 0 -82.5 25.5t-52.5 66.5z" />
<glyph unicode="W" horiz-adv-x="1957" d="M92 1346q0 58 41.5 101.5t104.5 43.5q45 0 81.5 -25t53.5 -67q129 -335 258 -666l-35 -86q-48 -160 -164 -209l-330 854q-10 30 -10 54zM481 313q85 34 135.5 98.5t92.5 168.5q18 47 44.5 118.5t40 107t35.5 82t41 68t47 37t62 15.5q44 0 82 -27t55 -70q9 -25 59 -150 t72 -186l15 -38q28 -77 84.5 -135t132.5 -89l-86 -221q-17 -41 -54.5 -66.5t-81.5 -25.5q-50 0 -87 27.5t-52 72.5q-20 54 -67.5 176.5t-71.5 188.5q-13 -35 -62.5 -165t-76.5 -200q-13 -44 -51 -72t-84 -28q-47 0 -86 25.5t-54 66.5zM1329 733q49 126 137.5 357.5 t118.5 308.5q17 42 53.5 67t81.5 25q64 0 106 -43.5t42 -101.5q0 -27 -10 -54l-332 -854q-101 45 -148 166l-16 43q-30 73 -33 86z" />
<glyph unicode="X" horiz-adv-x="1460" d="M143 145q0 39 23 78l283 443l75 -113q50 -74 142 -90l-256 -395q-46 -68 -123 -68q-62 0 -103 44t-41 101zM156 1356q0 58 41.5 101.5t103.5 43.5q48 0 73 -15.5t48 -49.5q86 -132 309 -457l307 457q20 30 52.5 46.5t68.5 16.5q43 0 80 -24q64 -43 64 -121q0 -43 -25 -82 l-430 -637q-20 -29 -52 -46.5t-67 -17.5q-78 0 -121 66l-428 639q-24 38 -24 80zM799 463q79 12 133 88l78 115l284 -443q20 -35 23 -78q0 -58 -41.5 -101.5t-104.5 -43.5q-77 0 -120 68z" />
<glyph unicode="Y" horiz-adv-x="1228" d="M63 1346q0 58 43.5 101.5t102.5 43.5q65 0 108 -49l297 -340q57 -67 101.5 -148.5t44.5 -148.5v-660q0 -60 -43 -102.5t-103 -42.5t-102.5 42.5t-42.5 102.5v680l-371 424q-35 38 -35 97zM676 1171l235 271q43 49 109 49q53 0 96 -37q49 -43 49 -108q0 -54 -37 -97 l-294 -338q-20 78 -64.5 147t-93.5 113z" />
<glyph unicode="Z" horiz-adv-x="1429" d="M135 145q0 42 27 84q645 903 696 973q39 52 87 144.5t48 144.5h148q57 0 101 -42t44 -101q0 -46 -29 -86l-696 -973q-73 -102 -106 -168.5t-33 -120.5h-141q-60 0 -103 42t-43 103zM182 1346q0 60 43 102.5t103 42.5h528q-4 -23 -14 -48t-19 -44t-28.5 -49t-30 -45 t-37 -51.5t-37.5 -51.5h-362q-60 0 -103 42t-43 102zM559 0q5 28 15 54.5t31 59.5t33 51.5t45 63t44 60.5h408q60 0 101.5 -42t41.5 -102t-41.5 -102.5t-101.5 -42.5h-576z" />
<glyph unicode="\" horiz-adv-x="1021" d="M20 1436q0 48 35 86.5t86 38.5q33 0 63.5 -18t47.5 -48l735 -1393q14 -25 14 -55q0 -48 -35 -86.5t-87 -38.5q-33 0 -62.5 18t-46.5 48l-735 1392q-15 27 -15 56z" />
<glyph unicode="_" horiz-adv-x="1554" d="M143 -303q0 51 36 87t87 36h1024q51 0 86 -36t35 -87q0 -50 -35 -85.5t-86 -35.5h-1024q-51 0 -87 35.5t-36 85.5z" />
<glyph unicode="o" horiz-adv-x="2220" />
<glyph unicode="|" horiz-adv-x="555" d="M152 -166v1340q0 51 35.5 85.5t86.5 34.5q50 0 85.5 -34.5t35.5 -85.5v-1340q0 -51 -35.5 -87t-85.5 -36q-51 0 -86.5 36t-35.5 87z" />
<glyph unicode="&#xa1;" horiz-adv-x="569" d="M123 1341q0 67 47.5 114.5t114.5 47.5t114 -47t47 -115q0 -67 -47 -114t-114 -47q-68 0 -115 47t-47 114zM139 186v744q0 60 43 102.5t103 42.5t102.5 -42.5t42.5 -102.5v-744q0 -60 -42.5 -102.5t-102.5 -42.5t-103 42.5t-43 102.5z" />
<glyph unicode="&#xa3;" horiz-adv-x="1255" d="M152 145v1201q0 60 42.5 102.5t102.5 42.5t102.5 -42.5t42.5 -102.5v-1346h-145q-65 0 -105 40t-40 105zM442 920h494q51 0 86 35t35 85q0 51 -35 87t-86 36h-494v-243zM575 0v291h519q60 0 102.5 -43t42.5 -103t-42.5 -102.5t-102.5 -42.5h-519z" />
<glyph unicode="&#xa4;" />
<glyph unicode="&#xa6;" horiz-adv-x="555" d="M152 121v1339q0 51 35.5 86t86.5 35q50 0 85.5 -35t35.5 -86v-1339q0 -51 -35.5 -87t-85.5 -36q-51 0 -86.5 36t-35.5 87z" />
<glyph unicode="&#xad;" horiz-adv-x="1136" d="M139 618q0 51 36 87t87 36h615q51 0 85.5 -36t34.5 -87q0 -50 -34.5 -85t-85.5 -35h-615q-51 0 -87 35t-36 85z" />
<glyph unicode="&#xb0;" horiz-adv-x="870" d="M106 1253q0 137 97 233.5t233 96.5t233 -96.5t97 -233.5q0 -136 -96.5 -232.5t-233.5 -96.5t-233.5 96.5t-96.5 232.5zM340 1253q0 -40 28 -68t68 -28t68 28t28 68t-28 68.5t-68 28.5t-68 -28.5t-28 -68.5z" />
<glyph unicode="&#xb1;" horiz-adv-x="1081" d="M84 121q0 -50 36 -85.5t87 -35.5h676q51 0 86 35.5t35 85.5q0 51 -35 87t-86 36h-676q-51 0 -87 -36t-36 -87zM102 795q0 51 36 87t87 36h185v184q0 51 35.5 87t86.5 36t86 -36t35 -87v-184h187q51 0 86 -36t35 -87q0 -50 -35 -85.5t-86 -35.5h-187v-187q0 -50 -35 -85 t-86 -35t-86.5 35t-35.5 85v187h-185q-51 0 -87 35.5t-36 85.5z" />
<glyph unicode="&#xc0;" horiz-adv-x="1359" d="M76 147q0 24 10 54l330 854q117 -73 198 -291l-258 -670q-17 -42 -53.5 -67t-81.5 -25q-63 0 -104 43t-41 102zM422 1765q0 31 12 58q15 37 48 59.5t71 22.5q21 0 47 -11l281 -122q36 -15 56.5 -47t20.5 -70q0 -29 -10 -49q-15 -36 -47 -57t-70 -21q-29 0 -49 10 l-288 113q-34 13 -53 44.5t-19 69.5zM465 1180l84 221q15 41 52.5 66.5t82.5 25.5t81.5 -25.5t53.5 -68.5l461 -1198q10 -30 10 -54q0 -59 -41 -102t-104 -43q-44 0 -81 25.5t-54 68.5l-66 168h-366l112 291h144l-27 68q-2 4 -28 83.5t-48 129.5l-10 24q-47 123 -120.5 206 t-135.5 114z" />
<glyph unicode="&#xc1;" horiz-adv-x="1359" d="M72 147q0 24 10 54l330 854q117 -73 198 -291l-258 -670q-17 -42 -53.5 -67t-81.5 -25q-63 0 -104 43t-41 102zM397 1655q0 38 21 70t57 47l281 122q26 11 47 11q38 0 71 -22.5t48 -59.5q12 -27 12 -58q0 -38 -19 -69.5t-53 -44.5l-289 -113q-20 -10 -49 -10 q-37 0 -69 21t-47 57q-11 22 -11 49zM461 1180l84 221q15 41 52.5 66.5t82.5 25.5t81.5 -25.5t53.5 -68.5l461 -1198q10 -30 10 -54q0 -59 -41 -102t-104 -43q-44 0 -81 25.5t-54 68.5l-66 168h-367l113 291h143l-26 68q-2 4 -28 83.5t-48 129.5l-10 24q-47 123 -120.5 206 t-135.5 114z" />
<glyph unicode="&#xc2;" horiz-adv-x="1400" d="M92 147q0 24 10 54l330 854q118 -73 199 -291l-258 -670q-17 -42 -53.5 -67t-81.5 -25q-63 0 -104.5 43t-41.5 102zM295 1673q0 38 19 71t53 46l282 113q24 12 56 12q29 0 53 -12l282 -113q34 -13 53 -45t19 -70q0 -30 -12 -57q-15 -37 -48 -59.5t-71 -22.5q-20 0 -47 10 l-232 101l-229 -101q-27 -10 -47 -10q-38 0 -71 22.5t-50 59.5q-10 22 -10 55zM481 1180l84 221q15 41 52.5 66.5t82.5 25.5t82 -25.5t54 -68.5l460 -1198q11 -33 11 -54q0 -59 -41.5 -102t-104.5 -43q-44 0 -81 25.5t-54 68.5l-65 168h-367l113 291h143l-27 68 q-2 5 -27.5 84t-47.5 129l-11 24q-47 123 -120.5 206t-135.5 114z" />
<glyph unicode="&#xc3;" d="M29 147q0 24 10 54l330 854q117 -73 198 -291l-258 -670q-17 -42 -53.5 -67t-81.5 -25q-63 0 -104 43t-41 102zM418 1180l84 221q15 41 52.5 66.5t82.5 25.5t81.5 -25.5t53.5 -68.5l461 -1198q10 -30 10 -54q0 -59 -41 -102t-104 -43q-44 0 -81 25.5t-54 68.5l-66 168 h-367l113 291h143l-26 68q-2 4 -28 83.5t-48 129.5l-10 24q-47 123 -120.5 206t-135.5 114z" />
<glyph unicode="&#xc4;" horiz-adv-x="1402" d="M92 147q0 24 10 54l330 854q118 -73 199 -291l-258 -670q-17 -42 -53.5 -67t-81.5 -25q-63 0 -104.5 43t-41.5 102zM348 1726q0 64 46 110t110 46t109.5 -45.5t45.5 -110.5q0 -64 -45.5 -109.5t-109.5 -45.5q-65 0 -110.5 45.5t-45.5 109.5zM481 1180l84 221 q15 41 52.5 66.5t82.5 25.5t82 -25.5t54 -68.5l460 -1198q11 -33 11 -54q0 -59 -41.5 -102t-104.5 -43q-44 0 -81 25.5t-54 68.5l-65 168h-367l113 291h143l-27 68q-2 5 -27.5 84t-47.5 129l-11 24q-47 123 -120.5 206t-135.5 114zM764 1726q0 64 46 110t110 46t109.5 -45.5 t45.5 -110.5q0 -64 -45.5 -109.5t-109.5 -45.5q-65 0 -110.5 45.5t-45.5 109.5z" />
<glyph unicode="&#xc5;" d="M29 147q0 24 10 54l330 854q117 -73 198 -291l-258 -670q-17 -42 -53.5 -67t-81.5 -25q-63 0 -104 43t-41 102zM418 1180l84 221q15 41 52.5 66.5t82.5 25.5t81.5 -25.5t53.5 -68.5l461 -1198q10 -30 10 -54q0 -59 -41 -102t-104 -43q-44 0 -81 25.5t-54 68.5l-66 168 h-367l113 291h143l-26 68q-2 4 -28 83.5t-48 129.5l-10 24q-47 123 -120.5 206t-135.5 114z" />
<glyph unicode="&#xc7;" horiz-adv-x="1236" d="M88 616v64h291v-64q0 -67 11 -120.5t26.5 -87t41 -57.5t45.5 -35t51 -17.5t45.5 -7t39.5 -0.5q115 0 195 59q11 8 21 17.5t15 16t12 15.5t9 11q18 36 52.5 57.5t76.5 21.5q60 0 102.5 -42.5t42.5 -102.5q0 -44 -22 -80q-45 -71 -117 -131q-83 -73 -213 -110l-102 -261 q-15 -36 -47.5 -56.5t-71.5 -20.5q-24 0 -51 10q-39 15 -63.5 49.5t-24.5 73.5q0 13 8 41l65 149q-197 34 -307 174q-131 161 -131 434zM88 813v68q0 273 131 434q147 182 420 182q243 0 403 -186q75 -86 109 -168q16 -32 16 -68q0 -60 -42.5 -102.5t-102.5 -42.5 q-47 0 -85 27.5t-52 70.5q-3 7 -9 19t-28 43t-48 54.5t-69.5 42.5t-91.5 19q-25 0 -39.5 -0.5t-45.5 -7t-51 -17.5t-45.5 -35t-41 -57.5t-26.5 -87t-11 -120.5v-68h-291z" />
<glyph unicode="&#xc8;" horiz-adv-x="1273" d="M125 145v1201q0 60 42.5 102.5t102.5 42.5h146v-596h493q62 0 105 -43t43 -104q0 -60 -43.5 -103t-104.5 -43h-493v-602h-146q-56 0 -100.5 45t-44.5 100zM381 1765q0 31 12 58q15 37 48 59.5t71 22.5q21 0 47 -11l281 -122q36 -15 57 -47t21 -70q0 -27 -11 -49 q-15 -36 -47 -57t-69 -21q-30 0 -50 10l-288 113q-34 13 -53 44.5t-19 69.5zM549 0v291h502q60 0 102.5 -43t42.5 -103t-42.5 -102.5t-102.5 -42.5h-502zM549 1200v291h502q60 0 102.5 -42.5t42.5 -102.5t-42.5 -103t-102.5 -43h-502z" />
<glyph unicode="&#xc9;" horiz-adv-x="1275" d="M121 145v1201q0 60 42.5 102.5t102.5 42.5h146v-596h493q62 0 105 -43t43 -104q0 -60 -43.5 -103t-104.5 -43h-493v-602h-146q-56 0 -100.5 45t-44.5 100zM377 1655q0 38 21 70t57 47l280 122q26 11 47 11q38 0 71 -22.5t48 -59.5q12 -27 12 -58q0 -38 -18.5 -69.5 t-52.5 -44.5l-289 -113q-20 -10 -49 -10q-38 0 -70 21t-47 57q-10 20 -10 49zM545 0v291h502q60 0 102.5 -43t42.5 -103t-42.5 -102.5t-102.5 -42.5h-502zM545 1200v291h502q60 0 102.5 -42.5t42.5 -102.5t-42.5 -103t-102.5 -43h-502z" />
<glyph unicode="&#xca;" horiz-adv-x="1304" d="M133 145v1201q0 60 43 102.5t103 42.5h145v-596h494q62 0 104.5 -42.5t42.5 -104.5q0 -60 -43 -103t-104 -43h-494v-602h-145q-56 0 -101 45t-45 100zM252 1673q0 38 19 71t53 46l282 113q24 12 56 12q29 0 53 -12l282 -113q34 -13 53 -45t19 -70q0 -30 -12 -57 q-15 -37 -48 -59.5t-71 -22.5q-20 0 -47 10l-232 101l-229 -101q-27 -10 -47 -10q-38 0 -71 22.5t-50 59.5q-10 22 -10 55zM557 0v291h502q60 0 102.5 -43t42.5 -103t-42.5 -102.5t-102.5 -42.5h-502zM557 1200v291h502q60 0 102.5 -42.5t42.5 -102.5t-42.5 -103t-102.5 -43 h-502z" />
<glyph unicode="&#xcb;" horiz-adv-x="1306" d="M135 145v1201q0 60 43 102.5t103 42.5h145v-596h494q62 0 104.5 -42.5t42.5 -104.5q0 -60 -43 -103t-104 -43h-494v-602h-145q-56 0 -101 45t-45 100zM283 1726q0 65 45.5 110.5t109.5 45.5t110 -46t46 -110t-45.5 -109.5t-110.5 -45.5q-64 0 -109.5 45.5t-45.5 109.5z M559 0v291h502q60 0 102.5 -43t42.5 -103t-42.5 -102.5t-102.5 -42.5h-502zM559 1200v291h502q60 0 102.5 -42.5t42.5 -102.5t-42.5 -103t-102.5 -43h-502zM698 1726q0 64 46 110t110 46t110 -46t46 -110t-45.5 -109.5t-110.5 -45.5t-110.5 45.5t-45.5 109.5z" />
<glyph unicode="&#xcc;" horiz-adv-x="675" d="M76 1765q0 31 12 58q15 37 48 59.5t71 22.5q21 0 47 -11l281 -122q36 -15 56.5 -47t20.5 -70q0 -29 -10 -49q-15 -36 -47 -57t-70 -21q-29 0 -49 10l-289 113q-34 13 -52.5 44.5t-18.5 69.5zM201 145v551h291v-551q0 -60 -43 -102.5t-103 -42.5t-102.5 42.5t-42.5 102.5z M201 829v517q0 60 42.5 102.5t102.5 42.5t103 -42.5t43 -102.5v-517h-291z" />
<glyph unicode="&#xcd;" horiz-adv-x="677" d="M76 1765q0 31 12 58q15 37 48 59.5t71 22.5q21 0 47 -11l281 -122q36 -15 56.5 -47t20.5 -70q0 -29 -10 -49q-15 -36 -47 -57t-70 -21q-29 0 -49 10l-289 113q-34 13 -52.5 44.5t-18.5 69.5zM207 145v551h291v-551q0 -60 -43 -102.5t-103 -42.5t-102.5 42.5t-42.5 102.5z M207 829v517q0 60 42.5 102.5t102.5 42.5t103 -42.5t43 -102.5v-517h-291z" />
<glyph unicode="&#xce;" horiz-adv-x="931" d="M59 1612q0 38 19 71t53 46l283 112q24 12 55 12q25 0 53 -12l283 -112q34 -13 53 -45t19 -70q0 -29 -13 -58q-15 -37 -48 -59t-71 -22q-20 0 -47 10l-231 100l-229 -100q-27 -10 -48 -10q-38 0 -70.5 22t-49.5 59q-11 25 -11 56zM311 145v551h291v-551 q0 -60 -42.5 -102.5t-102.5 -42.5t-103 42.5t-43 102.5zM311 829v517q0 60 43 102.5t103 42.5t102.5 -42.5t42.5 -102.5v-517h-291z" />
<glyph unicode="&#xcf;" horiz-adv-x="870" d="M70 1726q0 65 45.5 110.5t109.5 45.5q65 0 110.5 -46t45.5 -110t-45.5 -109.5t-110.5 -45.5t-110 45.5t-45 109.5zM295 145v551h291v-551q0 -60 -43 -102.5t-103 -42.5t-102.5 42.5t-42.5 102.5zM295 829v517q0 60 42.5 102.5t102.5 42.5t103 -42.5t43 -102.5v-517h-291z M485 1726q0 64 45.5 110t110.5 46t110.5 -46t45.5 -110t-45.5 -109.5t-110.5 -45.5t-110.5 45.5t-45.5 109.5z" />
<glyph unicode="&#xd2;" horiz-adv-x="1210" d="M92 518v178h289v-182q0 -106 65.5 -164.5t155.5 -58.5q91 0 158 59.5t67 163.5v182h289v-178q0 -216 -152.5 -367t-369.5 -151q-144 0 -259 67.5t-179 186t-64 264.5zM92 829v144q0 145 68.5 264t187 186.5t262.5 67.5q143 0 259.5 -69t181.5 -187.5t65 -261.5v-144h-289 v144q0 106 -65.5 165.5t-155.5 59.5q-92 0 -158.5 -59.5t-66.5 -165.5v-144h-289zM362 1765q0 29 13 58q15 37 48 59.5t71 22.5q21 0 47 -11l280 -122q36 -15 57 -47t21 -70q0 -29 -10 -49q-15 -36 -47 -57t-70 -21q-29 0 -49 10l-289 113q-34 13 -53 44.5t-19 69.5z" />
<glyph unicode="&#xd3;" horiz-adv-x="1210" d="M90 518v178h289v-182q0 -106 65.5 -164.5t155.5 -58.5q91 0 158 59.5t67 163.5v182h289v-178q0 -216 -152.5 -367t-369.5 -151q-144 0 -259 67.5t-179 186t-64 264.5zM90 829v144q0 145 68.5 264t187 186.5t262.5 67.5q143 0 259.5 -69t181.5 -187.5t65 -261.5v-144h-289 v144q0 106 -65.5 165.5t-155.5 59.5q-92 0 -158.5 -59.5t-66.5 -165.5v-144h-289zM340 1655q0 38 21 70t57 47l280 122q26 11 47 11q38 0 71 -22.5t48 -59.5q13 -29 13 -58q0 -38 -19 -69.5t-53 -44.5l-289 -113q-20 -10 -49 -10q-38 0 -70 21t-47 57q-10 20 -10 49z" />
<glyph unicode="&#xd4;" horiz-adv-x="1241" d="M109 518v178h288v-182q0 -106 65.5 -164.5t155.5 -58.5q91 0 158.5 59.5t67.5 163.5v182h289v-178q0 -142 -70 -261.5t-190.5 -188t-262.5 -68.5q-218 0 -359.5 147.5t-141.5 370.5zM109 829v144q0 145 68.5 264t187 186.5t262.5 67.5q143 0 259.5 -69t181.5 -187.5 t65 -261.5v-144h-289v144q0 106 -65.5 165.5t-155.5 59.5q-92 0 -159 -59.5t-67 -165.5v-144h-288zM219 1673q0 38 19 71t53 46l282 113q24 12 56 12q29 0 53 -12l283 -113q34 -13 52.5 -45t18.5 -70q0 -30 -12 -57q-15 -37 -48 -59.5t-71 -22.5q-20 0 -47 10l-231 101 l-230 -101q-27 -10 -47 -10q-38 0 -71 22.5t-50 59.5q-10 22 -10 55z" />
<glyph unicode="&#xd5;" horiz-adv-x="1263" d="M-18 518v178h288v-182q0 -106 66 -164.5t156 -58.5q91 0 158 59.5t67 163.5v182h289v-178q0 -142 -70 -261.5t-190.5 -188t-262.5 -68.5q-218 0 -359.5 147.5t-141.5 370.5zM-18 829v144q0 145 68.5 264t187 186.5t262.5 67.5q143 0 259.5 -69t181.5 -187.5t65 -261.5 v-144h-289v144q0 106 -65.5 165.5t-155.5 59.5q-92 0 -159 -59.5t-67 -165.5v-144h-288z" />
<glyph unicode="&#xd6;" horiz-adv-x="1239" d="M109 518v178h288v-182q0 -106 65.5 -164.5t155.5 -58.5q91 0 158.5 59.5t67.5 163.5v182h289v-178q0 -142 -70 -261.5t-190.5 -188t-262.5 -68.5q-218 0 -359.5 147.5t-141.5 370.5zM109 829v144q0 145 68.5 264t187 186.5t262.5 67.5q143 0 259.5 -69t181.5 -187.5 t65 -261.5v-144h-289v144q0 106 -65.5 165.5t-155.5 59.5q-92 0 -159 -59.5t-67 -165.5v-144h-288zM254 1726q0 64 46 110t110 46t109.5 -45.5t45.5 -110.5q0 -64 -45.5 -109.5t-109.5 -45.5q-65 0 -110.5 45.5t-45.5 109.5zM670 1726q0 65 45.5 110.5t109.5 45.5 q65 0 110.5 -46t45.5 -110t-45.5 -109.5t-110.5 -45.5t-110 45.5t-45 109.5z" />
<glyph unicode="&#xd7;" horiz-adv-x="956" d="M139 313q0 49 37 86l131 129l-131 134q-37 34 -37 83q0 52 37 89q37 34 88 34q53 0 84 -34l131 -134l131 134q34 34 86 34q49 0 86 -34q35 -38 35 -86t-35 -86l-131 -134l131 -129q35 -35 35 -88q0 -51 -35 -86t-86 -35q-54 0 -86 35l-131 131l-131 -131q-35 -35 -86 -35 q-54 0 -86 35q-37 37 -37 88z" />
<glyph unicode="&#xd9;" horiz-adv-x="1206" d="M109 526v168h270v-168q0 -64 22.5 -111.5t51.5 -70.5t67 -36t57 -15t35 -2q34 0 70 13t70.5 39t56.5 73.5t22 109.5v168h273v-168q0 -116 -40.5 -215.5t-108 -167t-157 -105.5t-186.5 -38q-173 0 -311 104q-192 145 -192 422zM109 827v523q0 60 39 102.5t96 42.5 q56 0 95.5 -42.5t39.5 -102.5v-523h-270zM334 1765q0 31 12 58q15 37 48 59.5t71 22.5q21 0 47 -11l281 -122q36 -15 56.5 -47t20.5 -70q0 -29 -10 -49q-15 -36 -47 -57t-70 -21q-29 0 -49 10l-288 113q-34 13 -53 44.5t-19 69.5zM831 827v523q0 60 41 102.5t97 42.5 q57 0 96 -42.5t39 -102.5v-523h-273z" />
<glyph unicode="&#xda;" horiz-adv-x="1208" d="M104 526v168h271v-168q0 -64 22.5 -111.5t51.5 -70.5t67 -36t57 -15t35 -2q34 0 70 13t70.5 39t56.5 73.5t22 109.5v168h273v-168q0 -116 -40.5 -215.5t-108 -167t-157 -105.5t-186.5 -38q-173 0 -311 104q-193 146 -193 422zM104 827v523q0 60 39.5 102.5t96.5 42.5 q56 0 95.5 -42.5t39.5 -102.5v-523h-271zM330 1655q0 38 21 70t57 47l280 122q26 11 47 11q38 0 71 -22.5t48 -59.5q12 -27 12 -58q0 -38 -18.5 -69.5t-52.5 -44.5l-289 -113q-20 -10 -49 -10q-38 0 -70 21t-47 57q-10 20 -10 49zM827 827v523q0 60 41 102.5t97 42.5 q57 0 96 -42.5t39 -102.5v-523h-273z" />
<glyph unicode="&#xdb;" horiz-adv-x="1236" d="M121 526v168h270v-168q0 -54 15 -96.5t40.5 -66.5t51.5 -40t56 -22t44.5 -8t26.5 -2q34 0 70 13t70.5 39t56.5 73.5t22 109.5v168h272v-168q0 -116 -40 -215.5t-107.5 -167t-157 -105.5t-186.5 -38q-36 0 -76.5 5.5t-109.5 30.5t-126 68q-192 145 -192 422zM121 827v523 q0 60 39 102.5t96 42.5q56 0 95.5 -42.5t39.5 -102.5v-523h-270zM209 1673q0 38 19 71t53 46l282 113q24 12 55 12q30 0 54 -12l282 -113q34 -13 53 -45t19 -70q0 -30 -12 -57q-15 -37 -48 -59.5t-71 -22.5q-20 0 -47 10l-232 101l-229 -101q-27 -10 -47 -10q-38 0 -71 22.5 t-50 59.5q-10 22 -10 55zM844 827v523q0 60 40.5 102.5t96.5 42.5q57 0 96 -42.5t39 -102.5v-523h-272z" />
<glyph unicode="&#xdc;" horiz-adv-x="1232" d="M119 526v168h270v-168q0 -54 15 -96.5t40.5 -66.5t51.5 -40t56 -22t44.5 -8t26.5 -2q34 0 70 13t70.5 39t56.5 73.5t22 109.5v168h272v-168q0 -116 -40 -215.5t-107.5 -167t-157 -105.5t-186.5 -38q-36 0 -76.5 5.5t-109.5 30.5t-126 68q-192 145 -192 422zM119 827v523 q0 60 39 102.5t96 42.5q56 0 95.5 -42.5t39.5 -102.5v-523h-270zM254 1726q0 64 46 110t110 46t109.5 -45.5t45.5 -110.5q0 -64 -45.5 -109.5t-109.5 -45.5q-65 0 -110.5 45.5t-45.5 109.5zM670 1726q0 65 45.5 110.5t109.5 45.5q65 0 110.5 -46t45.5 -110t-45.5 -109.5 t-110.5 -45.5t-110 45.5t-45 109.5zM842 827v523q0 60 40.5 102.5t96.5 42.5q57 0 96 -42.5t39 -102.5v-523h-272z" />
<glyph unicode="&#xff;" />
<glyph unicode="&#x178;" horiz-adv-x="1202" d="M51 1346q0 58 43.5 101.5t102.5 43.5q65 0 108 -49l297 -340q57 -67 101.5 -148.5t44.5 -148.5v-660q0 -60 -43 -102.5t-103 -42.5t-102.5 42.5t-42.5 102.5v680l-371 424q-35 38 -35 97zM233 1726q0 64 45.5 110t110.5 46t110.5 -46t45.5 -110t-45.5 -109.5 t-110.5 -45.5t-110.5 45.5t-45.5 109.5zM649 1726q0 64 45.5 110t110.5 46t110.5 -46t45.5 -110t-45.5 -109.5t-110.5 -45.5t-110.5 45.5t-45.5 109.5zM664 1171l235 271q43 49 109 49q53 0 96 -37q49 -43 49 -108q0 -54 -37 -97l-295 -338q-20 78 -64 147t-93 113z" />
<glyph unicode="&#x2000;" horiz-adv-x="957" />
<glyph unicode="&#x2001;" horiz-adv-x="1915" />
<glyph unicode="&#x2002;" horiz-adv-x="957" />
<glyph unicode="&#x2003;" horiz-adv-x="1915" />
<glyph unicode="&#x2004;" horiz-adv-x="638" />
<glyph unicode="&#x2005;" horiz-adv-x="478" />
<glyph unicode="&#x2006;" horiz-adv-x="319" />
<glyph unicode="&#x2007;" horiz-adv-x="319" />
<glyph unicode="&#x2008;" horiz-adv-x="239" />
<glyph unicode="&#x2009;" horiz-adv-x="383" />
<glyph unicode="&#x200a;" horiz-adv-x="106" />
<glyph unicode="&#x2010;" horiz-adv-x="1136" d="M139 618q0 51 36 87t87 36h615q51 0 85.5 -36t34.5 -87q0 -50 -34.5 -85t-85.5 -35h-615q-51 0 -87 35t-36 85z" />
<glyph unicode="&#x2011;" horiz-adv-x="1136" d="M139 618q0 51 36 87t87 36h615q51 0 85.5 -36t34.5 -87q0 -50 -34.5 -85t-85.5 -35h-615q-51 0 -87 35t-36 85z" />
<glyph unicode="&#x2012;" horiz-adv-x="1136" d="M139 618q0 51 36 87t87 36h615q51 0 85.5 -36t34.5 -87q0 -50 -34.5 -85t-85.5 -35h-615q-51 0 -87 35t-36 85z" />
<glyph unicode="&#x2013;" horiz-adv-x="1409" d="M141 618q0 51 36 87t87 36h881q51 0 86 -36t35 -87q0 -50 -35 -85t-86 -35h-881q-51 0 -87 35t-36 85z" />
<glyph unicode="&#x2014;" horiz-adv-x="1554" d="M143 618q0 51 36 87t87 36h1024q51 0 86 -36t35 -87q0 -50 -35 -85t-86 -35h-1024q-51 0 -87 35t-36 85z" />
<glyph unicode="&#x2022;" horiz-adv-x="679" d="M106 616q0 97 68.5 165.5t165.5 68.5t165 -68.5t68 -165.5t-68 -165t-165 -68t-165.5 68t-68.5 165z" />
<glyph unicode="&#x2026;" horiz-adv-x="1994" d="M143 166q0 68 47.5 115t114.5 47t114.5 -47t47.5 -115t-47.5 -115t-114.5 -47t-114.5 47t-47.5 115zM846 166q0 68 47 115t115 47q67 0 114 -47t47 -115t-47 -115t-114 -47q-68 0 -115 47t-47 115zM1528 166q0 68 47 115t115 47q67 0 114 -47t47 -115t-47 -115t-114 -47 q-68 0 -115 47t-47 115z" />
<glyph unicode="&#x202f;" horiz-adv-x="383" />
<glyph unicode="&#x205f;" horiz-adv-x="478" />
<glyph unicode="&#x2122;" horiz-adv-x="3078" d="M63 1343q0 60 43 103t103 43h797q60 0 102.5 -43t42.5 -103t-42.5 -102.5t-102.5 -42.5h-797q-60 0 -103 42.5t-43 102.5zM461 143v922h291v-922q0 -60 -43 -102.5t-103 -42.5t-102.5 42.5t-42.5 102.5zM1366 143v852q128 -17 217 -106q8 -9 19.5 -20.5t28 -27.5 t26.5 -26v-674q0 -60 -43 -101.5t-103 -41.5t-102.5 42.5t-42.5 102.5zM1366 1124v224q0 59 41 101t104 42q62 0 103 -41l530 -528l533 528q41 41 102 41q60 0 103 -42t43 -101v-224q-169 -18 -291 -127l-385 -383q-43 -43 -105 -43q-59 0 -102 43l-385 381 q-121 111 -291 129zM2634 143v672l73 74q89 89 218 106v-852q0 -60 -43 -102.5t-103 -42.5t-102.5 42.5t-42.5 102.5z" />
<glyph unicode="&#x25fc;" horiz-adv-x="1024" d="M0 0z" />
</font>
</defs>
</svg>
